<svg width="213" height="298" viewBox="0 0 213 298" fill="none" xmlns="http://www.w3.org/2000/svg">
<g clip-path="url(#clip0_168_3459)">
<g style="mix-blend-mode:multiply">
<path d="M51.9075 229.119L51.0638 228.955L51.1118 228.065C51.2738 225.177 51.3703 222.624 51.4783 220.399C51.9024 210.123 52.105 205.869 56.098 201.679C60.0911 197.861 64.8143 194.884 69.9863 192.926C75.5058 190.844 80.4832 187.547 84.5486 183.28C86.4822 181.307 87.7624 178.788 88.2165 176.065C88.6705 173.342 88.2767 170.544 87.0881 168.05C84.1193 162.48 77.048 159.605 68.1583 160.546C64.2672 160.981 60.4229 161.762 56.671 162.877C48.9875 165.076 48.6358 164.184 42.6873 149.372L40.6319 144.379L40.2902 143.564L41.0775 143.118C61.4774 131.888 83.8497 131.476 100.91 142.285C113.403 150.084 120.459 162.29 119.798 174.941C119.05 189.322 108.411 202.203 89.8674 211.223C77.8171 217.089 77.2311 222.542 76.9481 226.181C77.0019 227.042 76.8637 227.904 76.5434 228.704C76.2231 229.505 75.7287 230.225 75.0958 230.812C72.5812 232.419 66.9735 232.052 51.9075 229.119ZM76.7264 158.944C79.2467 159.305 81.6506 160.239 83.7528 161.674C85.8549 163.109 87.5991 165.006 88.8509 167.22C90.2333 170.07 90.7059 173.274 90.2049 176.4C89.7039 179.525 88.2534 182.421 86.0494 184.696C81.8153 189.151 76.6208 192.587 70.8585 194.743C65.9271 196.609 61.4204 199.44 57.6036 203.071C54.1133 206.734 53.9608 210.474 53.5399 220.476C53.4453 222.504 53.3568 224.758 53.2074 227.325C66.2726 229.868 72.0926 230.302 73.872 229.001C74.5723 228.489 74.6973 227.59 74.8804 225.878C75.32 221.82 75.9889 215.685 89.0333 209.339C106.833 200.673 117.128 188.399 117.779 174.773C118.396 162.862 111.686 151.322 99.8352 143.823C83.6212 133.678 62.3604 133.907 42.8328 144.383L44.5083 148.628C47.3603 155.698 48.928 159.598 50.3666 161.076C51.8052 162.554 52.6976 161.954 56.0921 160.967C59.9408 159.834 63.886 159.057 67.878 158.644C70.8256 158.304 73.808 158.405 76.7264 158.944Z" fill="#00B8AD" fill-opacity="0.45"/>
</g>
<g style="mix-blend-mode:multiply">
<path d="M53.3969 271.592C45.6831 270.091 38.327 263.667 40.4197 252.917C42.5123 242.167 51.7315 239.019 59.4453 240.521C67.1592 242.022 74.5086 248.994 72.5284 259.167C72.1772 261.379 71.3371 263.485 70.0688 265.332C68.8005 267.179 67.1359 268.721 65.1957 269.845C61.5991 271.815 57.4139 272.434 53.3969 271.592ZM59.0615 242.493C52.2878 241.174 44.1839 243.99 42.3722 253.297C40.5605 262.604 46.9589 268.292 53.7808 269.62C60.6027 270.948 68.7353 268.113 70.5517 258.782C72.3681 249.451 65.8593 243.816 59.0615 242.493Z" fill="#00B8AD" fill-opacity="0.45"/>
</g>
<g style="mix-blend-mode:multiply">
<path d="M51.0787 233.376L46.4987 232.484L46.7567 227.817C46.9195 225.053 47.0167 222.626 47.1246 220.4L47.1808 220.112C47.6216 209.365 47.8226 203.962 52.9697 198.599C53.3479 198.199 53.7502 197.803 54.1191 197.45L55.5141 198.895L54.427 199.981C49.8355 204.803 49.6331 209.956 49.1895 220.203L49.1381 220.468C49.0636 222.65 48.9423 225.072 48.7943 227.889L48.6275 230.802L51.472 231.356C67.6951 234.514 73.3262 234.761 76.2845 232.417C77.5087 231.529 78.3538 230.215 78.6526 228.734L80.6293 229.119C80.2087 231.038 79.1042 232.739 77.5209 233.905C73.8148 236.878 68.3625 236.74 51.0787 233.376Z" fill="#00B8AD" fill-opacity="0.45"/>
<path d="M85.6157 176.898L83.6812 176.297C83.7685 175.974 83.8327 175.644 83.8731 175.311C84.1584 173.934 84.074 172.505 83.6284 171.17C82.4733 167.85 78.9448 165.541 74.2075 164.943L74.4467 162.943C80.013 163.652 84.1221 166.449 85.4836 170.508C86.0268 172.138 86.1442 173.879 85.825 175.566C85.784 176.014 85.7141 176.459 85.6157 176.898Z" fill="#00B8AD" fill-opacity="0.45"/>
<path d="M50.401 168.097C45.0254 167.05 43.2963 162.695 38.6997 151.092L36.6925 146.109L34.7705 141.716L38.9187 139.428C48.1803 134.179 58.5063 131.071 69.1356 130.334L69.272 132.332C58.9742 133.083 48.9777 136.127 40.0172 141.24L37.439 142.66L38.5377 145.37L40.569 150.358L39.6518 150.828L40.5985 150.463C45.0771 161.644 46.5959 165.409 50.8867 166.244C52.4852 166.472 54.1144 166.327 55.6472 165.823L56.1686 167.772C54.2997 168.336 52.3225 168.448 50.401 168.097Z" fill="#00B8AD" fill-opacity="0.45"/>
<path d="M106.885 205.675L105.609 204.129C113.63 198.138 119.27 189.512 121.534 179.772C121.994 177.436 122.197 175.057 122.14 172.676L124.153 172.619C124.21 175.148 123.994 177.675 123.511 180.157C121.158 190.355 115.27 199.393 106.885 205.675Z" fill="#00B8AD" fill-opacity="0.45"/>
</g>
<g style="mix-blend-mode:multiply">
<path d="M52.5685 275.849C42.4923 273.887 33.6205 265.097 36.1532 252.086C36.576 249.796 37.3688 247.59 38.5005 245.554L40.259 246.545C39.2259 248.39 38.4988 250.389 38.1057 252.466C35.8258 264.178 43.8645 272.108 52.9523 273.877L52.5685 275.849ZM72.877 268.944L71.2952 267.688C73.0851 265.327 74.2892 262.576 74.8092 259.661C75.6365 255.923 75.2295 252.017 73.649 248.527L75.4888 247.687C77.2337 251.564 77.6883 255.895 76.7859 260.046C76.2048 263.279 74.8653 266.328 72.877 268.944Z" fill="#00B8AD" fill-opacity="0.45"/>
</g>
<g style="mix-blend-mode:multiply">
<path d="M148.426 177.219L147.559 177.05L147.727 176.184C147.814 174.454 147.882 172.945 147.938 171.633C148.221 165.423 148.322 162.846 150.802 160.259C153.204 157.946 156.049 156.14 159.166 154.948C162.416 153.781 165.353 151.885 167.751 149.406C168.844 148.293 169.57 146.873 169.833 145.337C170.096 143.801 169.884 142.22 169.225 140.807C167.521 137.605 163.477 136.019 158.365 136.571C156.078 136.823 153.818 137.286 151.617 137.953C146.693 139.341 146.317 138.444 142.82 129.676L141.604 126.669L141.267 125.829L142.049 125.408C154.273 118.652 167.723 118.449 177.997 124.917C181.496 126.878 184.403 129.741 186.413 133.206C188.424 136.672 189.464 140.612 189.425 144.614C188.958 153.309 182.563 161.1 171.425 166.52C164.466 169.883 164.131 172.888 163.912 175.042C163.936 175.6 163.837 176.156 163.62 176.671C163.403 177.185 163.074 177.645 162.657 178.017C160.877 179.193 157.611 179.007 148.426 177.219ZM163.306 134.712C164.864 134.945 166.35 135.528 167.65 136.417C168.951 137.306 170.032 138.477 170.814 139.843C171.643 141.618 171.921 143.599 171.611 145.532C171.302 147.465 170.42 149.26 169.078 150.687C166.517 153.381 163.375 155.458 159.889 156.761C157.004 157.842 154.367 159.494 152.139 161.618C150.176 163.732 150.087 165.861 149.83 171.677C149.789 172.792 149.723 174.027 149.654 175.411C154.885 176.43 160.134 177.227 161.271 176.4C161.558 176.206 161.599 175.74 161.7 174.836C161.975 172.393 162.373 168.552 170.331 164.685C180.801 159.609 186.8 152.44 187.218 144.509C187.248 140.846 186.288 137.241 184.439 134.074C182.59 130.908 179.92 128.296 176.711 126.514C167.297 120.638 154.973 120.71 143.574 126.703L144.448 128.895C145.26 131.487 146.4 133.965 147.841 136.27C148.345 136.767 148.787 136.679 150.85 136.107C153.163 135.412 155.535 134.93 157.936 134.665C159.718 134.416 161.528 134.432 163.306 134.712Z" fill="#003359" fill-opacity="0.45"/>
</g>
<g style="mix-blend-mode:multiply">
<path d="M149.415 202.472C147.537 202.038 145.827 201.062 144.5 199.665C143.173 198.269 142.286 196.514 141.951 194.62C141.616 192.725 141.847 190.774 142.615 189.011C143.383 187.247 144.654 185.749 146.271 184.702C147.887 183.655 149.777 183.106 151.705 183.123C153.632 183.141 155.513 183.724 157.112 184.8C158.71 185.876 159.957 187.398 160.696 189.175C161.435 190.952 161.634 192.907 161.267 194.795C161.036 196.097 160.539 197.338 159.808 198.44C159.076 199.542 158.125 200.482 157.013 201.202C155.902 201.922 154.654 202.406 153.347 202.624C152.04 202.843 150.702 202.791 149.415 202.472ZM152.781 185.181C151.262 184.949 149.709 185.167 148.314 185.81C146.919 186.452 145.745 187.49 144.938 188.793C144.13 190.097 143.725 191.609 143.773 193.141C143.82 194.674 144.318 196.159 145.205 197.412C146.091 198.665 147.327 199.63 148.759 200.188C150.191 200.746 151.755 200.871 153.257 200.549C154.758 200.226 156.132 199.47 157.205 198.374C158.279 197.278 159.006 195.892 159.295 194.386C159.528 193.351 159.54 192.278 159.331 191.237C159.122 190.196 158.698 189.21 158.084 188.343C157.47 187.476 156.681 186.746 155.768 186.201C154.854 185.657 153.837 185.309 152.781 185.181Z" fill="#003359" fill-opacity="0.45"/>
</g>
<g style="mix-blend-mode:multiply">
<path d="M147.598 181.476L142.993 180.58L143.276 175.917C143.353 174.235 143.412 172.774 143.487 171.49C143.763 164.929 143.924 161.017 147.501 157.295C150.292 154.569 153.609 152.438 157.252 151.031L158.323 150.541L159.167 152.377L158.071 152.863C154.696 154.15 151.613 156.095 149.001 158.586C145.874 161.796 145.767 165.045 145.495 171.457C145.454 172.822 145.366 174.302 145.289 175.984L145.122 178.897L147.991 179.456C157.151 181.239 161.367 181.685 163.852 179.847C164.529 179.293 165.077 178.597 165.455 177.808C165.834 177.019 166.034 176.157 166.042 175.282C166.247 173.2 166.823 171.265 171.919 168.738L172.82 170.536C168.33 172.782 168.188 174.152 168.027 175.493C168.005 176.652 167.727 177.791 167.213 178.83C166.7 179.869 165.963 180.782 165.055 181.505C161.991 183.753 157.818 183.465 147.598 181.476Z" fill="#003359" fill-opacity="0.45"/>
<path d="M166.857 146.286L165.056 145.387C165.165 145.069 165.23 144.737 165.248 144.401C165.342 143.957 165.32 143.497 165.183 143.065C165.063 142.735 164.874 142.434 164.629 142.183L166.095 140.821C166.539 141.272 166.878 141.815 167.086 142.412C167.339 143.178 167.387 143.996 167.224 144.785C167.173 145.3 167.049 145.806 166.857 146.286Z" fill="#003359" fill-opacity="0.45"/>
<path d="M147.193 142.683C142.83 141.834 141.497 138.529 138.586 131.248L135.588 123.9L139.736 121.613C149.049 116.147 160.138 114.534 170.634 117.119L170.25 119.091C160.229 116.594 149.631 118.116 140.728 123.328L138.121 124.768L140.455 130.514C143.253 137.473 144.299 140.073 147.577 140.711C149.095 140.885 150.632 140.697 152.062 140.162C154.14 139.533 156.275 139.112 158.436 138.906C159.403 138.787 160.379 138.768 161.35 138.849L161.183 140.864C160.347 140.789 159.507 140.801 158.674 140.899C156.618 141.158 154.59 141.598 152.613 142.216C150.871 142.806 149.012 142.966 147.193 142.683Z" fill="#003359" fill-opacity="0.45"/>
<path d="M187.362 159.838L185.814 158.538C188.509 155.458 190.363 151.735 191.195 147.729C191.506 146.16 191.633 144.56 191.573 142.961L193.59 142.879C193.647 144.634 193.507 146.39 193.172 148.114C192.28 152.457 190.279 156.496 187.362 159.838Z" fill="#003359" fill-opacity="0.45"/>
</g>
<g style="mix-blend-mode:multiply">
<path d="M148.586 206.729C146.694 206.441 144.88 205.775 143.252 204.77C141.624 203.765 140.216 202.443 139.113 200.881C138.01 199.32 137.234 197.553 136.833 195.685C136.431 193.818 136.413 191.889 136.777 190.015C137.142 188.141 137.883 186.36 138.956 184.78C140.028 183.199 141.41 181.852 143.018 180.819C144.626 179.785 146.428 179.087 148.314 178.766C150.2 178.445 152.132 178.509 153.994 178.952C156.499 179.399 158.84 180.505 160.774 182.157C162.709 183.808 164.167 185.945 164.998 188.346C165.828 190.746 166.002 193.325 165.5 195.814C164.998 198.303 163.84 200.612 162.144 202.504L160.657 201.141C162.111 199.513 163.102 197.526 163.528 195.387C163.954 193.248 163.8 191.033 163.081 188.973C162.363 186.912 161.106 185.079 159.441 183.664C157.776 182.249 155.763 181.303 153.61 180.924C151.951 180.363 150.191 180.162 148.449 180.335C146.706 180.508 145.021 181.052 143.507 181.928C141.993 182.805 140.685 183.995 139.67 185.418C138.655 186.841 137.958 188.465 137.624 190.18C137.29 191.895 137.328 193.662 137.734 195.362C138.141 197.062 138.908 198.655 139.982 200.036C141.057 201.417 142.415 202.552 143.965 203.366C145.515 204.181 147.222 204.655 148.97 204.757L148.586 206.729Z" fill="#003359" fill-opacity="0.45"/>
</g>
<g style="mix-blend-mode:multiply">
<path d="M104.364 114.777L103.52 114.613L103.684 113.771C103.836 110.805 103.966 108.21 104.059 105.932C104.496 95.4584 104.698 91.0797 108.744 86.8751C112.844 82.9818 117.689 79.9521 122.988 77.9663C128.617 75.8723 133.697 72.535 137.848 68.2041C139.827 66.1882 141.137 63.6148 141.603 60.831C142.069 58.0472 141.668 55.1871 140.453 52.6366C137.18 46.8325 130.017 43.9155 120.944 44.8951C116.964 45.3331 113.033 46.13 109.197 47.276C101.263 49.4757 101.008 48.6023 94.9422 33.4935L92.866 28.222L92.5244 27.4067L93.307 26.985C114.11 15.4841 136.945 15.1368 154.367 26.0164C167.125 33.9913 174.332 46.4517 173.644 59.372C172.864 74.0467 162.024 87.1876 143.096 96.3827C130.801 102.351 130.187 107.947 129.789 111.664C129.846 112.525 129.709 113.388 129.389 114.19C129.068 114.991 128.572 115.711 127.936 116.296C125.447 118.157 119.719 117.766 104.364 114.777ZM129.68 43.2011C132.25 43.5682 134.701 44.5185 136.846 45.9788C138.991 47.4392 140.771 49.3707 142.051 51.6247C143.459 54.5311 143.94 57.798 143.427 60.9837C142.914 64.1695 141.433 67.1204 139.184 69.4376C134.853 73.994 129.541 77.5088 123.648 79.7172C118.602 81.5978 113.99 84.4784 110.09 88.1855C106.533 91.9361 106.391 95.7522 105.947 106C105.848 108.052 105.745 110.378 105.615 112.974C118.97 115.573 125.031 116.054 126.743 114.715C127.472 114.183 127.606 113.236 127.789 111.524C128.223 107.366 128.916 101.11 142.21 94.6377C160.46 85.7101 170.894 73.239 171.601 59.3239C172.246 47.1438 165.38 35.3738 153.269 27.7995C136.674 17.4303 114.96 17.6714 95.0147 28.3657C95.6592 29.9389 96.2501 31.4018 96.6716 32.7069C99.5919 39.9399 101.17 43.9162 102.676 45.4325C103.828 46.5804 105.002 46.3346 108.527 45.3233C112.461 44.137 116.499 43.3185 120.586 42.8785C123.616 42.5283 126.682 42.637 129.68 43.2011Z" fill="#FFB412" fill-opacity="0.45"/>
</g>
<g style="mix-blend-mode:multiply">
<path d="M105.896 158.057C98.0378 156.527 90.5411 149.926 92.6618 139.032C94.7825 128.138 104.203 124.855 112.062 126.384C119.92 127.914 127.497 135.13 125.475 145.519C123.453 155.909 114.068 159.648 105.896 158.057ZM111.678 128.356C104.76 127.01 96.4923 129.893 94.6384 139.417C92.7846 148.94 99.3618 154.738 106.28 156.085C113.198 157.432 121.591 154.548 123.445 145.024C125.299 135.501 118.529 129.79 111.659 128.453L111.678 128.356Z" fill="#FFB412" fill-opacity="0.45"/>
</g>
<g style="mix-blend-mode:multiply">
<path d="M103.474 119.346L98.653 118.408L98.9385 113.471C99.1146 110.51 99.2111 107.958 99.3043 105.68C99.7725 94.6637 100.021 89.1458 105.278 83.6045C105.4 83.4607 105.534 83.3281 105.68 83.2086L107.109 84.6099L106.759 84.9912C101.986 89.9776 101.76 95.2502 101.313 105.771C101.22 108.05 101.1 110.722 100.943 113.587L100.777 116.75L103.887 117.355C120.52 120.593 126.276 120.84 129.523 118.427C130.507 117.717 131.263 116.737 131.698 115.605L133.581 116.346C132.993 117.823 132.007 119.109 130.731 120.06C126.822 122.918 120.975 122.753 103.474 119.346Z" fill="#FFB412" fill-opacity="0.45"/>
<path d="M138.5 61.5167L136.589 60.9201C136.659 60.5594 136.73 60.1986 136.8 59.8379C137.082 58.4679 136.996 57.0476 136.55 55.7208C135.346 52.2665 131.605 49.766 126.416 49.4299L126.583 47.4156C132.582 47.9594 136.976 50.8365 138.454 55.0679C139.001 56.6972 139.119 58.4394 138.795 60.1265C138.724 60.5953 138.626 61.0595 138.5 61.5167Z" fill="#FFB412" fill-opacity="0.45"/>
<path d="M102.803 52.6208C97.2102 51.5321 95.4275 47.0666 90.5938 35.2678L88.523 30.0973L86.6284 25.4352L91.0543 22.8772C100.233 17.7269 110.414 14.6017 120.91 13.7126L121.07 15.7157C110.846 16.5982 100.936 19.6757 92.0182 24.7372L89.2098 26.3121L90.4063 29.2907L92.5012 34.466C97.1165 45.9727 98.6889 49.8481 103.197 50.7256C104.461 50.939 105.755 50.8937 107 50.5924L107.421 52.5463C105.904 52.8925 104.331 52.9179 102.803 52.6208Z" fill="#FFB412" fill-opacity="0.45"/>
<path d="M160.255 91.2613L159.009 89.6958C168.128 82.4352 173.883 73.696 175.685 64.437C176.155 62.0113 176.367 59.5427 176.318 57.0721L178.326 57.0386C178.389 59.6415 178.168 62.2432 177.666 64.7977C175.78 74.4896 169.768 83.6529 160.255 91.2613Z" fill="#FFB412" fill-opacity="0.45"/>
</g>
<g style="mix-blend-mode:multiply">
<path d="M105.084 162.742C94.6948 160.719 85.5518 151.651 88.1593 138.255C88.6025 135.884 89.4273 133.6 90.6017 131.492L92.3602 132.483C91.2924 134.403 90.5414 136.482 90.136 138.64C87.7953 150.665 96.1876 158.963 105.468 160.769L105.084 162.742ZM126.022 155.56L124.436 154.328C126.29 151.887 127.538 149.042 128.078 146.026C128.931 142.151 128.508 138.103 126.872 134.484L128.712 133.644C130.519 137.639 130.991 142.106 130.06 146.387C129.465 149.722 128.081 152.867 126.022 155.56Z" fill="#FFB412" fill-opacity="0.45"/>
</g>
<g style="mix-blend-mode:multiply">
<path d="M55.9544 92.399L55.0866 92.2301L55.2505 91.3883C55.3378 89.7829 55.383 88.3939 55.4484 87.1586C55.6868 81.5639 55.7833 79.0118 58.1055 76.5934C60.3439 74.4576 62.9823 72.783 65.87 71.665C68.8431 70.5801 71.5281 68.8318 73.7203 66.5536C74.7205 65.5332 75.3842 64.232 75.6225 62.8241C75.8608 61.4163 75.6623 59.969 75.0536 58.676C73.4969 55.877 69.7991 54.3085 65.1256 54.7965C63.0065 55.033 60.9134 55.461 58.8721 56.0753C54.2611 57.3992 53.9047 56.531 50.6373 48.3819L49.4904 45.6626L49.1534 44.8232L49.936 44.4014C61.1653 38.1257 73.7097 37.9468 83.2832 43.9039C86.5396 45.7317 89.2421 48.4022 91.1054 51.6337C92.9687 54.8651 93.9238 58.5377 93.87 62.264C93.448 70.344 87.5166 77.5511 77.1809 82.5781C70.7933 85.7027 70.4859 88.4385 70.2707 90.4434C70.2924 90.966 70.199 91.4869 69.997 91.9694C69.795 92.4519 69.4894 92.8843 69.1016 93.236C67.5324 94.2285 64.4878 94.0601 55.9544 92.399ZM69.7627 52.9535C71.2133 53.1659 72.5963 53.7069 73.8055 54.535C75.0148 55.3632 76.0181 56.4565 76.7387 57.7311C77.5411 59.3799 77.8184 61.2339 77.5332 63.0438C77.248 64.8536 76.414 66.5323 75.1434 67.8541C72.7449 70.3564 69.8035 72.2771 66.5447 73.4687C63.8847 74.4672 61.4531 75.9885 59.3941 77.9425C57.6034 79.8154 57.5088 81.8437 57.2884 87.2173C57.2411 88.2315 57.1991 89.3465 57.1338 90.5818C61.9549 91.5203 66.8088 92.2905 67.734 91.5221C67.969 91.3431 68.0291 90.9056 68.0102 90.1032C68.2628 87.9059 68.647 84.2615 76.0529 80.6612C85.697 75.9739 91.2369 69.3644 91.6102 62.0488C91.6491 58.68 90.7737 55.3628 89.077 52.4486C87.3803 49.5345 84.9254 47.132 81.9726 45.4959C73.2977 40.0631 61.9277 40.1212 51.4502 45.6197L52.2461 47.5718C52.982 49.9285 54.0243 52.179 55.3464 54.2657C55.7677 54.6722 56.0951 54.6611 58.0568 54.0944C60.194 53.4819 62.3847 53.0726 64.5996 52.872C66.3147 52.6396 68.0553 52.6671 69.7627 52.9535Z" fill="#0087EB" fill-opacity="0.45"/>
</g>
<g style="mix-blend-mode:multiply">
<path d="M55.1539 96.5113L50.7185 95.6479L50.9967 91.1343L51.1953 87.0295C51.4597 80.9157 51.6175 77.2772 54.9927 73.6909C57.6013 71.1968 60.6856 69.2508 64.0627 67.9684C65.1339 67.478 66.1475 67.0263 67.0741 66.5078L68.0327 68.2669C67.0485 68.8242 65.982 69.2905 64.8867 69.7762C61.7066 70.9836 58.7996 72.8104 56.3348 75.1503C53.4671 78.1864 53.3345 81.1808 53.1263 87.006C53.0563 88.2654 52.9916 89.6256 52.909 91.207L52.7462 93.9709L55.4702 94.5011C63.9795 96.1576 67.9019 96.5717 70.233 94.8789C70.8671 94.3555 71.3783 93.6995 71.7303 92.9572C72.0823 92.2149 72.2666 91.4043 72.2701 90.5828C72.49 88.5539 73.0051 86.8071 77.9715 84.4291L79.7771 83.5076L80.731 85.2908L78.8725 86.227C74.5355 88.3281 74.4025 89.5252 74.2796 90.7993C74.2464 91.9013 73.9732 92.9828 73.4789 93.9684C72.9846 94.9541 72.281 95.8204 71.4171 96.5071C68.6021 98.6299 64.6033 98.3508 55.1539 96.5113Z" fill="#0087EB" fill-opacity="0.45"/>
<path d="M72.9102 63.7749L71.1135 62.851C71.2641 62.5733 71.3728 62.2748 71.436 61.9653C71.5084 61.5963 71.4881 61.215 71.3768 60.8555L73.2166 60.0156C73.2166 60.0156 73.2166 60.0156 73.1792 60.208C73.4083 60.8921 73.4555 61.6238 73.3163 62.3313C73.2506 62.8294 73.1138 63.3156 72.9102 63.7749Z" fill="#0087EB" fill-opacity="0.45"/>
<path d="M54.7614 60.7413C50.6152 59.9342 49.3651 56.8453 46.6397 50.0247L46.552 49.8329C46.2297 49.0463 45.8974 48.1829 45.5256 47.137L43.85 42.8921L47.8877 40.6578C55.8401 36.0302 65.1776 34.3559 74.2523 35.9306C75.8649 36.2459 77.4539 36.672 79.0079 37.2058L78.3347 39.1215C76.8933 38.612 75.4167 38.2077 73.9166 37.912C65.2573 36.3866 56.3392 37.9763 48.7498 42.3982L46.3062 43.7696L47.3326 46.4654L48.359 49.1613L48.4467 49.3531C51.2063 56.2552 52.1421 58.2595 55.083 58.832C56.5041 59.0017 57.945 58.8285 59.2845 58.3269C61.2066 57.7503 63.1773 57.3486 65.1724 57.1268C66.9313 56.8743 68.726 57.0607 70.3958 57.6694L69.6309 59.5423C68.2715 59.0573 66.8143 58.9107 65.3858 59.1153C63.504 59.3243 61.6457 59.7062 59.8346 60.2562C58.2101 60.8338 56.467 61.0005 54.7614 60.7413Z" fill="#0087EB" fill-opacity="0.45"/>
<path d="M92.9804 75.4447L91.3698 74.2076C93.5015 71.5381 94.9692 68.4025 95.653 65.0572C95.9362 63.5913 96.0507 62.0978 95.9941 60.6057L98.0115 60.5242C98.0689 62.1727 97.9409 63.8223 97.6296 65.442C96.8808 69.0922 95.2889 72.5172 92.9804 75.4447Z" fill="#0087EB" fill-opacity="0.45"/>
</g>
<g style="mix-blend-mode:multiply">
<path d="M54.7275 126.206C52.945 125.938 51.2351 125.312 49.7006 124.367C48.1662 123.422 46.8391 122.177 45.7991 120.707C44.7591 119.237 44.0278 117.573 43.6493 115.814C43.2707 114.055 43.2527 112.239 43.5963 110.473C43.94 108.708 44.6381 107.031 45.6488 105.543C46.6594 104.054 47.9617 102.786 49.4771 101.813C50.9925 100.841 52.6898 100.184 54.4666 99.8839C56.2435 99.5835 58.0632 99.645 59.8163 100.065C61.5782 100.347 63.2651 100.982 64.7754 101.931C66.2858 102.88 67.5885 104.124 68.6052 105.588C69.622 107.052 70.3318 108.706 70.6919 110.45C71.0521 112.194 71.0552 113.993 70.7011 115.737C70.3567 117.739 69.5404 119.63 68.3194 121.254C67.0985 122.878 65.5079 124.189 63.6788 125.078L62.8019 123.285C64.3668 122.545 65.7291 121.439 66.7728 120.06C67.8165 118.681 68.5109 117.071 68.7967 115.366C69.0935 113.881 69.0866 112.351 68.7763 110.868C68.4659 109.386 67.8587 107.98 66.9909 106.737C66.1232 105.493 65.0128 104.437 63.7264 103.632C62.44 102.827 61.004 102.289 59.5047 102.051C58.0138 101.688 56.465 101.631 54.9518 101.882C53.4386 102.134 51.9926 102.689 50.7012 103.515C49.4097 104.34 48.2997 105.419 47.4383 106.685C46.5769 107.951 45.9819 109.378 45.6894 110.881C45.3969 112.383 45.413 113.93 45.7366 115.427C46.0602 116.923 46.6846 118.339 47.5721 119.589C48.4596 120.839 49.5918 121.896 50.9001 122.697C52.2084 123.497 53.6656 124.025 55.1837 124.248L54.7275 126.206Z" fill="#0087EB" fill-opacity="0.45"/>
</g>
<g style="mix-blend-mode:multiply">
<path d="M55.5234 122.118C54.2896 121.943 53.1041 121.52 52.039 120.874C50.974 120.227 50.0517 119.372 49.3283 118.359C48.6049 117.346 48.0954 116.197 47.8311 114.981C47.5667 113.766 47.5528 112.51 47.7904 111.29C48.0279 110.07 48.5119 108.91 49.2128 107.883C49.9138 106.856 50.817 105.982 51.8676 105.314C52.9181 104.646 54.094 104.199 55.3237 104C56.5534 103.8 57.8112 103.852 59.0204 104.153C60.2543 104.328 61.4398 104.751 62.5048 105.397C63.5699 106.044 64.4921 106.899 65.2156 107.912C65.939 108.925 66.4484 110.074 66.7128 111.29C66.9772 112.505 66.991 113.761 66.7534 114.981C66.5159 116.202 66.0319 117.361 65.331 118.388C64.6301 119.415 63.7268 120.289 62.6763 120.957C61.6257 121.625 60.4498 122.072 59.2201 122.271C57.9904 122.471 56.7326 122.419 55.5234 122.118ZM58.6366 106.125C57.6901 105.883 56.7041 105.836 55.7392 105.988C54.7742 106.139 53.8507 106.486 53.0252 107.007C52.1997 107.527 51.4897 108.211 50.9388 109.015C50.3878 109.82 50.0076 110.728 49.8213 111.685C49.6351 112.642 49.6468 113.627 49.8557 114.579C50.0646 115.532 50.4663 116.432 51.0362 117.224C51.6061 118.016 52.3322 118.684 53.1698 119.187C54.0074 119.689 54.939 120.016 55.9073 120.146C56.8439 120.376 57.8179 120.412 58.7685 120.251C59.7192 120.089 60.6262 119.734 61.4329 119.207C62.2396 118.68 62.9288 117.993 63.4575 117.189C63.9862 116.384 64.3431 115.48 64.5059 114.531C64.7343 113.554 64.7432 112.538 64.5321 111.556C64.321 110.574 63.895 109.651 63.2847 108.852C62.0973 107.435 60.4548 106.471 58.6366 106.125Z" fill="#0087EB" fill-opacity="0.45"/>
</g>
</g>
<defs>
<clipPath id="clip0_168_3459">
<rect width="166.725" height="270.365" fill="white" transform="translate(52.0881 0.315674) rotate(11.0156)"/>
</clipPath>
</defs>
</svg>
