<svg width="135" height="41" viewBox="0 0 135 41" fill="none" xmlns="http://www.w3.org/2000/svg">
<g filter="url(#filter0_d_616_260)">
<rect x="6.68836" y="5.28113" width="119.623" height="25.6233" stroke="#2F8FFF" stroke-width="1.37672"/>
<g filter="url(#filter1_i_616_260)">
<circle cx="126.009" cy="5.5547" r="1.96192" fill="#2F8FFF"/>
</g>
<g filter="url(#filter2_i_616_260)">
<circle cx="126.009" cy="30.5248" r="1.96192" fill="#2F8FFF"/>
</g>
<g filter="url(#filter3_i_616_260)">
<circle cx="6.96193" cy="5.5547" r="1.96192" fill="#2F8FFF"/>
</g>
<g filter="url(#filter4_i_616_260)">
<circle cx="6.96193" cy="30.5245" r="1.96192" fill="#2F8FFF"/>
</g>
</g>
<path d="M31.7197 16.3282H29.9932C29.9439 16.0451 29.8532 15.7942 29.7208 15.5757C29.5885 15.3541 29.4238 15.1664 29.2268 15.0125C29.0299 14.8586 28.8052 14.7432 28.5528 14.6663C28.3036 14.5863 28.0343 14.5463 27.745 14.5463C27.231 14.5463 26.7755 14.6755 26.3785 14.934C25.9815 15.1895 25.6706 15.565 25.446 16.0605C25.2213 16.5529 25.109 17.1546 25.109 17.8655C25.109 18.5887 25.2213 19.1981 25.446 19.6936C25.6737 20.186 25.9845 20.5584 26.3785 20.8108C26.7755 21.0601 27.2295 21.1847 27.7403 21.1847C28.0235 21.1847 28.2882 21.1478 28.5344 21.074C28.7837 20.997 29.0068 20.8847 29.2038 20.7369C29.4038 20.5892 29.5715 20.4076 29.707 20.1922C29.8455 19.9768 29.9409 19.7306 29.9932 19.4536L31.7197 19.4628C31.6551 19.9121 31.5151 20.3338 31.2996 20.7277C31.0873 21.1217 30.8088 21.4694 30.4641 21.771C30.1194 22.0696 29.7162 22.3035 29.2545 22.4727C28.7929 22.6389 28.2805 22.722 27.7173 22.722C26.8863 22.722 26.1446 22.5297 25.4921 22.145C24.8397 21.7603 24.3257 21.2048 23.9502 20.4784C23.5747 19.7521 23.387 18.8811 23.387 17.8655C23.387 16.8468 23.5763 15.9758 23.9548 15.2526C24.3334 14.5262 24.8489 13.9707 25.5014 13.586C26.1538 13.2013 26.8925 13.009 27.7173 13.009C28.2435 13.009 28.7329 13.0828 29.1853 13.2306C29.6377 13.3783 30.0409 13.5953 30.3948 13.8815C30.7487 14.1646 31.0396 14.5124 31.2673 14.9248C31.4982 15.3341 31.649 15.8019 31.7197 16.3282ZM38.6074 22.7313C37.9149 22.7313 37.3148 22.5789 36.8069 22.2742C36.2991 21.9695 35.9052 21.5433 35.6251 20.9955C35.3481 20.4477 35.2096 19.8075 35.2096 19.075C35.2096 18.3425 35.3481 17.7008 35.6251 17.1499C35.9052 16.599 36.2991 16.1713 36.8069 15.8666C37.3148 15.5619 37.9149 15.4095 38.6074 15.4095C39.2998 15.4095 39.9 15.5619 40.4078 15.8666C40.9156 16.1713 41.308 16.599 41.585 17.1499C41.8651 17.7008 42.0051 18.3425 42.0051 19.075C42.0051 19.8075 41.8651 20.4477 41.585 20.9955C41.308 21.5433 40.9156 21.9695 40.4078 22.2742C39.9 22.5789 39.2998 22.7313 38.6074 22.7313ZM38.6166 21.3925C38.9921 21.3925 39.306 21.2894 39.5584 21.0832C39.8107 20.8739 39.9985 20.5938 40.1216 20.243C40.2478 19.8921 40.3109 19.5013 40.3109 19.0704C40.3109 18.6365 40.2478 18.2441 40.1216 17.8932C39.9985 17.5393 39.8107 17.2577 39.5584 17.0484C39.306 16.8391 38.9921 16.7345 38.6166 16.7345C38.2319 16.7345 37.9118 16.8391 37.6564 17.0484C37.404 17.2577 37.2147 17.5393 37.0886 17.8932C36.9654 18.2441 36.9039 18.6365 36.9039 19.0704C36.9039 19.5013 36.9654 19.8921 37.0886 20.243C37.2147 20.5938 37.404 20.8739 37.6564 21.0832C37.9118 21.2894 38.2319 21.3925 38.6166 21.3925ZM47.3947 18.4379V22.5928H45.7235V15.5019H47.3208V16.7068H47.4039C47.567 16.3097 47.8271 15.9943 48.1841 15.7604C48.5442 15.5265 48.9889 15.4095 49.5183 15.4095C50.0076 15.4095 50.4339 15.5142 50.797 15.7235C51.1633 15.9327 51.4464 16.2359 51.6465 16.6329C51.8496 17.0299 51.9496 17.5116 51.9465 18.0779V22.5928H50.2754V18.3364C50.2754 17.8624 50.1523 17.4916 49.906 17.2238C49.6629 16.9561 49.3259 16.8222 48.895 16.8222C48.6027 16.8222 48.3426 16.8868 48.1148 17.0161C47.8902 17.1423 47.7132 17.3254 47.584 17.5654C47.4578 17.8055 47.3947 18.0963 47.3947 18.4379ZM59.4862 15.5019V16.7945H55.4099V15.5019H59.4862ZM56.4163 13.803H58.0874V20.46C58.0874 20.6846 58.1213 20.857 58.189 20.977C58.2598 21.094 58.3521 21.174 58.466 21.2171C58.5799 21.2602 58.706 21.2817 58.8445 21.2817C58.9492 21.2817 59.0446 21.274 59.1308 21.2586C59.22 21.2432 59.2877 21.2294 59.3339 21.2171L59.6155 22.5235C59.5262 22.5543 59.3985 22.5882 59.2323 22.6251C59.0692 22.662 58.8692 22.6836 58.6322 22.6897C58.2136 22.702 57.8366 22.6389 57.5011 22.5004C57.1657 22.3589 56.8995 22.1404 56.7025 21.8449C56.5086 21.5494 56.4132 21.1801 56.4163 20.7369V13.803ZM65.2243 22.7359C64.775 22.7359 64.3703 22.6559 64.0102 22.4958C63.6532 22.3327 63.3701 22.0927 63.1608 21.7757C62.9546 21.4587 62.8515 21.0678 62.8515 20.6031C62.8515 20.203 62.9253 19.8721 63.0731 19.6105C63.2208 19.3489 63.4224 19.1396 63.6778 18.9827C63.9333 18.8257 64.221 18.7072 64.5411 18.6272C64.8643 18.5441 65.1982 18.4841 65.5429 18.4472C65.9584 18.4041 66.2954 18.3656 66.5539 18.3318C66.8124 18.2948 67.0002 18.2394 67.1171 18.1656C67.2371 18.0886 67.2971 17.9701 67.2971 17.8101V17.7824C67.2971 17.4346 67.194 17.1653 66.9878 16.9745C66.7816 16.7837 66.4846 16.6883 66.0969 16.6883C65.6875 16.6883 65.3628 16.7776 65.1228 16.9561C64.8858 17.1346 64.7258 17.3454 64.6427 17.5885L63.0823 17.3669C63.2054 16.936 63.4085 16.576 63.6917 16.2867C63.9748 15.9943 64.3211 15.7758 64.7304 15.6311C65.1397 15.4834 65.5921 15.4095 66.0876 15.4095C66.4292 15.4095 66.7693 15.4495 67.1079 15.5296C67.4464 15.6096 67.7557 15.7419 68.0358 15.9266C68.3158 16.1082 68.5405 16.3559 68.7098 16.6698C68.8821 16.9838 68.9683 17.3762 68.9683 17.847V22.5928H67.3618V21.6187H67.3064C67.2048 21.8157 67.0617 22.0003 66.877 22.1727C66.6955 22.3419 66.4662 22.4789 66.1892 22.5835C65.9153 22.6851 65.5937 22.7359 65.2243 22.7359ZM65.6583 21.5079C65.9938 21.5079 66.2846 21.4417 66.5308 21.3094C66.777 21.174 66.9663 20.9955 67.0986 20.7739C67.2341 20.5523 67.3018 20.3107 67.3018 20.0491V19.2135C67.2494 19.2566 67.1602 19.2966 67.034 19.3335C66.9109 19.3705 66.7724 19.4028 66.6185 19.4305C66.4646 19.4582 66.3123 19.4828 66.1615 19.5044C66.0107 19.5259 65.8799 19.5444 65.7691 19.5597C65.5198 19.5936 65.2967 19.649 65.0997 19.7259C64.9027 19.8029 64.7473 19.9106 64.6334 20.0491C64.5196 20.1845 64.4626 20.3599 64.4626 20.5754C64.4626 20.8831 64.575 21.1155 64.7996 21.2725C65.0243 21.4294 65.3105 21.5079 65.6583 21.5079ZM76.0417 22.7313C75.3339 22.7313 74.7261 22.5758 74.2182 22.265C73.7135 21.9542 73.3242 21.5248 73.0503 20.977C72.7794 20.4261 72.644 19.7921 72.644 19.075C72.644 18.3548 72.7825 17.7193 73.0595 17.1684C73.3365 16.6144 73.7274 16.1836 74.2321 15.8758C74.7399 15.565 75.34 15.4095 76.0325 15.4095C76.608 15.4095 77.1174 15.5157 77.5606 15.7281C78.0068 15.9374 78.3623 16.2343 78.627 16.6191C78.8917 17.0007 79.0425 17.4469 79.0794 17.9578H77.4821C77.4175 17.6162 77.2636 17.3315 77.0204 17.1038C76.7804 16.873 76.4588 16.7575 76.0556 16.7575C75.714 16.7575 75.4139 16.8499 75.1554 17.0345C74.8969 17.2161 74.6953 17.4777 74.5506 17.8193C74.4091 18.161 74.3383 18.5703 74.3383 19.0473C74.3383 19.5305 74.4091 19.946 74.5506 20.2938C74.6922 20.6385 74.8907 20.9047 75.1462 21.0924C75.4047 21.2771 75.7078 21.3694 76.0556 21.3694C76.3018 21.3694 76.5219 21.3232 76.7158 21.2309C76.9127 21.1355 77.0774 20.9985 77.2097 20.82C77.3421 20.6415 77.4328 20.4246 77.4821 20.1691H79.0794C79.0394 20.6708 78.8917 21.1155 78.6362 21.5033C78.3808 21.888 78.033 22.1896 77.5929 22.4081C77.1528 22.6235 76.6357 22.7313 76.0417 22.7313ZM86.2925 15.5019V16.7945H82.2161V15.5019H86.2925ZM83.2225 13.803H84.8937V20.46C84.8937 20.6846 84.9275 20.857 84.9952 20.977C85.066 21.094 85.1584 21.174 85.2722 21.2171C85.3861 21.2602 85.5123 21.2817 85.6508 21.2817C85.7554 21.2817 85.8508 21.274 85.937 21.2586C86.0263 21.2432 86.094 21.2294 86.1401 21.2171L86.4217 22.5235C86.3325 22.5543 86.2048 22.5882 86.0386 22.6251C85.8755 22.662 85.6754 22.6836 85.4384 22.6897C85.0199 22.702 84.6429 22.6389 84.3074 22.5004C83.9719 22.3589 83.7057 22.1404 83.5087 21.8449C83.3148 21.5494 83.2194 21.1801 83.2225 20.7369V13.803ZM100.034 19.6105V15.5019H101.705V22.5928H100.085V21.3325H100.011C99.8511 21.7295 99.588 22.0542 99.2218 22.3066C98.8586 22.5589 98.4108 22.6851 97.8784 22.6851C97.4136 22.6851 97.0028 22.582 96.6458 22.3758C96.2918 22.1665 96.0148 21.8634 95.8148 21.4664C95.6147 21.0663 95.5147 20.5831 95.5147 20.0168V15.5019H97.1859V19.7583C97.1859 20.2076 97.309 20.5646 97.5552 20.8293C97.8014 21.094 98.1246 21.2263 98.5247 21.2263C98.7709 21.2263 99.0094 21.1663 99.2402 21.0463C99.471 20.9262 99.6603 20.7477 99.808 20.5107C99.9589 20.2707 100.034 19.9706 100.034 19.6105ZM111.328 17.3762L109.805 17.5423C109.762 17.3885 109.686 17.2438 109.579 17.1084C109.474 16.973 109.332 16.8637 109.154 16.7806C108.975 16.6975 108.757 16.656 108.498 16.656C108.151 16.656 107.858 16.7314 107.621 16.8822C107.387 17.033 107.272 17.2284 107.275 17.4685C107.272 17.6747 107.347 17.8424 107.501 17.9717C107.658 18.1009 107.917 18.2071 108.277 18.2902L109.486 18.5487C110.157 18.6934 110.656 18.9227 110.982 19.2366C111.311 19.5505 111.478 19.9614 111.481 20.4692C111.478 20.9155 111.347 21.3094 111.088 21.651C110.833 21.9896 110.477 22.2542 110.022 22.445C109.566 22.6359 109.043 22.7313 108.452 22.7313C107.584 22.7313 106.886 22.5497 106.356 22.1865C105.827 21.8203 105.512 21.3109 105.41 20.6585L107.04 20.5015C107.113 20.8216 107.27 21.0632 107.51 21.2263C107.751 21.3894 108.063 21.471 108.448 21.471C108.845 21.471 109.163 21.3894 109.403 21.2263C109.646 21.0632 109.768 20.8616 109.768 20.6215C109.768 20.4184 109.689 20.2507 109.532 20.1183C109.379 19.986 109.139 19.8844 108.812 19.8137L107.603 19.5597C106.923 19.4182 106.419 19.1797 106.093 18.8442C105.767 18.5057 105.605 18.0779 105.608 17.5608C105.605 17.1238 105.724 16.7452 105.964 16.4252C106.207 16.102 106.544 15.8527 106.975 15.6773C107.409 15.4988 107.909 15.4095 108.475 15.4095C109.306 15.4095 109.96 15.5865 110.437 15.9404C110.917 16.2944 111.214 16.7729 111.328 17.3762Z" fill="#0056BB"/>
<defs>
<filter id="filter0_d_616_260" x="0.869835" y="0.83933" width="133.985" height="39.9077" filterUnits="userSpaceOnUse" color-interpolation-filters="sRGB">
<feFlood flood-opacity="0" result="BackgroundImageFix"/>
<feColorMatrix in="SourceAlpha" type="matrix" values="0 0 0 0 0 0 0 0 0 0 0 0 0 0 0 0 0 0 127 0" result="hardAlpha"/>
<feOffset dx="1.37672" dy="2.75344"/>
<feGaussianBlur stdDeviation="2.75344"/>
<feComposite in2="hardAlpha" operator="out"/>
<feColorMatrix type="matrix" values="0 0 0 0 0 0 0 0 0 0 0 0 0 0 0 0 0 0 0.25 0"/>
<feBlend mode="normal" in2="BackgroundImageFix" result="effect1_dropShadow_616_260"/>
<feBlend mode="normal" in="SourceGraphic" in2="effect1_dropShadow_616_260" result="shape"/>
</filter>
<filter id="filter1_i_616_260" x="124.047" y="2.21605" width="3.92383" height="5.30055" filterUnits="userSpaceOnUse" color-interpolation-filters="sRGB">
<feFlood flood-opacity="0" result="BackgroundImageFix"/>
<feBlend mode="normal" in="SourceGraphic" in2="BackgroundImageFix" result="shape"/>
<feColorMatrix in="SourceAlpha" type="matrix" values="0 0 0 0 0 0 0 0 0 0 0 0 0 0 0 0 0 0 127 0" result="hardAlpha"/>
<feMorphology radius="4.81853" operator="dilate" in="SourceAlpha" result="effect1_innerShadow_616_260"/>
<feOffset dy="-1.37672"/>
<feGaussianBlur stdDeviation="3.78598"/>
<feComposite in2="hardAlpha" operator="arithmetic" k2="-1" k3="1"/>
<feColorMatrix type="matrix" values="0 0 0 0 0 0 0 0 0 0 0 0 0 0 0 0 0 0 0.25 0"/>
<feBlend mode="normal" in2="shape" result="effect1_innerShadow_616_260"/>
</filter>
<filter id="filter2_i_616_260" x="124.047" y="27.1861" width="3.92383" height="5.30055" filterUnits="userSpaceOnUse" color-interpolation-filters="sRGB">
<feFlood flood-opacity="0" result="BackgroundImageFix"/>
<feBlend mode="normal" in="SourceGraphic" in2="BackgroundImageFix" result="shape"/>
<feColorMatrix in="SourceAlpha" type="matrix" values="0 0 0 0 0 0 0 0 0 0 0 0 0 0 0 0 0 0 127 0" result="hardAlpha"/>
<feMorphology radius="4.81853" operator="dilate" in="SourceAlpha" result="effect1_innerShadow_616_260"/>
<feOffset dy="-1.37672"/>
<feGaussianBlur stdDeviation="3.78598"/>
<feComposite in2="hardAlpha" operator="arithmetic" k2="-1" k3="1"/>
<feColorMatrix type="matrix" values="0 0 0 0 0 0 0 0 0 0 0 0 0 0 0 0 0 0 0.25 0"/>
<feBlend mode="normal" in2="shape" result="effect1_innerShadow_616_260"/>
</filter>
<filter id="filter3_i_616_260" x="5" y="2.21605" width="3.92383" height="5.30055" filterUnits="userSpaceOnUse" color-interpolation-filters="sRGB">
<feFlood flood-opacity="0" result="BackgroundImageFix"/>
<feBlend mode="normal" in="SourceGraphic" in2="BackgroundImageFix" result="shape"/>
<feColorMatrix in="SourceAlpha" type="matrix" values="0 0 0 0 0 0 0 0 0 0 0 0 0 0 0 0 0 0 127 0" result="hardAlpha"/>
<feMorphology radius="4.81853" operator="dilate" in="SourceAlpha" result="effect1_innerShadow_616_260"/>
<feOffset dy="-1.37672"/>
<feGaussianBlur stdDeviation="3.78598"/>
<feComposite in2="hardAlpha" operator="arithmetic" k2="-1" k3="1"/>
<feColorMatrix type="matrix" values="0 0 0 0 0 0 0 0 0 0 0 0 0 0 0 0 0 0 0.25 0"/>
<feBlend mode="normal" in2="shape" result="effect1_innerShadow_616_260"/>
</filter>
<filter id="filter4_i_616_260" x="5" y="27.1859" width="3.92383" height="5.30055" filterUnits="userSpaceOnUse" color-interpolation-filters="sRGB">
<feFlood flood-opacity="0" result="BackgroundImageFix"/>
<feBlend mode="normal" in="SourceGraphic" in2="BackgroundImageFix" result="shape"/>
<feColorMatrix in="SourceAlpha" type="matrix" values="0 0 0 0 0 0 0 0 0 0 0 0 0 0 0 0 0 0 127 0" result="hardAlpha"/>
<feMorphology radius="4.81853" operator="dilate" in="SourceAlpha" result="effect1_innerShadow_616_260"/>
<feOffset dy="-1.37672"/>
<feGaussianBlur stdDeviation="3.78598"/>
<feComposite in2="hardAlpha" operator="arithmetic" k2="-1" k3="1"/>
<feColorMatrix type="matrix" values="0 0 0 0 0 0 0 0 0 0 0 0 0 0 0 0 0 0 0.25 0"/>
<feBlend mode="normal" in2="shape" result="effect1_innerShadow_616_260"/>
</filter>
</defs>
</svg>
