<?xml version="1.0" encoding="utf-8"?>
<svg width="796" height="168" viewBox="0 0 796 168" fill="none" xmlns="http://www.w3.org/2000/svg">
  <path d="M 140.672 105.877 C 140.447 106.237 140.207 106.507 139.952 106.688 C 139.712 106.867 139.397 106.957 139.007 106.957 C 138.662 106.957 138.287 106.852 137.882 106.642 C 137.492 106.417 137.042 106.17 136.532 105.9 C 136.037 105.63 135.467 105.39 134.822 105.18 C 134.177 104.955 133.442 104.842 132.617 104.842 C 131.192 104.842 130.127 105.15 129.422 105.765 C 128.732 106.365 128.387 107.182 128.387 108.217 C 128.387 108.877 128.597 109.425 129.017 109.86 C 129.437 110.295 129.985 110.67 130.66 110.985 C 131.35 111.3 132.13 111.592 133 111.862 C 133.885 112.117 134.785 112.41 135.7 112.74 C 136.615 113.055 137.507 113.43 138.377 113.865 C 139.262 114.3 140.042 114.855 140.717 115.53 C 141.407 116.205 141.962 117.03 142.382 118.005 C 142.802 118.965 143.012 120.127 143.012 121.492 C 143.012 123.007 142.75 124.425 142.225 125.745 C 141.7 127.065 140.935 128.22 139.93 129.21 C 138.94 130.185 137.71 130.957 136.24 131.527 C 134.785 132.082 133.127 132.36 131.267 132.36 C 130.247 132.36 129.205 132.255 128.14 132.045 C 127.09 131.835 126.07 131.542 125.08 131.167 C 124.09 130.777 123.16 130.32 122.29 129.795 C 121.42 129.27 120.662 128.685 120.017 128.04 L 122.267 124.485 C 122.447 124.23 122.68 124.02 122.965 123.855 C 123.265 123.675 123.587 123.585 123.932 123.585 C 124.382 123.585 124.832 123.727 125.282 124.012 C 125.747 124.297 126.265 124.612 126.835 124.957 C 127.42 125.302 128.087 125.617 128.837 125.902 C 129.587 126.187 130.472 126.33 131.492 126.33 C 132.872 126.33 133.945 126.03 134.71 125.43 C 135.475 124.815 135.857 123.847 135.857 122.527 C 135.857 121.762 135.647 121.14 135.227 120.66 C 134.807 120.18 134.252 119.782 133.562 119.467 C 132.887 119.152 132.115 118.875 131.245 118.635 C 130.375 118.395 129.482 118.132 128.567 117.847 C 127.652 117.547 126.76 117.187 125.89 116.767 C 125.02 116.332 124.24 115.77 123.55 115.08 C 122.875 114.375 122.327 113.505 121.907 112.47 C 121.487 111.42 121.277 110.13 121.277 108.6 C 121.277 107.37 121.525 106.17 122.02 105 C 122.515 103.83 123.242 102.787 124.202 101.872 C 125.162 100.957 126.34 100.23 127.735 99.69 C 129.13 99.135 130.727 98.858 132.527 98.858 C 133.532 98.858 134.507 98.94 135.452 99.105 C 136.412 99.255 137.32 99.487 138.175 99.802 C 139.03 100.102 139.825 100.47 140.56 100.905 C 141.31 101.325 141.977 101.805 142.562 102.345 L 140.672 105.877 Z M 179.652 115.597 C 179.652 117.967 179.239 120.172 178.414 122.212 C 177.604 124.252 176.457 126.03 174.972 127.545 C 173.487 129.045 171.694 130.222 169.594 131.077 C 167.509 131.933 165.192 132.36 162.642 132.36 C 160.092 132.36 157.767 131.933 155.667 131.077 C 153.567 130.222 151.767 129.045 150.267 127.545 C 148.782 126.03 147.627 124.252 146.802 122.212 C 145.992 120.172 145.587 117.967 145.587 115.597 C 145.587 113.227 145.992 111.022 146.802 108.982 C 147.627 106.942 148.782 105.172 150.267 103.672 C 151.767 102.172 153.567 100.995 155.667 100.14 C 157.767 99.285 160.092 98.858 162.642 98.858 C 165.192 98.858 167.509 99.292 169.594 100.162 C 171.694 101.017 173.487 102.195 174.972 103.695 C 176.457 105.195 177.604 106.965 178.414 109.005 C 179.239 111.045 179.652 113.242 179.652 115.597 Z M 171.867 115.597 C 171.867 113.977 171.657 112.522 171.237 111.232 C 170.817 109.927 170.209 108.825 169.414 107.925 C 168.634 107.025 167.674 106.335 166.534 105.855 C 165.394 105.375 164.097 105.135 162.642 105.135 C 161.172 105.135 159.859 105.375 158.704 105.855 C 157.564 106.335 156.597 107.025 155.802 107.925 C 155.022 108.825 154.422 109.927 154.002 111.232 C 153.582 112.522 153.372 113.977 153.372 115.597 C 153.372 117.232 153.582 118.702 154.002 120.007 C 154.422 121.297 155.022 122.392 155.802 123.292 C 156.597 124.192 157.564 124.882 158.704 125.362 C 159.859 125.827 161.172 126.06 162.642 126.06 C 164.097 126.06 165.394 125.827 166.534 125.362 C 167.674 124.882 168.634 124.192 169.414 123.292 C 170.209 122.392 170.817 121.297 171.237 120.007 C 171.657 118.702 171.867 117.232 171.867 115.597 Z M 206.222 123.517 C 206.402 123.517 206.582 123.555 206.762 123.63 C 206.942 123.69 207.115 123.802 207.28 123.967 L 210.295 127.14 C 208.975 128.865 207.317 130.17 205.322 131.055 C 203.342 131.925 200.995 132.36 198.28 132.36 C 195.79 132.36 193.555 131.94 191.575 131.1 C 189.61 130.245 187.937 129.075 186.557 127.59 C 185.192 126.09 184.142 124.32 183.407 122.28 C 182.672 120.225 182.305 117.997 182.305 115.597 C 182.305 113.152 182.702 110.91 183.497 108.87 C 184.292 106.815 185.41 105.045 186.85 103.56 C 188.29 102.075 190.015 100.92 192.025 100.095 C 194.035 99.27 196.247 98.858 198.662 98.858 C 199.892 98.858 201.047 98.97 202.127 99.195 C 203.222 99.405 204.242 99.705 205.187 100.095 C 206.132 100.47 207.002 100.927 207.797 101.467 C 208.592 102.007 209.297 102.592 209.912 103.222 L 207.347 106.665 C 207.182 106.875 206.987 107.07 206.762 107.25 C 206.537 107.415 206.222 107.497 205.817 107.497 C 205.547 107.497 205.292 107.437 205.052 107.317 C 204.812 107.197 204.557 107.055 204.287 106.89 C 204.017 106.71 203.717 106.522 203.387 106.327 C 203.072 106.117 202.69 105.93 202.24 105.765 C 201.805 105.585 201.287 105.435 200.687 105.315 C 200.102 105.195 199.412 105.135 198.617 105.135 C 197.357 105.135 196.202 105.367 195.152 105.832 C 194.117 106.297 193.217 106.98 192.452 107.88 C 191.702 108.765 191.117 109.86 190.697 111.165 C 190.292 112.455 190.09 113.932 190.09 115.597 C 190.09 117.277 190.315 118.77 190.765 120.075 C 191.23 121.38 191.852 122.482 192.632 123.382 C 193.427 124.267 194.35 124.942 195.4 125.407 C 196.45 125.872 197.575 126.105 198.775 126.105 C 199.465 126.105 200.095 126.075 200.665 126.015 C 201.235 125.94 201.767 125.827 202.262 125.677 C 202.757 125.512 203.222 125.302 203.657 125.047 C 204.092 124.777 204.535 124.44 204.985 124.035 C 205.165 123.885 205.36 123.765 205.57 123.675 C 205.78 123.57 205.997 123.517 206.222 123.517 Z M 221.264 132 L 213.614 132 L 213.614 99.217 L 221.264 99.217 L 221.264 132 Z M 244.914 119.467 L 241.877 110.49 C 241.652 109.92 241.412 109.252 241.157 108.487 C 240.902 107.707 240.647 106.867 240.392 105.967 C 240.167 106.882 239.927 107.73 239.672 108.51 C 239.417 109.29 239.177 109.965 238.952 110.535 L 235.937 119.467 L 244.914 119.467 Z M 256.997 132 L 251.102 132 C 250.442 132 249.909 131.85 249.504 131.55 C 249.099 131.235 248.792 130.837 248.582 130.357 L 246.647 124.642 L 234.182 124.642 L 232.247 130.357 C 232.082 130.777 231.782 131.16 231.347 131.505 C 230.927 131.835 230.402 132 229.772 132 L 223.832 132 L 236.522 99.217 L 244.307 99.217 L 256.997 132 Z M 279.336 125.925 L 279.336 132 L 259.581 132 L 259.581 99.217 L 267.186 99.217 L 267.186 125.925 L 279.336 125.925 Z M 329.132 99.217 L 329.132 132 L 322.427 132 L 322.427 113.145 C 322.427 112.71 322.434 112.237 322.449 111.727 C 322.479 111.217 322.524 110.7 322.584 110.175 L 313.877 127.027 C 313.607 127.552 313.239 127.95 312.774 128.22 C 312.324 128.49 311.807 128.625 311.222 128.625 L 310.187 128.625 C 309.602 128.625 309.077 128.49 308.612 128.22 C 308.162 127.95 307.802 127.552 307.532 127.027 L 298.824 110.13 C 298.869 110.67 298.907 111.202 298.937 111.727 C 298.967 112.237 298.982 112.71 298.982 113.145 L 298.982 132 L 292.277 132 L 292.277 99.217 L 298.082 99.217 C 298.412 99.217 298.697 99.225 298.937 99.24 C 299.192 99.255 299.417 99.3 299.612 99.375 C 299.807 99.45 299.979 99.57 300.129 99.735 C 300.294 99.885 300.452 100.102 300.602 100.387 L 309.039 117.015 C 309.339 117.585 309.624 118.177 309.894 118.792 C 310.179 119.407 310.449 120.037 310.704 120.682 C 310.959 120.022 311.222 119.377 311.492 118.747 C 311.777 118.117 312.077 117.517 312.392 116.947 L 320.807 100.387 C 320.957 100.102 321.107 99.885 321.257 99.735 C 321.422 99.57 321.602 99.45 321.797 99.375 C 321.992 99.3 322.209 99.255 322.449 99.24 C 322.704 99.225 322.997 99.217 323.327 99.217 L 329.132 99.217 Z M 343.125 105.067 L 343.125 112.717 L 353.43 112.717 L 353.43 118.342 L 343.125 118.342 L 343.125 126.15 L 356.58 126.15 L 356.58 132 L 335.475 132 L 335.475 99.217 L 356.58 99.217 L 356.58 105.067 L 343.125 105.067 Z M 391.016 115.597 C 391.016 117.967 390.603 120.157 389.778 122.167 C 388.968 124.162 387.821 125.895 386.336 127.365 C 384.851 128.82 383.058 129.96 380.958 130.785 C 378.873 131.595 376.556 132 374.006 132 L 361.271 132 L 361.271 99.217 L 374.006 99.217 C 376.556 99.217 378.873 99.63 380.958 100.455 C 383.058 101.28 384.851 102.42 386.336 103.875 C 387.821 105.33 388.968 107.062 389.778 109.072 C 390.603 111.067 391.016 113.242 391.016 115.597 Z M 383.231 115.597 C 383.231 113.977 383.021 112.515 382.601 111.21 C 382.181 109.905 381.573 108.802 380.778 107.902 C 379.998 106.987 379.038 106.29 377.898 105.81 C 376.758 105.315 375.461 105.067 374.006 105.067 L 368.921 105.067 L 368.921 126.15 L 374.006 126.15 C 375.461 126.15 376.758 125.91 377.898 125.43 C 379.038 124.935 379.998 124.237 380.778 123.337 C 381.573 122.422 382.181 121.312 382.601 120.007 C 383.021 118.702 383.231 117.232 383.231 115.597 Z M 403.154 132 L 395.504 132 L 395.504 99.217 L 403.154 99.217 L 403.154 132 Z M 426.804 119.467 L 423.766 110.49 C 423.541 109.92 423.301 109.252 423.046 108.487 C 422.791 107.707 422.536 106.867 422.281 105.967 C 422.056 106.882 421.816 107.73 421.561 108.51 C 421.306 109.29 421.066 109.965 420.841 110.535 L 417.826 119.467 L 426.804 119.467 Z M 438.886 132 L 432.991 132 C 432.331 132 431.799 131.85 431.394 131.55 C 430.989 131.235 430.681 130.837 430.471 130.357 L 428.536 124.642 L 416.071 124.642 L 414.136 130.357 C 413.971 130.777 413.671 131.16 413.236 131.505 C 412.816 131.835 412.291 132 411.661 132 L 405.721 132 L 418.411 99.217 L 426.196 99.217 L 438.886 132 Z" fill="#0171CF"/>
  <g filter="url(#filter0_d_401_16)" transform="matrix(1, 0, 0, 1, 2, -1)">
    <rect x="95.0728" y="81" width="359.818" height="70" stroke="#2F8FFF" stroke-width="2"/>
    <g filter="url(#filter1_i_401_16)">
      <ellipse cx="453.307" cy="80.5" rx="5.68571" ry="5.5" fill="#2F8FFF"/>
    </g>
    <g filter="url(#filter2_i_401_16)">
      <ellipse cx="95.6235" cy="80.5" rx="5.68571" ry="5.5" fill="#2F8FFF"/>
    </g>
    <g filter="url(#filter3_i_401_16)">
      <ellipse cx="453.307" cy="150.5" rx="5.68571" ry="5.5" fill="#2F8FFF"/>
    </g>
    <g filter="url(#filter4_i_401_16)">
      <ellipse cx="95.6235" cy="150.5" rx="5.68571" ry="5.5" fill="#2F8FFF"/>
    </g>
  </g>
  <defs>
    <filter id="filter0_d_401_16" x="83.9377" y="71" width="385.054" height="97" filterUnits="userSpaceOnUse" color-interpolation-filters="sRGB">
      <feFlood flood-opacity="0" result="BackgroundImageFix"/>
      <feColorMatrix in="SourceAlpha" type="matrix" values="0 0 0 0 0 0 0 0 0 0 0 0 0 0 0 0 0 0 127 0" result="hardAlpha"/>
      <feOffset dx="2" dy="4"/>
      <feGaussianBlur stdDeviation="4"/>
      <feComposite in2="hardAlpha" operator="out"/>
      <feColorMatrix type="matrix" values="0 0 0 0 0 0 0 0 0 0 0 0 0 0 0 0 0 0 0.25 0"/>
      <feBlend mode="normal" in2="BackgroundImageFix" result="effect1_dropShadow_401_16"/>
      <feBlend mode="normal" in="SourceGraphic" in2="effect1_dropShadow_401_16" result="shape"/>
    </filter>
    <filter id="filter1_i_401_16" x="447.621" y="73" width="11.3713" height="13" filterUnits="userSpaceOnUse" color-interpolation-filters="sRGB">
      <feFlood flood-opacity="0" result="BackgroundImageFix"/>
      <feBlend mode="normal" in="SourceGraphic" in2="BackgroundImageFix" result="shape"/>
      <feColorMatrix in="SourceAlpha" type="matrix" values="0 0 0 0 0 0 0 0 0 0 0 0 0 0 0 0 0 0 127 0" result="hardAlpha"/>
      <feMorphology radius="7" operator="dilate" in="SourceAlpha" result="effect1_innerShadow_401_16"/>
      <feOffset dy="-2"/>
      <feGaussianBlur stdDeviation="5.5"/>
      <feComposite in2="hardAlpha" operator="arithmetic" k2="-1" k3="1"/>
      <feColorMatrix type="matrix" values="0 0 0 0 0 0 0 0 0 0 0 0 0 0 0 0 0 0 0.25 0"/>
      <feBlend mode="normal" in2="shape" result="effect1_innerShadow_401_16"/>
    </filter>
    <filter id="filter2_i_401_16" x="89.9377" y="73" width="11.3713" height="13" filterUnits="userSpaceOnUse" color-interpolation-filters="sRGB">
      <feFlood flood-opacity="0" result="BackgroundImageFix"/>
      <feBlend mode="normal" in="SourceGraphic" in2="BackgroundImageFix" result="shape"/>
      <feColorMatrix in="SourceAlpha" type="matrix" values="0 0 0 0 0 0 0 0 0 0 0 0 0 0 0 0 0 0 127 0" result="hardAlpha"/>
      <feMorphology radius="7" operator="dilate" in="SourceAlpha" result="effect1_innerShadow_401_16"/>
      <feOffset dy="-2"/>
      <feGaussianBlur stdDeviation="5.5"/>
      <feComposite in2="hardAlpha" operator="arithmetic" k2="-1" k3="1"/>
      <feColorMatrix type="matrix" values="0 0 0 0 0 0 0 0 0 0 0 0 0 0 0 0 0 0 0.25 0"/>
      <feBlend mode="normal" in2="shape" result="effect1_innerShadow_401_16"/>
    </filter>
    <filter id="filter3_i_401_16" x="447.621" y="143" width="11.3713" height="13" filterUnits="userSpaceOnUse" color-interpolation-filters="sRGB">
      <feFlood flood-opacity="0" result="BackgroundImageFix"/>
      <feBlend mode="normal" in="SourceGraphic" in2="BackgroundImageFix" result="shape"/>
      <feColorMatrix in="SourceAlpha" type="matrix" values="0 0 0 0 0 0 0 0 0 0 0 0 0 0 0 0 0 0 127 0" result="hardAlpha"/>
      <feMorphology radius="7" operator="dilate" in="SourceAlpha" result="effect1_innerShadow_401_16"/>
      <feOffset dy="-2"/>
      <feGaussianBlur stdDeviation="5.5"/>
      <feComposite in2="hardAlpha" operator="arithmetic" k2="-1" k3="1"/>
      <feColorMatrix type="matrix" values="0 0 0 0 0 0 0 0 0 0 0 0 0 0 0 0 0 0 0.25 0"/>
      <feBlend mode="normal" in2="shape" result="effect1_innerShadow_401_16"/>
    </filter>
    <filter id="filter4_i_401_16" x="89.9377" y="143" width="11.3713" height="13" filterUnits="userSpaceOnUse" color-interpolation-filters="sRGB">
      <feFlood flood-opacity="0" result="BackgroundImageFix"/>
      <feBlend mode="normal" in="SourceGraphic" in2="BackgroundImageFix" result="shape"/>
      <feColorMatrix in="SourceAlpha" type="matrix" values="0 0 0 0 0 0 0 0 0 0 0 0 0 0 0 0 0 0 127 0" result="hardAlpha"/>
      <feMorphology radius="7" operator="dilate" in="SourceAlpha" result="effect1_innerShadow_401_16"/>
      <feOffset dy="-2"/>
      <feGaussianBlur stdDeviation="5.5"/>
      <feComposite in2="hardAlpha" operator="arithmetic" k2="-1" k3="1"/>
      <feColorMatrix type="matrix" values="0 0 0 0 0 0 0 0 0 0 0 0 0 0 0 0 0 0 0.25 0"/>
      <feBlend mode="normal" in2="shape" result="effect1_innerShadow_401_16"/>
    </filter>
  </defs>
  <text style="fill: rgb(0, 0, 0); font-family: Arial, sans-serif; font-size: 37px; font-weight: 700; white-space: pre;" transform="matrix(1.110262, 0, 0, 1.184665, -11.292452, -11.449543)"><tspan x="94.713" y="52.457">PROMOTE YOUR  BRAND WITH</tspan><tspan x="94.71299743652344" dy="1.2em">​</tspan><tspan x="94.71299743652344" dy="1.2em">​</tspan></text>
  <text style="fill: rgb(0, 0, 0); font-family: Arial, sans-serif; font-size: 39px; font-weight: 700; white-space: pre;" x="481.795" y="130.523" transform="matrix(1.039275, 0, 0, 1.2, -26.457577, -23.670208)">MARKETING</text>
</svg>