<svg width="176" height="93" viewBox="0 0 176 93" fill="none" xmlns="http://www.w3.org/2000/svg">
<path d="M13.0452 45.6868V48.0408H5.99423V52.7488H11.9452V55.1138H5.99423V61.5928H3.01323V45.6868H13.0452ZM14.5467 61.5928V50.3068H16.1417C16.4204 50.3068 16.6147 50.3581 16.7247 50.4608C16.8347 50.5634 16.9081 50.7394 16.9447 50.9888L17.1097 52.3528C17.5131 51.6561 17.9861 51.1061 18.5287 50.7028C19.0714 50.2994 19.6801 50.0978 20.3547 50.0978C20.9121 50.0978 21.3741 50.2261 21.7407 50.4828L21.3887 52.5178C21.3667 52.6498 21.3191 52.7451 21.2457 52.8038C21.1724 52.8551 21.0734 52.8808 20.9487 52.8808C20.8387 52.8808 20.6884 52.8551 20.4977 52.8038C20.3071 52.7524 20.0541 52.7268 19.7387 52.7268C19.1741 52.7268 18.6901 52.8844 18.2867 53.1998C17.8834 53.5078 17.5424 53.9624 17.2637 54.5638V61.5928H14.5467ZM28.1912 50.1308C28.9025 50.1308 29.5552 50.2444 30.1492 50.4718C30.7505 50.6991 31.2675 51.0328 31.7002 51.4728C32.1329 51.9054 32.4702 52.4408 32.7122 53.0788C32.9542 53.7094 33.0752 54.4318 33.0752 55.2458C33.0752 55.4511 33.0642 55.6234 33.0422 55.7628C33.0275 55.8948 32.9945 56.0011 32.9432 56.0818C32.8992 56.1551 32.8369 56.2101 32.7562 56.2468C32.6755 56.2761 32.5729 56.2908 32.4482 56.2908H25.4742C25.5549 57.4494 25.8665 58.3001 26.4092 58.8428C26.9519 59.3854 27.6705 59.6568 28.5652 59.6568C29.0052 59.6568 29.3829 59.6054 29.6982 59.5028C30.0209 59.4001 30.2995 59.2864 30.5342 59.1618C30.7762 59.0371 30.9852 58.9234 31.1612 58.8208C31.3445 58.7181 31.5205 58.6668 31.6892 58.6668C31.7992 58.6668 31.8945 58.6888 31.9752 58.7328C32.0559 58.7768 32.1255 58.8391 32.1842 58.9198L32.9762 59.9098C32.6755 60.2618 32.3382 60.5588 31.9642 60.8008C31.5902 61.0354 31.1979 61.2261 30.7872 61.3728C30.3839 61.5121 29.9695 61.6111 29.5442 61.6698C29.1262 61.7284 28.7192 61.7578 28.3232 61.7578C27.5385 61.7578 26.8089 61.6294 26.1342 61.3728C25.4595 61.1088 24.8729 60.7238 24.3742 60.2178C23.8755 59.7044 23.4832 59.0738 23.1972 58.3258C22.9112 57.5704 22.7682 56.6978 22.7682 55.7078C22.7682 54.9378 22.8929 54.2154 23.1422 53.5408C23.3915 52.8588 23.7472 52.2684 24.2092 51.7698C24.6785 51.2638 25.2469 50.8641 25.9142 50.5708C26.5889 50.2774 27.3479 50.1308 28.1912 50.1308ZM28.2462 52.0778C27.4542 52.0778 26.8345 52.3014 26.3872 52.7488C25.9399 53.1961 25.6539 53.8304 25.5292 54.6518H30.6332C30.6332 54.2998 30.5855 53.9698 30.4902 53.6618C30.3949 53.3464 30.2482 53.0714 30.0502 52.8368C29.8522 52.6021 29.6029 52.4188 29.3022 52.2868C29.0015 52.1474 28.6495 52.0778 28.2462 52.0778ZM44.8821 50.3068V65.2778H42.1651V60.1738C41.9378 60.4158 41.6958 60.6358 41.4391 60.8338C41.1898 61.0244 40.9221 61.1894 40.6361 61.3288C40.3501 61.4608 40.0458 61.5634 39.7231 61.6368C39.4005 61.7174 39.0521 61.7578 38.6781 61.7578C38.0621 61.7578 37.4975 61.6294 36.9841 61.3728C36.4708 61.1161 36.0271 60.7458 35.6531 60.2618C35.2865 59.7704 35.0005 59.1654 34.7951 58.4468C34.5971 57.7281 34.4981 56.9068 34.4981 55.9828C34.4981 55.1468 34.6118 54.3694 34.8391 53.6508C35.0665 52.9321 35.3928 52.3088 35.8181 51.7808C36.2435 51.2528 36.7531 50.8421 37.3471 50.5488C37.9411 50.2481 38.6085 50.0978 39.3491 50.0978C39.7011 50.0978 40.0201 50.1308 40.3061 50.1968C40.5995 50.2554 40.8671 50.3434 41.1091 50.4608C41.3585 50.5781 41.5858 50.7174 41.7911 50.8788C41.9965 51.0401 42.1945 51.2234 42.3851 51.4288L42.5281 50.8018C42.5648 50.6331 42.6455 50.5084 42.7701 50.4278C42.8948 50.3471 43.0451 50.3068 43.2211 50.3068H44.8821ZM39.6021 59.6018C40.1668 59.6018 40.6471 59.4844 41.0431 59.2498C41.4391 59.0151 41.8131 58.6814 42.1651 58.2488V53.1888C41.8571 52.8148 41.5198 52.5508 41.1531 52.3968C40.7938 52.2428 40.4051 52.1658 39.9871 52.1658C39.5765 52.1658 39.2025 52.2428 38.8651 52.3968C38.5351 52.5508 38.2528 52.7854 38.0181 53.1008C37.7908 53.4088 37.6148 53.8048 37.4901 54.2888C37.3655 54.7654 37.3031 55.3301 37.3031 55.9828C37.3031 56.6428 37.3545 57.2038 37.4571 57.6658C37.5671 58.1204 37.7211 58.4944 37.9191 58.7878C38.1171 59.0738 38.3591 59.2828 38.6451 59.4148C38.9311 59.5394 39.2501 59.6018 39.6021 59.6018ZM50.312 50.3068V57.4788C50.312 58.1681 50.4697 58.7034 50.785 59.0848C51.1077 59.4588 51.588 59.6458 52.226 59.6458C52.6954 59.6458 53.1354 59.5431 53.546 59.3378C53.9567 59.1251 54.3454 58.8354 54.712 58.4688V50.3068H57.429V61.5928H55.768C55.416 61.5928 55.185 61.4278 55.075 61.0978L54.888 60.1958C54.6534 60.4304 54.4114 60.6468 54.162 60.8448C53.9127 61.0354 53.645 61.2004 53.359 61.3398C53.0804 61.4718 52.776 61.5744 52.446 61.6478C52.1234 61.7284 51.775 61.7688 51.401 61.7688C50.785 61.7688 50.2387 61.6661 49.762 61.4608C49.2927 61.2481 48.8967 60.9511 48.574 60.5698C48.2514 60.1884 48.0057 59.7374 47.837 59.2168C47.6757 58.6888 47.595 58.1094 47.595 57.4788V50.3068H50.312ZM64.9939 50.1308C65.7053 50.1308 66.3579 50.2444 66.9519 50.4718C67.5533 50.6991 68.0703 51.0328 68.5029 51.4728C68.9356 51.9054 69.2729 52.4408 69.5149 53.0788C69.7569 53.7094 69.8779 54.4318 69.8779 55.2458C69.8779 55.4511 69.8669 55.6234 69.8449 55.7628C69.8303 55.8948 69.7973 56.0011 69.7459 56.0818C69.7019 56.1551 69.6396 56.2101 69.5589 56.2468C69.4783 56.2761 69.3756 56.2908 69.2509 56.2908H62.2769C62.3576 57.4494 62.6693 58.3001 63.2119 58.8428C63.7546 59.3854 64.4733 59.6568 65.3679 59.6568C65.8079 59.6568 66.1856 59.6054 66.5009 59.5028C66.8236 59.4001 67.1023 59.2864 67.3369 59.1618C67.5789 59.0371 67.7879 58.9234 67.9639 58.8208C68.1473 58.7181 68.3233 58.6668 68.4919 58.6668C68.6019 58.6668 68.6973 58.6888 68.7779 58.7328C68.8586 58.7768 68.9283 58.8391 68.9869 58.9198L69.7789 59.9098C69.4783 60.2618 69.1409 60.5588 68.7669 60.8008C68.3929 61.0354 68.0006 61.2261 67.5899 61.3728C67.1866 61.5121 66.7723 61.6111 66.3469 61.6698C65.9289 61.7284 65.5219 61.7578 65.1259 61.7578C64.3413 61.7578 63.6116 61.6294 62.9369 61.3728C62.2623 61.1088 61.6756 60.7238 61.1769 60.2178C60.6783 59.7044 60.2859 59.0738 59.9999 58.3258C59.7139 57.5704 59.5709 56.6978 59.5709 55.7078C59.5709 54.9378 59.6956 54.2154 59.9449 53.5408C60.1943 52.8588 60.5499 52.2684 61.0119 51.7698C61.4813 51.2638 62.0496 50.8641 62.7169 50.5708C63.3916 50.2774 64.1506 50.1308 64.9939 50.1308ZM65.0489 52.0778C64.2569 52.0778 63.6373 52.3014 63.1899 52.7488C62.7426 53.1961 62.4566 53.8304 62.3319 54.6518H67.4359C67.4359 54.2998 67.3883 53.9698 67.2929 53.6618C67.1976 53.3464 67.0509 53.0714 66.8529 52.8368C66.6549 52.6021 66.4056 52.4188 66.1049 52.2868C65.8043 52.1474 65.4523 52.0778 65.0489 52.0778ZM72.0819 61.5928V50.3068H73.7429C74.0949 50.3068 74.3259 50.4718 74.4359 50.8018L74.6229 51.6928C74.8502 51.4581 75.0885 51.2454 75.3379 51.0548C75.5945 50.8641 75.8622 50.6991 76.1409 50.5598C76.4269 50.4204 76.7312 50.3141 77.0539 50.2408C77.3765 50.1674 77.7285 50.1308 78.1099 50.1308C78.7259 50.1308 79.2722 50.2371 79.7489 50.4498C80.2256 50.6551 80.6216 50.9484 80.9369 51.3298C81.2596 51.7038 81.5016 52.1548 81.6629 52.6828C81.8315 53.2034 81.9159 53.7791 81.9159 54.4098V61.5928H79.1989V54.4098C79.1989 53.7204 79.0375 53.1888 78.7149 52.8148C78.3995 52.4334 77.9229 52.2428 77.2849 52.2428C76.8155 52.2428 76.3755 52.3491 75.9649 52.5618C75.5542 52.7744 75.1655 53.0641 74.7989 53.4308V61.5928H72.0819ZM88.2928 61.7688C87.3175 61.7688 86.5658 61.4938 86.0378 60.9438C85.5098 60.3864 85.2458 59.6201 85.2458 58.6448V52.3418H84.1018C83.9551 52.3418 83.8268 52.2941 83.7168 52.1988C83.6141 52.1034 83.5628 51.9604 83.5628 51.7698V50.6918L85.3778 50.3948L85.9498 47.3148C85.9791 47.1681 86.0451 47.0544 86.1478 46.9738C86.2578 46.8931 86.3935 46.8528 86.5548 46.8528H87.9628V50.4058H90.9328V52.3418H87.9628V58.4578C87.9628 58.8098 88.0508 59.0848 88.2268 59.2828C88.4028 59.4808 88.6375 59.5798 88.9308 59.5798C89.0995 59.5798 89.2388 59.5614 89.3488 59.5248C89.4661 59.4808 89.5651 59.4368 89.6458 59.3928C89.7338 59.3488 89.8108 59.3084 89.8768 59.2718C89.9428 59.2278 90.0088 59.2058 90.0748 59.2058C90.1555 59.2058 90.2215 59.2278 90.2728 59.2718C90.3241 59.3084 90.3791 59.3671 90.4378 59.4478L91.2518 60.7678C90.8558 61.0978 90.4011 61.3471 89.8878 61.5158C89.3745 61.6844 88.8428 61.7688 88.2928 61.7688ZM95.9866 45.2468V61.5928H93.2696V45.2468H95.9866ZM103.07 64.6948C102.99 64.8854 102.883 65.0284 102.751 65.1238C102.627 65.2264 102.432 65.2778 102.168 65.2778H100.144L102.256 60.7568L97.6913 50.3068H100.067C100.287 50.3068 100.456 50.3581 100.573 50.4608C100.691 50.5634 100.779 50.6808 100.837 50.8128L103.246 56.6648C103.327 56.8554 103.397 57.0534 103.455 57.2588C103.514 57.4641 103.565 57.6694 103.609 57.8748C103.668 57.6621 103.73 57.4568 103.796 57.2588C103.87 57.0608 103.947 56.8591 104.027 56.6538L106.293 50.8128C106.352 50.6661 106.447 50.5451 106.579 50.4498C106.719 50.3544 106.873 50.3068 107.041 50.3068H109.219L103.07 64.6948ZM129.186 61.5928H126.898C126.641 61.5928 126.428 61.5304 126.26 61.4058C126.098 61.2738 125.981 61.1124 125.908 60.9218L124.72 57.6768H118.131L116.943 60.9218C116.884 61.0904 116.767 61.2444 116.591 61.3838C116.422 61.5231 116.213 61.5928 115.964 61.5928H113.665L119.913 45.6868H122.938L129.186 61.5928ZM118.89 55.5868H123.961L122.025 50.2958C121.937 50.0611 121.838 49.7861 121.728 49.4708C121.625 49.1481 121.522 48.7998 121.42 48.4258C121.317 48.7998 121.214 49.1481 121.112 49.4708C121.016 49.7934 120.921 50.0758 120.826 50.3178L118.89 55.5868ZM137.369 52.5068C137.295 52.6241 137.218 52.7084 137.138 52.7598C137.057 52.8038 136.954 52.8258 136.83 52.8258C136.698 52.8258 136.555 52.7891 136.401 52.7158C136.254 52.6424 136.082 52.5618 135.884 52.4738C135.686 52.3784 135.458 52.2941 135.202 52.2208C134.952 52.1474 134.655 52.1108 134.311 52.1108C133.775 52.1108 133.354 52.2244 133.046 52.4518C132.738 52.6791 132.584 52.9761 132.584 53.3428C132.584 53.5848 132.661 53.7901 132.815 53.9588C132.976 54.1201 133.185 54.2631 133.442 54.3878C133.706 54.5124 134.003 54.6261 134.333 54.7288C134.663 54.8241 135 54.9304 135.345 55.0478C135.689 55.1651 136.027 55.3008 136.357 55.4548C136.687 55.6014 136.98 55.7921 137.237 56.0268C137.501 56.2541 137.71 56.5291 137.864 56.8518C138.025 57.1744 138.106 57.5631 138.106 58.0178C138.106 58.5604 138.007 59.0628 137.809 59.5248C137.611 59.9794 137.321 60.3754 136.94 60.7128C136.558 61.0428 136.085 61.3031 135.521 61.4938C134.963 61.6771 134.322 61.7688 133.596 61.7688C133.207 61.7688 132.826 61.7321 132.452 61.6588C132.085 61.5928 131.729 61.4974 131.385 61.3728C131.047 61.2481 130.732 61.1014 130.439 60.9328C130.153 60.7641 129.9 60.5808 129.68 60.3828L130.307 59.3488C130.387 59.2241 130.483 59.1288 130.593 59.0628C130.703 58.9968 130.842 58.9638 131.011 58.9638C131.179 58.9638 131.337 59.0114 131.484 59.1068C131.638 59.2021 131.814 59.3048 132.012 59.4148C132.21 59.5248 132.441 59.6274 132.705 59.7228C132.976 59.8181 133.317 59.8658 133.728 59.8658C134.05 59.8658 134.325 59.8291 134.553 59.7558C134.787 59.6751 134.978 59.5724 135.125 59.4478C135.279 59.3231 135.389 59.1801 135.455 59.0188C135.528 58.8501 135.565 58.6778 135.565 58.5018C135.565 58.2378 135.484 58.0214 135.323 57.8528C135.169 57.6841 134.96 57.5374 134.696 57.4128C134.439 57.2881 134.142 57.1781 133.805 57.0828C133.475 56.9801 133.134 56.8701 132.782 56.7528C132.437 56.6354 132.096 56.4998 131.759 56.3458C131.429 56.1844 131.132 55.9828 130.868 55.7408C130.611 55.4988 130.402 55.2018 130.241 54.8498C130.087 54.4978 130.01 54.0724 130.01 53.5738C130.01 53.1118 130.101 52.6718 130.285 52.2538C130.468 51.8358 130.736 51.4728 131.088 51.1648C131.447 50.8494 131.891 50.6001 132.419 50.4168C132.954 50.2261 133.57 50.1308 134.267 50.1308C135.044 50.1308 135.752 50.2591 136.39 50.5158C137.028 50.7724 137.559 51.1098 137.985 51.5278L137.369 52.5068ZM143.023 45.2468V54.6078H143.529C143.713 54.6078 143.856 54.5821 143.958 54.5308C144.061 54.4794 144.171 54.3841 144.288 54.2448L147.093 50.7798C147.218 50.6331 147.35 50.5194 147.489 50.4388C147.629 50.3508 147.812 50.3068 148.039 50.3068H150.525L147.016 54.4978C146.892 54.6518 146.763 54.7948 146.631 54.9268C146.499 55.0514 146.356 55.1614 146.202 55.2568C146.356 55.3668 146.492 55.4951 146.609 55.6418C146.727 55.7884 146.844 55.9461 146.961 56.1148L150.723 61.5928H148.27C148.058 61.5928 147.878 61.5561 147.731 61.4828C147.585 61.4094 147.453 61.2848 147.335 61.1088L144.464 56.8298C144.354 56.6611 144.244 56.5511 144.134 56.4998C144.024 56.4484 143.859 56.4228 143.639 56.4228H143.023V61.5928H140.306V45.2468H143.023ZM156.41 50.1308C157.121 50.1308 157.774 50.2444 158.368 50.4718C158.969 50.6991 159.486 51.0328 159.919 51.4728C160.352 51.9054 160.689 52.4408 160.931 53.0788C161.173 53.7094 161.294 54.4318 161.294 55.2458C161.294 55.4511 161.283 55.6234 161.261 55.7628C161.246 55.8948 161.213 56.0011 161.162 56.0818C161.118 56.1551 161.056 56.2101 160.975 56.2468C160.894 56.2761 160.792 56.2908 160.667 56.2908H153.693C153.774 57.4494 154.085 58.3001 154.628 58.8428C155.171 59.3854 155.889 59.6568 156.784 59.6568C157.224 59.6568 157.602 59.6054 157.917 59.5028C158.24 59.4001 158.518 59.2864 158.753 59.1618C158.995 59.0371 159.204 58.9234 159.38 58.8208C159.563 58.7181 159.739 58.6668 159.908 58.6668C160.018 58.6668 160.113 58.6888 160.194 58.7328C160.275 58.7768 160.344 58.8391 160.403 58.9198L161.195 59.9098C160.894 60.2618 160.557 60.5588 160.183 60.8008C159.809 61.0354 159.417 61.2261 159.006 61.3728C158.603 61.5121 158.188 61.6111 157.763 61.6698C157.345 61.7284 156.938 61.7578 156.542 61.7578C155.757 61.7578 155.028 61.6294 154.353 61.3728C153.678 61.1088 153.092 60.7238 152.593 60.2178C152.094 59.7044 151.702 59.0738 151.416 58.3258C151.13 57.5704 150.987 56.6978 150.987 55.7078C150.987 54.9378 151.112 54.2154 151.361 53.5408C151.61 52.8588 151.966 52.2684 152.428 51.7698C152.897 51.2638 153.466 50.8641 154.133 50.5708C154.808 50.2774 155.567 50.1308 156.41 50.1308ZM156.465 52.0778C155.673 52.0778 155.053 52.3014 154.606 52.7488C154.159 53.1961 153.873 53.8304 153.748 54.6518H158.852C158.852 54.2998 158.804 53.9698 158.709 53.6618C158.614 53.3464 158.467 53.0714 158.269 52.8368C158.071 52.6021 157.822 52.4188 157.521 52.2868C157.22 52.1474 156.868 52.0778 156.465 52.0778ZM171.44 61.5928C171.088 61.5928 170.857 61.4278 170.747 61.0978L170.527 60.0088C170.292 60.2728 170.047 60.5111 169.79 60.7238C169.533 60.9364 169.255 61.1198 168.954 61.2738C168.661 61.4278 168.342 61.5451 167.997 61.6258C167.66 61.7138 167.293 61.7578 166.897 61.7578C166.281 61.7578 165.716 61.6294 165.203 61.3728C164.69 61.1161 164.246 60.7458 163.872 60.2618C163.505 59.7704 163.219 59.1654 163.014 58.4468C162.816 57.7281 162.717 56.9068 162.717 55.9828C162.717 55.1468 162.831 54.3694 163.058 53.6508C163.285 52.9321 163.612 52.3088 164.037 51.7808C164.462 51.2528 164.972 50.8421 165.566 50.5488C166.16 50.2481 166.827 50.0978 167.568 50.0978C168.199 50.0978 168.738 50.2004 169.185 50.4058C169.632 50.6038 170.032 50.8714 170.384 51.2088V45.2468H173.101V61.5928H171.44ZM167.821 59.6018C168.386 59.6018 168.866 59.4844 169.262 59.2498C169.658 59.0151 170.032 58.6814 170.384 58.2488V53.1888C170.076 52.8148 169.739 52.5508 169.372 52.3968C169.013 52.2428 168.624 52.1658 168.206 52.1658C167.795 52.1658 167.421 52.2428 167.084 52.3968C166.754 52.5508 166.472 52.7854 166.237 53.1008C166.01 53.4088 165.834 53.8048 165.709 54.2888C165.584 54.7654 165.522 55.3301 165.522 55.9828C165.522 56.6428 165.573 57.2038 165.676 57.6658C165.786 58.1204 165.94 58.4944 166.138 58.7878C166.336 59.0738 166.578 59.2828 166.864 59.4148C167.15 59.5394 167.469 59.6018 167.821 59.6018Z" fill="black"/>
<path d="M54.5896 78.6398C54.5896 79.3511 54.5162 80.0331 54.3696 80.6858C54.2229 81.3311 54.0102 81.9361 53.7316 82.5008C53.4602 83.0654 53.1266 83.5861 52.7306 84.0628C52.3346 84.5321 51.8836 84.9464 51.3776 85.3058L55.4146 89.7058H52.9726C52.6206 89.7058 52.3016 89.6581 52.0156 89.5628C51.7369 89.4674 51.4802 89.2914 51.2456 89.0348L48.9136 86.4608C48.5396 86.5634 48.1546 86.6404 47.7586 86.6918C47.3699 86.7431 46.9629 86.7688 46.5376 86.7688C45.3349 86.7688 44.2349 86.5671 43.2376 86.1638C42.2476 85.7531 41.3969 85.1848 40.6856 84.4588C39.9816 83.7328 39.4352 82.8748 39.0466 81.8848C38.6579 80.8874 38.4636 79.8058 38.4636 78.6398C38.4636 77.4738 38.6579 76.3958 39.0466 75.4058C39.4352 74.4084 39.9816 73.5468 40.6856 72.8208C41.3969 72.0948 42.2476 71.5301 43.2376 71.1268C44.2349 70.7161 45.3349 70.5108 46.5376 70.5108C47.7402 70.5108 48.8366 70.7161 49.8266 71.1268C50.8166 71.5374 51.6636 72.1058 52.3676 72.8318C53.0716 73.5504 53.6179 74.4084 54.0066 75.4058C54.3952 76.3958 54.5896 77.4738 54.5896 78.6398ZM51.5536 78.6398C51.5536 77.7671 51.4362 76.9861 51.2016 76.2968C50.9742 75.6001 50.6442 75.0098 50.2116 74.5258C49.7789 74.0418 49.2509 73.6714 48.6276 73.4148C48.0116 73.1581 47.3149 73.0298 46.5376 73.0298C45.7602 73.0298 45.0599 73.1581 44.4366 73.4148C43.8132 73.6714 43.2816 74.0418 42.8416 74.5258C42.4089 75.0098 42.0752 75.6001 41.8406 76.2968C41.6059 76.9861 41.4886 77.7671 41.4886 78.6398C41.4886 79.5124 41.6059 80.2971 41.8406 80.9938C42.0752 81.6831 42.4089 82.2698 42.8416 82.7538C43.2816 83.2304 43.8132 83.5971 44.4366 83.8538C45.0599 84.1104 45.7602 84.2388 46.5376 84.2388C47.3149 84.2388 48.0116 84.1104 48.6276 83.8538C49.2509 83.5971 49.7789 83.2304 50.2116 82.7538C50.6442 82.2698 50.9742 81.6831 51.2016 80.9938C51.4362 80.2971 51.5536 79.5124 51.5536 78.6398ZM59.2603 75.3068V82.4788C59.2603 83.1681 59.4179 83.7034 59.7333 84.0848C60.0559 84.4588 60.5363 84.6458 61.1743 84.6458C61.6436 84.6458 62.0836 84.5431 62.4943 84.3378C62.9049 84.1251 63.2936 83.8354 63.6603 83.4688V75.3068H66.3773V86.5928H64.7163C64.3643 86.5928 64.1333 86.4278 64.0233 86.0978L63.8363 85.1958C63.6016 85.4304 63.3596 85.6468 63.1103 85.8448C62.8609 86.0354 62.5933 86.2004 62.3073 86.3398C62.0286 86.4718 61.7243 86.5744 61.3943 86.6478C61.0716 86.7284 60.7233 86.7688 60.3493 86.7688C59.7333 86.7688 59.1869 86.6661 58.7103 86.4608C58.2409 86.2481 57.8449 85.9511 57.5223 85.5698C57.1996 85.1884 56.9539 84.7374 56.7853 84.2168C56.6239 83.6888 56.5433 83.1094 56.5433 82.4788V75.3068H59.2603ZM73.9422 75.1308C74.6535 75.1308 75.3062 75.2444 75.9002 75.4718C76.5015 75.6991 77.0185 76.0328 77.4512 76.4728C77.8838 76.9054 78.2212 77.4408 78.4632 78.0788C78.7052 78.7094 78.8262 79.4318 78.8262 80.2458C78.8262 80.4511 78.8152 80.6234 78.7932 80.7628C78.7785 80.8948 78.7455 81.0011 78.6942 81.0818C78.6502 81.1551 78.5878 81.2101 78.5072 81.2468C78.4265 81.2761 78.3238 81.2908 78.1992 81.2908H71.2252C71.3058 82.4494 71.6175 83.3001 72.1602 83.8428C72.7028 84.3854 73.4215 84.6568 74.3162 84.6568C74.7562 84.6568 75.1338 84.6054 75.4492 84.5028C75.7718 84.4001 76.0505 84.2864 76.2852 84.1618C76.5272 84.0371 76.7362 83.9234 76.9122 83.8208C77.0955 83.7181 77.2715 83.6668 77.4402 83.6668C77.5502 83.6668 77.6455 83.6888 77.7262 83.7328C77.8068 83.7768 77.8765 83.8391 77.9352 83.9198L78.7272 84.9098C78.4265 85.2618 78.0892 85.5588 77.7152 85.8008C77.3412 86.0354 76.9488 86.2261 76.5382 86.3728C76.1348 86.5121 75.7205 86.6111 75.2952 86.6698C74.8772 86.7284 74.4702 86.7578 74.0742 86.7578C73.2895 86.7578 72.5598 86.6294 71.8852 86.3728C71.2105 86.1088 70.6238 85.7238 70.1252 85.2178C69.6265 84.7044 69.2342 84.0738 68.9482 83.3258C68.6622 82.5704 68.5192 81.6978 68.5192 80.7078C68.5192 79.9378 68.6438 79.2154 68.8932 78.5408C69.1425 77.8588 69.4982 77.2684 69.9602 76.7698C70.4295 76.2638 70.9978 75.8641 71.6652 75.5708C72.3398 75.2774 73.0988 75.1308 73.9422 75.1308ZM73.9972 77.0778C73.2052 77.0778 72.5855 77.3014 72.1382 77.7488C71.6908 78.1961 71.4048 78.8304 71.2802 79.6518H76.3842C76.3842 79.2998 76.3365 78.9698 76.2412 78.6618C76.1458 78.3464 75.9992 78.0714 75.8012 77.8368C75.6032 77.6021 75.3538 77.4188 75.0532 77.2868C74.7525 77.1474 74.4005 77.0778 73.9972 77.0778ZM87.7291 77.5068C87.6558 77.6241 87.5788 77.7084 87.4981 77.7598C87.4175 77.8038 87.3148 77.8258 87.1901 77.8258C87.0581 77.8258 86.9151 77.7891 86.7611 77.7158C86.6145 77.6424 86.4421 77.5618 86.2441 77.4738C86.0461 77.3784 85.8188 77.2941 85.5621 77.2208C85.3128 77.1474 85.0158 77.1108 84.6711 77.1108C84.1358 77.1108 83.7141 77.2244 83.4061 77.4518C83.0981 77.6791 82.9441 77.9761 82.9441 78.3428C82.9441 78.5848 83.0211 78.7901 83.1751 78.9588C83.3365 79.1201 83.5455 79.2631 83.8021 79.3878C84.0661 79.5124 84.3631 79.6261 84.6931 79.7288C85.0231 79.8241 85.3605 79.9304 85.7051 80.0478C86.0498 80.1651 86.3871 80.3008 86.7171 80.4548C87.0471 80.6014 87.3405 80.7921 87.5971 81.0268C87.8611 81.2541 88.0701 81.5291 88.2241 81.8518C88.3855 82.1744 88.4661 82.5631 88.4661 83.0178C88.4661 83.5604 88.3671 84.0628 88.1691 84.5248C87.9711 84.9794 87.6815 85.3754 87.3001 85.7128C86.9188 86.0428 86.4458 86.3031 85.8811 86.4938C85.3238 86.6771 84.6821 86.7688 83.9561 86.7688C83.5675 86.7688 83.1861 86.7321 82.8121 86.6588C82.4455 86.5928 82.0898 86.4974 81.7451 86.3728C81.4078 86.2481 81.0925 86.1014 80.7991 85.9328C80.5131 85.7641 80.2601 85.5808 80.0401 85.3828L80.6671 84.3488C80.7478 84.2241 80.8431 84.1288 80.9531 84.0628C81.0631 83.9968 81.2025 83.9638 81.3711 83.9638C81.5398 83.9638 81.6975 84.0114 81.8441 84.1068C81.9981 84.2021 82.1741 84.3048 82.3721 84.4148C82.5701 84.5248 82.8011 84.6274 83.0651 84.7228C83.3365 84.8181 83.6775 84.8658 84.0881 84.8658C84.4108 84.8658 84.6858 84.8291 84.9131 84.7558C85.1478 84.6751 85.3385 84.5724 85.4851 84.4478C85.6391 84.3231 85.7491 84.1801 85.8151 84.0188C85.8885 83.8501 85.9251 83.6778 85.9251 83.5018C85.9251 83.2378 85.8445 83.0214 85.6831 82.8528C85.5291 82.6841 85.3201 82.5374 85.0561 82.4128C84.7995 82.2881 84.5025 82.1781 84.1651 82.0828C83.8351 81.9801 83.4941 81.8701 83.1421 81.7528C82.7975 81.6354 82.4565 81.4998 82.1191 81.3458C81.7891 81.1844 81.4921 80.9828 81.2281 80.7408C80.9715 80.4988 80.7625 80.2018 80.6011 79.8498C80.4471 79.4978 80.3701 79.0724 80.3701 78.5738C80.3701 78.1118 80.4618 77.6718 80.6451 77.2538C80.8285 76.8358 81.0961 76.4728 81.4481 76.1648C81.8075 75.8494 82.2511 75.6001 82.7791 75.4168C83.3145 75.2261 83.9305 75.1308 84.6271 75.1308C85.4045 75.1308 86.1121 75.2591 86.7501 75.5158C87.3881 75.7724 87.9198 76.1098 88.3451 76.5278L87.7291 77.5068ZM94.3406 86.7688C93.3653 86.7688 92.6136 86.4938 92.0856 85.9438C91.5576 85.3864 91.2936 84.6201 91.2936 83.6448V77.3418H90.1496C90.003 77.3418 89.8746 77.2941 89.7646 77.1988C89.662 77.1034 89.6106 76.9604 89.6106 76.7698V75.6918L91.4256 75.3948L91.9976 72.3148C92.027 72.1681 92.093 72.0544 92.1956 71.9738C92.3056 71.8931 92.4413 71.8528 92.6026 71.8528H94.0106V75.4058H96.9806V77.3418H94.0106V83.4578C94.0106 83.8098 94.0986 84.0848 94.2746 84.2828C94.4506 84.4808 94.6853 84.5798 94.9786 84.5798C95.1473 84.5798 95.2866 84.5614 95.3966 84.5248C95.514 84.4808 95.613 84.4368 95.6936 84.3928C95.7816 84.3488 95.8586 84.3084 95.9246 84.2718C95.9906 84.2278 96.0566 84.2058 96.1226 84.2058C96.2033 84.2058 96.2693 84.2278 96.3206 84.2718C96.372 84.3084 96.427 84.3671 96.4856 84.4478L97.2996 85.7678C96.9036 86.0978 96.449 86.3471 95.9356 86.5158C95.4223 86.6844 94.8906 86.7688 94.3406 86.7688ZM102.034 75.3068V86.5928H99.3175V75.3068H102.034ZM102.441 72.0178C102.441 72.2524 102.394 72.4724 102.298 72.6778C102.203 72.8831 102.075 73.0628 101.913 73.2168C101.759 73.3708 101.576 73.4954 101.363 73.5908C101.151 73.6788 100.923 73.7228 100.681 73.7228C100.447 73.7228 100.223 73.6788 100.01 73.5908C99.8051 73.4954 99.6255 73.3708 99.4715 73.2168C99.3175 73.0628 99.1928 72.8831 99.0975 72.6778C99.0095 72.4724 98.9655 72.2524 98.9655 72.0178C98.9655 71.7758 99.0095 71.5484 99.0975 71.3358C99.1928 71.1231 99.3175 70.9398 99.4715 70.7858C99.6255 70.6318 99.8051 70.5108 100.01 70.4228C100.223 70.3274 100.447 70.2798 100.681 70.2798C100.923 70.2798 101.151 70.3274 101.363 70.4228C101.576 70.5108 101.759 70.6318 101.913 70.7858C102.075 70.9398 102.203 71.1231 102.298 71.3358C102.394 71.5484 102.441 71.7758 102.441 72.0178ZM109.932 75.1308C110.775 75.1308 111.538 75.2664 112.22 75.5378C112.909 75.8091 113.496 76.1941 113.98 76.6928C114.464 77.1914 114.838 77.8001 115.102 78.5188C115.366 79.2374 115.498 80.0404 115.498 80.9278C115.498 81.8224 115.366 82.6291 115.102 83.3478C114.838 84.0664 114.464 84.6788 113.98 85.1848C113.496 85.6908 112.909 86.0794 112.22 86.3508C111.538 86.6221 110.775 86.7578 109.932 86.7578C109.089 86.7578 108.322 86.6221 107.633 86.3508C106.944 86.0794 106.353 85.6908 105.862 85.1848C105.378 84.6788 105 84.0664 104.729 83.3478C104.465 82.6291 104.333 81.8224 104.333 80.9278C104.333 80.0404 104.465 79.2374 104.729 78.5188C105 77.8001 105.378 77.1914 105.862 76.6928C106.353 76.1941 106.944 75.8091 107.633 75.5378C108.322 75.2664 109.089 75.1308 109.932 75.1308ZM109.932 84.6678C110.871 84.6678 111.564 84.3524 112.011 83.7218C112.466 83.0911 112.693 82.1671 112.693 80.9498C112.693 79.7324 112.466 78.8048 112.011 78.1668C111.564 77.5288 110.871 77.2098 109.932 77.2098C108.979 77.2098 108.275 77.5324 107.82 78.1778C107.365 78.8158 107.138 79.7398 107.138 80.9498C107.138 82.1598 107.365 83.0838 107.82 83.7218C108.275 84.3524 108.979 84.6678 109.932 84.6678ZM117.618 86.5928V75.3068H119.279C119.631 75.3068 119.862 75.4718 119.972 75.8018L120.159 76.6928C120.386 76.4581 120.625 76.2454 120.874 76.0548C121.131 75.8641 121.398 75.6991 121.677 75.5598C121.963 75.4204 122.267 75.3141 122.59 75.2408C122.913 75.1674 123.265 75.1308 123.646 75.1308C124.262 75.1308 124.808 75.2371 125.285 75.4498C125.762 75.6551 126.158 75.9484 126.473 76.3298C126.796 76.7038 127.038 77.1548 127.199 77.6828C127.368 78.2034 127.452 78.7791 127.452 79.4098V86.5928H124.735V79.4098C124.735 78.7204 124.574 78.1888 124.251 77.8148C123.936 77.4334 123.459 77.2428 122.821 77.2428C122.352 77.2428 121.912 77.3491 121.501 77.5618C121.09 77.7744 120.702 78.0641 120.335 78.4308V86.5928H117.618ZM136.821 77.5068C136.748 77.6241 136.671 77.7084 136.59 77.7598C136.509 77.8038 136.407 77.8258 136.282 77.8258C136.15 77.8258 136.007 77.7891 135.853 77.7158C135.706 77.6424 135.534 77.5618 135.336 77.4738C135.138 77.3784 134.911 77.2941 134.654 77.2208C134.405 77.1474 134.108 77.1108 133.763 77.1108C133.228 77.1108 132.806 77.2244 132.498 77.4518C132.19 77.6791 132.036 77.9761 132.036 78.3428C132.036 78.5848 132.113 78.7901 132.267 78.9588C132.428 79.1201 132.637 79.2631 132.894 79.3878C133.158 79.5124 133.455 79.6261 133.785 79.7288C134.115 79.8241 134.452 79.9304 134.797 80.0478C135.142 80.1651 135.479 80.3008 135.809 80.4548C136.139 80.6014 136.432 80.7921 136.689 81.0268C136.953 81.2541 137.162 81.5291 137.316 81.8518C137.477 82.1744 137.558 82.5631 137.558 83.0178C137.558 83.5604 137.459 84.0628 137.261 84.5248C137.063 84.9794 136.773 85.3754 136.392 85.7128C136.011 86.0428 135.538 86.3031 134.973 86.4938C134.416 86.6771 133.774 86.7688 133.048 86.7688C132.659 86.7688 132.278 86.7321 131.904 86.6588C131.537 86.5928 131.182 86.4974 130.837 86.3728C130.5 86.2481 130.184 86.1014 129.891 85.9328C129.605 85.7641 129.352 85.5808 129.132 85.3828L129.759 84.3488C129.84 84.2241 129.935 84.1288 130.045 84.0628C130.155 83.9968 130.294 83.9638 130.463 83.9638C130.632 83.9638 130.789 84.0114 130.936 84.1068C131.09 84.2021 131.266 84.3048 131.464 84.4148C131.662 84.5248 131.893 84.6274 132.157 84.7228C132.428 84.8181 132.769 84.8658 133.18 84.8658C133.503 84.8658 133.778 84.8291 134.005 84.7558C134.24 84.6751 134.43 84.5724 134.577 84.4478C134.731 84.3231 134.841 84.1801 134.907 84.0188C134.98 83.8501 135.017 83.6778 135.017 83.5018C135.017 83.2378 134.936 83.0214 134.775 82.8528C134.621 82.6841 134.412 82.5374 134.148 82.4128C133.891 82.2881 133.594 82.1781 133.257 82.0828C132.927 81.9801 132.586 81.8701 132.234 81.7528C131.889 81.6354 131.548 81.4998 131.211 81.3458C130.881 81.1844 130.584 80.9828 130.32 80.7408C130.063 80.4988 129.854 80.2018 129.693 79.8498C129.539 79.4978 129.462 79.0724 129.462 78.5738C129.462 78.1118 129.554 77.6718 129.737 77.2538C129.92 76.8358 130.188 76.4728 130.54 76.1648C130.899 75.8494 131.343 75.6001 131.871 75.4168C132.406 75.2261 133.022 75.1308 133.719 75.1308C134.496 75.1308 135.204 75.2591 135.842 75.5158C136.48 75.7724 137.012 76.1098 137.437 76.5278L136.821 77.5068Z" fill="url(#paint0_linear_615_179)"/>
<path d="M74.4835 21.4707V11.5884H80.8144V13.089H76.2737V15.7719H80.3801V17.2726H76.2737V21.4707H74.4835ZM83.9686 21.4707H82.0578L85.5368 11.5884H87.7469L91.2308 21.4707H89.3199L86.6805 13.615H86.6032L83.9686 21.4707ZM84.0313 17.5959H89.2427V19.0339H84.0313V17.5959ZM97.238 18.1509H98.8593L99.8195 19.3958L100.505 20.2065L102.15 22.32H100.413L99.2936 20.9013L98.8159 20.2258L97.238 18.1509ZM102.387 16.5295C102.387 17.5943 102.187 18.5063 101.788 19.2655C101.393 20.0215 100.852 20.6005 100.167 21.0026C99.485 21.4048 98.7113 21.6058 97.846 21.6058C96.9806 21.6058 96.2053 21.4048 95.5201 21.0026C94.8381 20.5973 94.2977 20.0167 93.8988 19.2607C93.5031 18.5015 93.3053 17.5911 93.3053 16.5295C93.3053 15.4647 93.5031 14.5543 93.8988 13.7984C94.2977 13.0392 94.8381 12.4585 95.5201 12.0564C96.2053 11.6543 96.9806 11.4532 97.846 11.4532C98.7113 11.4532 99.485 11.6543 100.167 12.0564C100.852 12.4585 101.393 13.0392 101.788 13.7984C102.187 14.5543 102.387 15.4647 102.387 16.5295ZM100.587 16.5295C100.587 15.78 100.469 15.1479 100.235 14.6332C100.003 14.1152 99.6812 13.7244 99.2694 13.4606C98.8577 13.1936 98.3832 13.0601 97.846 13.0601C97.3087 13.0601 96.8342 13.1936 96.4225 13.4606C96.0107 13.7244 95.6874 14.1152 95.4526 14.6332C95.221 15.1479 95.1052 15.78 95.1052 16.5295C95.1052 17.2791 95.221 17.9128 95.4526 18.4307C95.6874 18.9454 96.0107 19.3363 96.4225 19.6033C96.8342 19.8671 97.3087 19.999 97.846 19.999C98.3832 19.999 98.8577 19.8671 99.2694 19.6033C99.6812 19.3363 100.003 18.9454 100.235 18.4307C100.469 17.9128 100.587 17.2791 100.587 16.5295Z" fill="#0056BB"/>
<g filter="url(#filter0_d_615_179)">
<rect x="56.9411" y="5.58831" width="62.1176" height="22.6471" stroke="#2F8FFF" stroke-width="1.29412"/>
<g filter="url(#filter1_i_615_179)">
<circle cx="119.156" cy="4.8443" r="1.84421" fill="#2F8FFF"/>
</g>
<g filter="url(#filter2_i_615_179)">
<circle cx="56.8442" cy="4.84421" r="1.84421" fill="#2F8FFF"/>
</g>
<g filter="url(#filter3_i_615_179)">
<circle cx="119.156" cy="28.3161" r="1.84421" fill="#2F8FFF"/>
</g>
<g filter="url(#filter4_i_615_179)">
<circle cx="56.8442" cy="28.3161" r="1.84421" fill="#2F8FFF"/>
</g>
</g>
<defs>
<filter id="filter0_d_615_179" x="51.1176" y="0.411765" width="76.3529" height="37.5132" filterUnits="userSpaceOnUse" color-interpolation-filters="sRGB">
<feFlood flood-opacity="0" result="BackgroundImageFix"/>
<feColorMatrix in="SourceAlpha" type="matrix" values="0 0 0 0 0 0 0 0 0 0 0 0 0 0 0 0 0 0 127 0" result="hardAlpha"/>
<feOffset dx="1.29412" dy="2.58824"/>
<feGaussianBlur stdDeviation="2.58824"/>
<feComposite in2="hardAlpha" operator="out"/>
<feColorMatrix type="matrix" values="0 0 0 0 0 0 0 0 0 0 0 0 0 0 0 0 0 0 0.25 0"/>
<feBlend mode="normal" in2="BackgroundImageFix" result="effect1_dropShadow_615_179"/>
<feBlend mode="normal" in="SourceGraphic" in2="effect1_dropShadow_615_179" result="shape"/>
</filter>
<filter id="filter1_i_615_179" x="117.312" y="1.70597" width="3.68848" height="4.98253" filterUnits="userSpaceOnUse" color-interpolation-filters="sRGB">
<feFlood flood-opacity="0" result="BackgroundImageFix"/>
<feBlend mode="normal" in="SourceGraphic" in2="BackgroundImageFix" result="shape"/>
<feColorMatrix in="SourceAlpha" type="matrix" values="0 0 0 0 0 0 0 0 0 0 0 0 0 0 0 0 0 0 127 0" result="hardAlpha"/>
<feMorphology radius="4.52941" operator="dilate" in="SourceAlpha" result="effect1_innerShadow_615_179"/>
<feOffset dy="-1.29412"/>
<feGaussianBlur stdDeviation="3.55882"/>
<feComposite in2="hardAlpha" operator="arithmetic" k2="-1" k3="1"/>
<feColorMatrix type="matrix" values="0 0 0 0 0 0 0 0 0 0 0 0 0 0 0 0 0 0 0.25 0"/>
<feBlend mode="normal" in2="shape" result="effect1_innerShadow_615_179"/>
</filter>
<filter id="filter2_i_615_179" x="55" y="1.70588" width="3.68848" height="4.98253" filterUnits="userSpaceOnUse" color-interpolation-filters="sRGB">
<feFlood flood-opacity="0" result="BackgroundImageFix"/>
<feBlend mode="normal" in="SourceGraphic" in2="BackgroundImageFix" result="shape"/>
<feColorMatrix in="SourceAlpha" type="matrix" values="0 0 0 0 0 0 0 0 0 0 0 0 0 0 0 0 0 0 127 0" result="hardAlpha"/>
<feMorphology radius="4.52941" operator="dilate" in="SourceAlpha" result="effect1_innerShadow_615_179"/>
<feOffset dy="-1.29412"/>
<feGaussianBlur stdDeviation="3.55882"/>
<feComposite in2="hardAlpha" operator="arithmetic" k2="-1" k3="1"/>
<feColorMatrix type="matrix" values="0 0 0 0 0 0 0 0 0 0 0 0 0 0 0 0 0 0 0.25 0"/>
<feBlend mode="normal" in2="shape" result="effect1_innerShadow_615_179"/>
</filter>
<filter id="filter3_i_615_179" x="117.312" y="25.1777" width="3.68848" height="4.98253" filterUnits="userSpaceOnUse" color-interpolation-filters="sRGB">
<feFlood flood-opacity="0" result="BackgroundImageFix"/>
<feBlend mode="normal" in="SourceGraphic" in2="BackgroundImageFix" result="shape"/>
<feColorMatrix in="SourceAlpha" type="matrix" values="0 0 0 0 0 0 0 0 0 0 0 0 0 0 0 0 0 0 127 0" result="hardAlpha"/>
<feMorphology radius="4.52941" operator="dilate" in="SourceAlpha" result="effect1_innerShadow_615_179"/>
<feOffset dy="-1.29412"/>
<feGaussianBlur stdDeviation="3.55882"/>
<feComposite in2="hardAlpha" operator="arithmetic" k2="-1" k3="1"/>
<feColorMatrix type="matrix" values="0 0 0 0 0 0 0 0 0 0 0 0 0 0 0 0 0 0 0.25 0"/>
<feBlend mode="normal" in2="shape" result="effect1_innerShadow_615_179"/>
</filter>
<filter id="filter4_i_615_179" x="55" y="25.1777" width="3.68848" height="4.98253" filterUnits="userSpaceOnUse" color-interpolation-filters="sRGB">
<feFlood flood-opacity="0" result="BackgroundImageFix"/>
<feBlend mode="normal" in="SourceGraphic" in2="BackgroundImageFix" result="shape"/>
<feColorMatrix in="SourceAlpha" type="matrix" values="0 0 0 0 0 0 0 0 0 0 0 0 0 0 0 0 0 0 127 0" result="hardAlpha"/>
<feMorphology radius="4.52941" operator="dilate" in="SourceAlpha" result="effect1_innerShadow_615_179"/>
<feOffset dy="-1.29412"/>
<feGaussianBlur stdDeviation="3.55882"/>
<feComposite in2="hardAlpha" operator="arithmetic" k2="-1" k3="1"/>
<feColorMatrix type="matrix" values="0 0 0 0 0 0 0 0 0 0 0 0 0 0 0 0 0 0 0.25 0"/>
<feBlend mode="normal" in2="shape" result="effect1_innerShadow_615_179"/>
</filter>
<linearGradient id="paint0_linear_615_179" x1="-19.9716" y1="57.9261" x2="268.335" y2="82.4629" gradientUnits="userSpaceOnUse">
<stop stop-color="#0866CC"/>
<stop offset="1" stop-color="#2E9FF8"/>
</linearGradient>
</defs>
</svg>
