<svg width="796" height="168" viewBox="0 0 796 168" fill="none" xmlns="http://www.w3.org/2000/svg">
<path d="M15.5158 39.305C17.4958 39.305 18.9208 38.8325 19.7908 37.8875C20.6608 36.9425 21.0958 35.6225 21.0958 33.9275C21.0958 33.1775 20.9833 32.495 20.7583 31.88C20.5333 31.265 20.1883 30.74 19.7233 30.305C19.2733 29.855 18.6958 29.51 17.9908 29.27C17.3008 29.03 16.4758 28.91 15.5158 28.91H11.5558V39.305H15.5158ZM15.5158 23.2175C17.8258 23.2175 19.8058 23.495 21.4558 24.05C23.1208 24.59 24.4858 25.34 25.5508 26.3C26.6308 27.26 27.4258 28.3925 27.9358 29.6975C28.4458 31.0025 28.7008 32.4125 28.7008 33.9275C28.7008 35.5625 28.4383 37.0625 27.9133 38.4275C27.3883 39.7925 26.5858 40.9625 25.5058 41.9375C24.4258 42.9125 23.0533 43.6775 21.3883 44.2325C19.7383 44.7725 17.7808 45.0425 15.5158 45.0425H11.5558V56H3.95082V23.2175H15.5158ZM37.9666 36.2675C38.6866 35.0075 39.5116 34.0175 40.4416 33.2975C41.3866 32.5775 42.4666 32.2175 43.6816 32.2175C44.7316 32.2175 45.5866 32.465 46.2466 32.96L45.7966 38.09C45.7216 38.42 45.5941 38.645 45.4141 38.765C45.2491 38.885 45.0166 38.945 44.7166 38.945C44.5966 38.945 44.4391 38.9375 44.2441 38.9225C44.0491 38.9075 43.8466 38.8925 43.6366 38.8775C43.4266 38.8475 43.2091 38.825 42.9841 38.81C42.7741 38.78 42.5791 38.765 42.3991 38.765C41.3791 38.765 40.5616 39.035 39.9466 39.575C39.3466 40.115 38.8366 40.865 38.4166 41.825V56H31.4416V32.6675H35.5816C35.9266 32.6675 36.2116 32.6975 36.4366 32.7575C36.6766 32.8175 36.8716 32.915 37.0216 33.05C37.1866 33.17 37.3066 33.335 37.3816 33.545C37.4716 33.755 37.5466 34.01 37.6066 34.31L37.9666 36.2675ZM58.9837 32.3075C60.7537 32.3075 62.3662 32.585 63.8212 33.14C65.2762 33.695 66.5212 34.49 67.5562 35.525C68.6062 36.56 69.4162 37.82 69.9862 39.305C70.5712 40.775 70.8637 42.4325 70.8637 44.2775C70.8637 46.1375 70.5712 47.8175 69.9862 49.3175C69.4162 50.8025 68.6062 52.07 67.5562 53.12C66.5212 54.155 65.2762 54.9575 63.8212 55.5275C62.3662 56.0825 60.7537 56.36 58.9837 56.36C57.1987 56.36 55.5712 56.0825 54.1012 55.5275C52.6462 54.9575 51.3862 54.155 50.3212 53.12C49.2712 52.07 48.4537 50.8025 47.8687 49.3175C47.2987 47.8175 47.0137 46.1375 47.0137 44.2775C47.0137 42.4325 47.2987 40.775 47.8687 39.305C48.4537 37.82 49.2712 36.56 50.3212 35.525C51.3862 34.49 52.6462 33.695 54.1012 33.14C55.5712 32.585 57.1987 32.3075 58.9837 32.3075ZM58.9837 51.185C60.5887 51.185 61.7662 50.6225 62.5162 49.4975C63.2812 48.3575 63.6637 46.6325 63.6637 44.3225C63.6637 42.0125 63.2812 40.295 62.5162 39.17C61.7662 38.045 60.5887 37.4825 58.9837 37.4825C57.3337 37.4825 56.1262 38.045 55.3612 39.17C54.5962 40.295 54.2137 42.0125 54.2137 44.3225C54.2137 46.6325 54.5962 48.3575 55.3612 49.4975C56.1262 50.6225 57.3337 51.185 58.9837 51.185ZM74.3762 56V32.6675H78.6962C79.5662 32.6675 80.1362 33.0575 80.4062 33.8375L80.7887 35.0975C81.1787 34.6925 81.5837 34.325 82.0037 33.995C82.4237 33.65 82.8737 33.3575 83.3537 33.1175C83.8487 32.8625 84.3737 32.6675 84.9287 32.5325C85.4987 32.3825 86.1212 32.3075 86.7962 32.3075C88.2062 32.3075 89.3687 32.675 90.2837 33.41C91.2137 34.13 91.9187 35.0975 92.3987 36.3125C92.7887 35.5925 93.2612 34.9775 93.8162 34.4675C94.3862 33.9575 94.9937 33.545 95.6387 33.23C96.2987 32.915 96.9887 32.6825 97.7087 32.5325C98.4437 32.3825 99.1712 32.3075 99.8912 32.3075C101.226 32.3075 102.411 32.51 103.446 32.915C104.481 33.305 105.344 33.8825 106.034 34.6475C106.739 35.3975 107.271 36.3275 107.631 37.4375C107.991 38.5325 108.171 39.7775 108.171 41.1725V56H101.196V41.1725C101.196 38.7575 100.161 37.55 98.0912 37.55C97.1462 37.55 96.3587 37.865 95.7287 38.495C95.1137 39.11 94.8062 40.0025 94.8062 41.1725V56H87.8312V41.1725C87.8312 39.8375 87.5687 38.9 87.0437 38.36C86.5187 37.82 85.7462 37.55 84.7262 37.55C84.0962 37.55 83.4962 37.6925 82.9262 37.9775C82.3712 38.2625 81.8462 38.645 81.3512 39.125V56H74.3762ZM123.408 32.3075C125.178 32.3075 126.79 32.585 128.245 33.14C129.7 33.695 130.945 34.49 131.98 35.525C133.03 36.56 133.84 37.82 134.41 39.305C134.995 40.775 135.288 42.4325 135.288 44.2775C135.288 46.1375 134.995 47.8175 134.41 49.3175C133.84 50.8025 133.03 52.07 131.98 53.12C130.945 54.155 129.7 54.9575 128.245 55.5275C126.79 56.0825 125.178 56.36 123.408 56.36C121.623 56.36 119.995 56.0825 118.525 55.5275C117.07 54.9575 115.81 54.155 114.745 53.12C113.695 52.07 112.878 50.8025 112.293 49.3175C111.723 47.8175 111.438 46.1375 111.438 44.2775C111.438 42.4325 111.723 40.775 112.293 39.305C112.878 37.82 113.695 36.56 114.745 35.525C115.81 34.49 117.07 33.695 118.525 33.14C119.995 32.585 121.623 32.3075 123.408 32.3075ZM123.408 51.185C125.013 51.185 126.19 50.6225 126.94 49.4975C127.705 48.3575 128.088 46.6325 128.088 44.3225C128.088 42.0125 127.705 40.295 126.94 39.17C126.19 38.045 125.013 37.4825 123.408 37.4825C121.758 37.4825 120.55 38.045 119.785 39.17C119.02 40.295 118.638 42.0125 118.638 44.3225C118.638 46.6325 119.02 48.3575 119.785 49.4975C120.55 50.6225 121.758 51.185 123.408 51.185ZM146.664 56.36C145.554 56.36 144.572 56.2025 143.717 55.8875C142.877 55.5575 142.164 55.1 141.579 54.515C141.009 53.915 140.574 53.195 140.274 52.355C139.974 51.515 139.824 50.5775 139.824 49.5425V37.4825H137.844C137.484 37.4825 137.177 37.37 136.922 37.145C136.667 36.905 136.539 36.56 136.539 36.11V33.3875L140.252 32.6675L141.624 26.975C141.804 26.255 142.314 25.895 143.154 25.895H146.799V32.7125H152.582V37.4825H146.799V49.07C146.799 49.61 146.927 50.06 147.182 50.42C147.452 50.765 147.834 50.9375 148.329 50.9375C148.584 50.9375 148.794 50.915 148.959 50.87C149.139 50.81 149.289 50.75 149.409 50.69C149.544 50.615 149.664 50.555 149.769 50.51C149.889 50.45 150.024 50.42 150.174 50.42C150.384 50.42 150.549 50.4725 150.669 50.5775C150.804 50.6675 150.939 50.8175 151.074 51.0275L153.189 54.335C152.289 55.01 151.277 55.52 150.152 55.865C149.027 56.195 147.864 56.36 146.664 56.36ZM169.88 41.5325C169.88 40.9775 169.805 40.4375 169.655 39.9125C169.52 39.3875 169.287 38.9225 168.957 38.5175C168.642 38.0975 168.222 37.76 167.697 37.505C167.172 37.25 166.535 37.1225 165.785 37.1225C164.465 37.1225 163.43 37.505 162.68 38.27C161.93 39.02 161.435 40.1075 161.195 41.5325H169.88ZM161.105 45.5825C161.33 47.5325 161.922 48.95 162.882 49.835C163.842 50.705 165.08 51.14 166.595 51.14C167.405 51.14 168.102 51.0425 168.687 50.8475C169.272 50.6525 169.79 50.435 170.24 50.195C170.705 49.955 171.125 49.7375 171.5 49.5425C171.89 49.3475 172.295 49.25 172.715 49.25C173.27 49.25 173.69 49.4525 173.975 49.8575L176 52.355C175.28 53.18 174.5 53.855 173.66 54.38C172.835 54.89 171.98 55.295 171.095 55.595C170.225 55.88 169.347 56.075 168.462 56.18C167.592 56.3 166.76 56.36 165.965 56.36C164.33 56.36 162.792 56.0975 161.352 55.5725C159.927 55.0325 158.675 54.2375 157.595 53.1875C156.53 52.1375 155.682 50.8325 155.052 49.2725C154.437 47.7125 154.13 45.8975 154.13 43.8275C154.13 42.2675 154.392 40.79 154.917 39.395C155.457 38 156.222 36.7775 157.212 35.7275C158.217 34.6775 159.425 33.845 160.835 33.23C162.26 32.615 163.865 32.3075 165.65 32.3075C167.195 32.3075 168.605 32.5475 169.88 33.0275C171.17 33.5075 172.272 34.205 173.187 35.12C174.117 36.035 174.837 37.16 175.347 38.495C175.872 39.815 176.135 41.315 176.135 42.995C176.135 43.52 176.112 43.9475 176.067 44.2775C176.022 44.6075 175.94 44.87 175.82 45.065C175.7 45.26 175.535 45.395 175.325 45.47C175.13 45.545 174.875 45.5825 174.56 45.5825H161.105ZM204.666 43.535V56H197.061V43.535L185.181 23.2175H191.886C192.546 23.2175 193.063 23.375 193.438 23.69C193.828 23.99 194.151 24.38 194.406 24.86L199.041 34.4C199.431 35.15 199.783 35.855 200.098 36.515C200.413 37.16 200.691 37.7975 200.931 38.4275C201.156 37.7825 201.411 37.1375 201.696 36.4925C201.996 35.8325 202.341 35.135 202.731 34.4L207.321 24.86C207.426 24.665 207.553 24.47 207.703 24.275C207.853 24.08 208.026 23.9075 208.221 23.7575C208.431 23.5925 208.663 23.465 208.918 23.375C209.188 23.27 209.481 23.2175 209.796 23.2175H216.546L204.666 43.535ZM223.823 32.3075C225.593 32.3075 227.205 32.585 228.66 33.14C230.115 33.695 231.36 34.49 232.395 35.525C233.445 36.56 234.255 37.82 234.825 39.305C235.41 40.775 235.703 42.4325 235.703 44.2775C235.703 46.1375 235.41 47.8175 234.825 49.3175C234.255 50.8025 233.445 52.07 232.395 53.12C231.36 54.155 230.115 54.9575 228.66 55.5275C227.205 56.0825 225.593 56.36 223.823 56.36C222.038 56.36 220.41 56.0825 218.94 55.5275C217.485 54.9575 216.225 54.155 215.16 53.12C214.11 52.07 213.293 50.8025 212.708 49.3175C212.138 47.8175 211.853 46.1375 211.853 44.2775C211.853 42.4325 212.138 40.775 212.708 39.305C213.293 37.82 214.11 36.56 215.16 35.525C216.225 34.49 217.485 33.695 218.94 33.14C220.41 32.585 222.038 32.3075 223.823 32.3075ZM223.823 51.185C225.428 51.185 226.605 50.6225 227.355 49.4975C228.12 48.3575 228.503 46.6325 228.503 44.3225C228.503 42.0125 228.12 40.295 227.355 39.17C226.605 38.045 225.428 37.4825 223.823 37.4825C222.173 37.4825 220.965 38.045 220.2 39.17C219.435 40.295 219.053 42.0125 219.053 44.3225C219.053 46.6325 219.435 48.3575 220.2 49.4975C220.965 50.6225 222.173 51.185 223.823 51.185ZM260.14 32.6675V56H255.82C254.95 56 254.38 55.61 254.11 54.83L253.705 53.48C253.255 53.915 252.79 54.3125 252.31 54.6725C251.83 55.0175 251.313 55.3175 250.758 55.5725C250.218 55.8125 249.625 56 248.98 56.135C248.35 56.285 247.66 56.36 246.91 56.36C245.635 56.36 244.503 56.1425 243.513 55.7075C242.538 55.2575 241.713 54.635 241.038 53.84C240.363 53.045 239.853 52.1075 239.508 51.0275C239.163 49.9475 238.99 48.7625 238.99 47.4725V32.6675H245.965V47.4725C245.965 48.6275 246.228 49.52 246.753 50.15C247.278 50.78 248.05 51.095 249.07 51.095C249.835 51.095 250.548 50.9375 251.208 50.6225C251.883 50.2925 252.535 49.85 253.165 49.295V32.6675H260.14ZM271.404 36.2675C272.124 35.0075 272.949 34.0175 273.879 33.2975C274.824 32.5775 275.904 32.2175 277.119 32.2175C278.169 32.2175 279.024 32.465 279.684 32.96L279.234 38.09C279.159 38.42 279.032 38.645 278.852 38.765C278.687 38.885 278.454 38.945 278.154 38.945C278.034 38.945 277.877 38.9375 277.682 38.9225C277.487 38.9075 277.284 38.8925 277.074 38.8775C276.864 38.8475 276.647 38.825 276.422 38.81C276.212 38.78 276.017 38.765 275.837 38.765C274.817 38.765 273.999 39.035 273.384 39.575C272.784 40.115 272.274 40.865 271.854 41.825V56H264.879V32.6675H269.019C269.364 32.6675 269.649 32.6975 269.874 32.7575C270.114 32.8175 270.309 32.915 270.459 33.05C270.624 33.17 270.744 33.335 270.819 33.545C270.909 33.755 270.984 34.01 271.044 34.31L271.404 36.2675ZM300.014 29.0675V36.7175H310.319V42.3425H300.014V50.15H313.469V56H292.364V23.2175H313.469V29.0675H300.014ZM317.327 39.5075H329.477V45.1325H317.327V39.5075ZM357.086 47.5175C357.266 47.5175 357.446 47.555 357.626 47.63C357.806 47.69 357.978 47.8025 358.143 47.9675L361.158 51.14C359.838 52.865 358.181 54.17 356.186 55.055C354.206 55.925 351.858 56.36 349.143 56.36C346.653 56.36 344.418 55.94 342.438 55.1C340.473 54.245 338.801 53.075 337.421 51.59C336.056 50.09 335.006 48.32 334.271 46.28C333.536 44.225 333.168 41.9975 333.168 39.5975C333.168 37.1525 333.566 34.91 334.361 32.87C335.156 30.815 336.273 29.045 337.713 27.56C339.153 26.075 340.878 24.92 342.888 24.095C344.898 23.27 347.111 22.8575 349.526 22.8575C350.756 22.8575 351.911 22.97 352.991 23.195C354.086 23.405 355.106 23.705 356.051 24.095C356.996 24.47 357.866 24.9275 358.661 25.4675C359.456 26.0075 360.161 26.5925 360.776 27.2225L358.211 30.665C358.046 30.875 357.851 31.07 357.626 31.25C357.401 31.415 357.086 31.4975 356.681 31.4975C356.411 31.4975 356.156 31.4375 355.916 31.3175C355.676 31.1975 355.421 31.055 355.151 30.89C354.881 30.71 354.581 30.5225 354.251 30.3275C353.936 30.1175 353.553 29.93 353.103 29.765C352.668 29.585 352.151 29.435 351.551 29.315C350.966 29.195 350.276 29.135 349.481 29.135C348.221 29.135 347.066 29.3675 346.016 29.8325C344.981 30.2975 344.081 30.98 343.316 31.88C342.566 32.765 341.981 33.86 341.561 35.165C341.156 36.455 340.953 37.9325 340.953 39.5975C340.953 41.2775 341.178 42.77 341.628 44.075C342.093 45.38 342.716 46.4825 343.496 47.3825C344.291 48.2675 345.213 48.9425 346.263 49.4075C347.313 49.8725 348.438 50.105 349.638 50.105C350.328 50.105 350.958 50.075 351.528 50.015C352.098 49.94 352.631 49.8275 353.126 49.6775C353.621 49.5125 354.086 49.3025 354.521 49.0475C354.956 48.7775 355.398 48.44 355.848 48.035C356.028 47.885 356.223 47.765 356.433 47.675C356.643 47.57 356.861 47.5175 357.086 47.5175ZM373.94 32.3075C375.71 32.3075 377.322 32.585 378.777 33.14C380.232 33.695 381.477 34.49 382.512 35.525C383.562 36.56 384.372 37.82 384.942 39.305C385.527 40.775 385.82 42.4325 385.82 44.2775C385.82 46.1375 385.527 47.8175 384.942 49.3175C384.372 50.8025 383.562 52.07 382.512 53.12C381.477 54.155 380.232 54.9575 378.777 55.5275C377.322 56.0825 375.71 56.36 373.94 56.36C372.155 56.36 370.527 56.0825 369.057 55.5275C367.602 54.9575 366.342 54.155 365.277 53.12C364.227 52.07 363.41 50.8025 362.825 49.3175C362.255 47.8175 361.97 46.1375 361.97 44.2775C361.97 42.4325 362.255 40.775 362.825 39.305C363.41 37.82 364.227 36.56 365.277 35.525C366.342 34.49 367.602 33.695 369.057 33.14C370.527 32.585 372.155 32.3075 373.94 32.3075ZM373.94 51.185C375.545 51.185 376.722 50.6225 377.472 49.4975C378.237 48.3575 378.62 46.6325 378.62 44.3225C378.62 42.0125 378.237 40.295 377.472 39.17C376.722 38.045 375.545 37.4825 373.94 37.4825C372.29 37.4825 371.082 38.045 370.317 39.17C369.552 40.295 369.17 42.0125 369.17 44.3225C369.17 46.6325 369.552 48.3575 370.317 49.4975C371.082 50.6225 372.29 51.185 373.94 51.185ZM389.332 56V32.6675H393.652C394.522 32.6675 395.092 33.0575 395.362 33.8375L395.745 35.0975C396.135 34.6925 396.54 34.325 396.96 33.995C397.38 33.65 397.83 33.3575 398.31 33.1175C398.805 32.8625 399.33 32.6675 399.885 32.5325C400.455 32.3825 401.077 32.3075 401.752 32.3075C403.162 32.3075 404.325 32.675 405.24 33.41C406.17 34.13 406.875 35.0975 407.355 36.3125C407.745 35.5925 408.217 34.9775 408.772 34.4675C409.342 33.9575 409.95 33.545 410.595 33.23C411.255 32.915 411.945 32.6825 412.665 32.5325C413.4 32.3825 414.127 32.3075 414.847 32.3075C416.182 32.3075 417.367 32.51 418.402 32.915C419.437 33.305 420.3 33.8825 420.99 34.6475C421.695 35.3975 422.227 36.3275 422.587 37.4375C422.947 38.5325 423.127 39.7775 423.127 41.1725V56H416.152V41.1725C416.152 38.7575 415.117 37.55 413.047 37.55C412.102 37.55 411.315 37.865 410.685 38.495C410.07 39.11 409.762 40.0025 409.762 41.1725V56H402.787V41.1725C402.787 39.8375 402.525 38.9 402 38.36C401.475 37.82 400.702 37.55 399.682 37.55C399.052 37.55 398.452 37.6925 397.882 37.9775C397.327 38.2625 396.802 38.645 396.307 39.125V56H389.332ZM427.609 56V32.6675H431.929C432.799 32.6675 433.369 33.0575 433.639 33.8375L434.021 35.0975C434.411 34.6925 434.816 34.325 435.236 33.995C435.656 33.65 436.106 33.3575 436.586 33.1175C437.081 32.8625 437.606 32.6675 438.161 32.5325C438.731 32.3825 439.354 32.3075 440.029 32.3075C441.439 32.3075 442.601 32.675 443.516 33.41C444.446 34.13 445.151 35.0975 445.631 36.3125C446.021 35.5925 446.494 34.9775 447.049 34.4675C447.619 33.9575 448.226 33.545 448.871 33.23C449.531 32.915 450.221 32.6825 450.941 32.5325C451.676 32.3825 452.404 32.3075 453.124 32.3075C454.459 32.3075 455.644 32.51 456.679 32.915C457.714 33.305 458.576 33.8825 459.266 34.6475C459.971 35.3975 460.504 36.3275 460.864 37.4375C461.224 38.5325 461.404 39.7775 461.404 41.1725V56H454.429V41.1725C454.429 38.7575 453.394 37.55 451.324 37.55C450.379 37.55 449.591 37.865 448.961 38.495C448.346 39.11 448.039 40.0025 448.039 41.1725V56H441.064V41.1725C441.064 39.8375 440.801 38.9 440.276 38.36C439.751 37.82 438.979 37.55 437.959 37.55C437.329 37.55 436.729 37.6925 436.159 37.9775C435.604 38.2625 435.079 38.645 434.584 39.125V56H427.609ZM480.397 41.5325C480.397 40.9775 480.322 40.4375 480.172 39.9125C480.037 39.3875 479.805 38.9225 479.475 38.5175C479.16 38.0975 478.74 37.76 478.215 37.505C477.69 37.25 477.052 37.1225 476.302 37.1225C474.982 37.1225 473.947 37.505 473.197 38.27C472.447 39.02 471.952 40.1075 471.712 41.5325H480.397ZM471.622 45.5825C471.847 47.5325 472.44 48.95 473.4 49.835C474.36 50.705 475.597 51.14 477.112 51.14C477.922 51.14 478.62 51.0425 479.205 50.8475C479.79 50.6525 480.307 50.435 480.757 50.195C481.222 49.955 481.642 49.7375 482.017 49.5425C482.407 49.3475 482.812 49.25 483.232 49.25C483.787 49.25 484.207 49.4525 484.492 49.8575L486.517 52.355C485.797 53.18 485.017 53.855 484.177 54.38C483.352 54.89 482.497 55.295 481.612 55.595C480.742 55.88 479.865 56.075 478.98 56.18C478.11 56.3 477.277 56.36 476.482 56.36C474.847 56.36 473.31 56.0975 471.87 55.5725C470.445 55.0325 469.192 54.2375 468.112 53.1875C467.047 52.1375 466.2 50.8325 465.57 49.2725C464.955 47.7125 464.647 45.8975 464.647 43.8275C464.647 42.2675 464.91 40.79 465.435 39.395C465.975 38 466.74 36.7775 467.73 35.7275C468.735 34.6775 469.942 33.845 471.352 33.23C472.777 32.615 474.382 32.3075 476.167 32.3075C477.712 32.3075 479.122 32.5475 480.397 33.0275C481.687 33.5075 482.79 34.205 483.705 35.12C484.635 36.035 485.355 37.16 485.865 38.495C486.39 39.815 486.652 41.315 486.652 42.995C486.652 43.52 486.63 43.9475 486.585 44.2775C486.54 44.6075 486.457 44.87 486.337 45.065C486.217 45.26 486.052 45.395 485.842 45.47C485.647 45.545 485.392 45.5825 485.077 45.5825H471.622ZM496.668 36.2675C497.388 35.0075 498.213 34.0175 499.143 33.2975C500.088 32.5775 501.168 32.2175 502.383 32.2175C503.433 32.2175 504.288 32.465 504.948 32.96L504.498 38.09C504.423 38.42 504.295 38.645 504.115 38.765C503.95 38.885 503.718 38.945 503.418 38.945C503.298 38.945 503.14 38.9375 502.945 38.9225C502.75 38.9075 502.548 38.8925 502.338 38.8775C502.128 38.8475 501.91 38.825 501.685 38.81C501.475 38.78 501.28 38.765 501.1 38.765C500.08 38.765 499.263 39.035 498.648 39.575C498.048 40.115 497.538 40.865 497.118 41.825V56H490.143V32.6675H494.283C494.628 32.6675 494.913 32.6975 495.138 32.7575C495.378 32.8175 495.573 32.915 495.723 33.05C495.888 33.17 496.008 33.335 496.083 33.545C496.173 33.755 496.248 34.01 496.308 34.31L496.668 36.2675ZM524.075 38.2025C523.865 38.4575 523.662 38.66 523.467 38.81C523.272 38.96 522.995 39.035 522.635 39.035C522.29 39.035 521.975 38.9525 521.69 38.7875C521.42 38.6225 521.112 38.4425 520.767 38.2475C520.422 38.0375 520.017 37.85 519.552 37.685C519.087 37.52 518.51 37.4375 517.82 37.4375C516.965 37.4375 516.222 37.595 515.592 37.91C514.977 38.225 514.467 38.675 514.062 39.26C513.657 39.845 513.357 40.565 513.162 41.42C512.967 42.26 512.87 43.2125 512.87 44.2775C512.87 46.5125 513.297 48.23 514.152 49.43C515.022 50.63 516.215 51.23 517.73 51.23C518.54 51.23 519.177 51.1325 519.642 50.9375C520.122 50.7275 520.527 50.5025 520.857 50.2625C521.187 50.0075 521.487 49.775 521.757 49.565C522.042 49.355 522.395 49.25 522.815 49.25C523.37 49.25 523.79 49.4525 524.075 49.8575L526.1 52.355C525.38 53.18 524.622 53.855 523.827 54.38C523.032 54.89 522.215 55.295 521.375 55.595C520.55 55.88 519.717 56.075 518.877 56.18C518.037 56.3 517.22 56.36 516.425 56.36C515 56.36 513.635 56.09 512.33 55.55C511.04 55.01 509.9 54.23 508.91 53.21C507.935 52.175 507.155 50.9075 506.57 49.4075C506 47.9075 505.715 46.1975 505.715 44.2775C505.715 42.5975 505.962 41.03 506.457 39.575C506.967 38.105 507.71 36.8375 508.685 35.7725C509.675 34.6925 510.89 33.845 512.33 33.23C513.785 32.615 515.465 32.3075 517.37 32.3075C519.2 32.3075 520.805 32.6 522.185 33.185C523.565 33.77 524.81 34.625 525.92 35.75L524.075 38.2025ZM542.932 41.5325C542.932 40.9775 542.857 40.4375 542.707 39.9125C542.572 39.3875 542.339 38.9225 542.009 38.5175C541.694 38.0975 541.274 37.76 540.749 37.505C540.224 37.25 539.587 37.1225 538.837 37.1225C537.517 37.1225 536.482 37.505 535.732 38.27C534.982 39.02 534.487 40.1075 534.247 41.5325H542.932ZM534.157 45.5825C534.382 47.5325 534.974 48.95 535.934 49.835C536.894 50.705 538.132 51.14 539.647 51.14C540.457 51.14 541.154 51.0425 541.739 50.8475C542.324 50.6525 542.842 50.435 543.292 50.195C543.757 49.955 544.177 49.7375 544.552 49.5425C544.942 49.3475 545.347 49.25 545.767 49.25C546.322 49.25 546.742 49.4525 547.027 49.8575L549.052 52.355C548.332 53.18 547.552 53.855 546.712 54.38C545.887 54.89 545.032 55.295 544.147 55.595C543.277 55.88 542.399 56.075 541.514 56.18C540.644 56.3 539.812 56.36 539.017 56.36C537.382 56.36 535.844 56.0975 534.404 55.5725C532.979 55.0325 531.727 54.2375 530.647 53.1875C529.582 52.1375 528.734 50.8325 528.104 49.2725C527.489 47.7125 527.182 45.8975 527.182 43.8275C527.182 42.2675 527.444 40.79 527.969 39.395C528.509 38 529.274 36.7775 530.264 35.7275C531.269 34.6775 532.477 33.845 533.887 33.23C535.312 32.615 536.917 32.3075 538.702 32.3075C540.247 32.3075 541.657 32.5475 542.932 33.0275C544.222 33.5075 545.324 34.205 546.239 35.12C547.169 36.035 547.889 37.16 548.399 38.495C548.924 39.815 549.187 41.315 549.187 42.995C549.187 43.52 549.164 43.9475 549.119 44.2775C549.074 44.6075 548.992 44.87 548.872 45.065C548.752 45.26 548.587 45.395 548.377 45.47C548.182 45.545 547.927 45.5825 547.612 45.5825H534.157ZM576.862 50.2625C577.867 50.2625 578.684 50.135 579.314 49.88C579.959 49.625 580.462 49.295 580.822 48.89C581.182 48.485 581.429 48.0275 581.564 47.5175C581.699 47.0075 581.767 46.49 581.767 45.965C581.767 45.365 581.684 44.825 581.519 44.345C581.369 43.865 581.099 43.46 580.709 43.13C580.334 42.8 579.832 42.545 579.202 42.365C578.572 42.185 577.777 42.095 576.817 42.095H571.507V50.2625H576.862ZM571.507 28.91V37.01H575.467C576.307 37.01 577.064 36.95 577.739 36.83C578.414 36.71 578.984 36.5 579.449 36.2C579.929 35.9 580.289 35.4875 580.529 34.9625C580.784 34.4375 580.912 33.7775 580.912 32.9825C580.912 32.2025 580.814 31.5575 580.619 31.0475C580.424 30.5225 580.124 30.1025 579.719 29.7875C579.314 29.4725 578.797 29.2475 578.167 29.1125C577.552 28.9775 576.817 28.91 575.962 28.91H571.507ZM575.962 23.2175C578.227 23.2175 580.154 23.4275 581.744 23.8475C583.334 24.2675 584.632 24.86 585.637 25.625C586.642 26.39 587.369 27.32 587.819 28.415C588.284 29.51 588.517 30.7325 588.517 32.0825C588.517 32.8175 588.412 33.53 588.202 34.22C587.992 34.895 587.662 35.5325 587.212 36.1325C586.762 36.7175 586.184 37.2575 585.479 37.7525C584.774 38.2475 583.927 38.675 582.937 39.035C585.097 39.56 586.694 40.4075 587.729 41.5775C588.764 42.7475 589.282 44.2625 589.282 46.1225C589.282 47.5175 589.012 48.815 588.472 50.015C587.932 51.215 587.137 52.265 586.087 53.165C585.052 54.05 583.769 54.7475 582.239 55.2575C580.709 55.7525 578.962 56 576.997 56H563.902V23.2175H575.962ZM599.368 36.2675C600.088 35.0075 600.913 34.0175 601.843 33.2975C602.788 32.5775 603.868 32.2175 605.083 32.2175C606.133 32.2175 606.988 32.465 607.648 32.96L607.198 38.09C607.123 38.42 606.995 38.645 606.815 38.765C606.65 38.885 606.418 38.945 606.118 38.945C605.998 38.945 605.84 38.9375 605.645 38.9225C605.45 38.9075 605.248 38.8925 605.038 38.8775C604.828 38.8475 604.61 38.825 604.385 38.81C604.175 38.78 603.98 38.765 603.8 38.765C602.78 38.765 601.963 39.035 601.348 39.575C600.748 40.115 600.238 40.865 599.818 41.825V56H592.843V32.6675H596.983C597.328 32.6675 597.613 32.6975 597.838 32.7575C598.078 32.8175 598.273 32.915 598.423 33.05C598.588 33.17 598.708 33.335 598.783 33.545C598.873 33.755 598.948 34.01 599.008 34.31L599.368 36.2675ZM621.843 46.505C620.448 46.565 619.301 46.685 618.401 46.865C617.501 47.045 616.788 47.27 616.263 47.54C615.738 47.81 615.371 48.1175 615.161 48.4625C614.966 48.8075 614.868 49.1825 614.868 49.5875C614.868 50.3825 615.086 50.945 615.521 51.275C615.956 51.59 616.593 51.7475 617.433 51.7475C618.333 51.7475 619.121 51.59 619.796 51.275C620.471 50.96 621.153 50.45 621.843 49.745V46.505ZM609.288 35.9075C610.698 34.6625 612.258 33.74 613.968 33.14C615.693 32.525 617.538 32.2175 619.503 32.2175C620.913 32.2175 622.181 32.45 623.306 32.915C624.446 33.365 625.406 34.0025 626.186 34.8275C626.981 35.6375 627.588 36.605 628.008 37.73C628.428 38.855 628.638 40.085 628.638 41.42V56H625.443C624.783 56 624.281 55.91 623.936 55.73C623.606 55.55 623.328 55.175 623.103 54.605L622.608 53.3225C622.023 53.8175 621.461 54.2525 620.921 54.6275C620.381 55.0025 619.818 55.325 619.233 55.595C618.663 55.85 618.048 56.0375 617.388 56.1575C616.743 56.2925 616.023 56.36 615.228 56.36C614.163 56.36 613.196 56.225 612.326 55.955C611.456 55.67 610.713 55.2575 610.098 54.7175C609.498 54.1775 609.033 53.51 608.703 52.715C608.373 51.905 608.208 50.975 608.208 49.925C608.208 49.085 608.418 48.2375 608.838 47.3825C609.258 46.5125 609.986 45.725 611.021 45.02C612.056 44.3 613.451 43.7 615.206 43.22C616.961 42.74 619.173 42.47 621.843 42.41V41.42C621.843 40.055 621.558 39.0725 620.988 38.4725C620.433 37.8575 619.638 37.55 618.603 37.55C617.778 37.55 617.103 37.64 616.578 37.82C616.053 38 615.581 38.2025 615.161 38.4275C614.756 38.6525 614.358 38.855 613.968 39.035C613.578 39.215 613.113 39.305 612.573 39.305C612.093 39.305 611.688 39.185 611.358 38.945C611.028 38.705 610.758 38.42 610.548 38.09L609.288 35.9075ZM639.532 35.1875C639.982 34.7675 640.447 34.3775 640.927 34.0175C641.407 33.6575 641.917 33.3575 642.457 33.1175C643.012 32.8625 643.604 32.6675 644.234 32.5325C644.879 32.3825 645.577 32.3075 646.327 32.3075C647.602 32.3075 648.727 32.5325 649.702 32.9825C650.692 33.4175 651.524 34.0325 652.199 34.8275C652.874 35.6075 653.384 36.545 653.729 37.64C654.074 38.72 654.247 39.8975 654.247 41.1725V56H647.272V41.1725C647.272 40.0325 647.009 39.1475 646.484 38.5175C645.959 37.8725 645.187 37.55 644.167 37.55C643.402 37.55 642.682 37.715 642.007 38.045C641.347 38.36 640.702 38.795 640.072 39.35V56H633.097V32.6675H637.417C638.287 32.6675 638.857 33.0575 639.127 33.8375L639.532 35.1875ZM672.913 38.9225C672.388 38.3375 671.818 37.9325 671.203 37.7075C670.588 37.4675 669.943 37.3475 669.268 37.3475C668.623 37.3475 668.031 37.475 667.491 37.73C666.951 37.985 666.478 38.3975 666.073 38.9675C665.683 39.5225 665.376 40.25 665.151 41.15C664.926 42.05 664.813 43.1375 664.813 44.4125C664.813 45.6425 664.903 46.6775 665.083 47.5175C665.263 48.3575 665.511 49.04 665.826 49.565C666.156 50.075 666.546 50.4425 666.996 50.6675C667.446 50.8925 667.948 51.005 668.503 51.005C669.013 51.005 669.471 50.96 669.876 50.87C670.296 50.765 670.678 50.6225 671.023 50.4425C671.368 50.2625 671.691 50.0375 671.991 49.7675C672.306 49.4825 672.613 49.16 672.913 48.8V38.9225ZM679.888 22.3175V56H675.568C674.698 56 674.128 55.61 673.858 54.83L673.318 53.0525C672.853 53.5475 672.366 53.9975 671.856 54.4025C671.346 54.8075 670.791 55.16 670.191 55.46C669.606 55.745 668.968 55.9625 668.278 56.1125C667.603 56.2775 666.868 56.36 666.073 56.36C664.858 56.36 663.733 56.09 662.698 55.55C661.663 55.01 660.771 54.23 660.021 53.21C659.271 52.19 658.678 50.945 658.243 49.475C657.823 47.99 657.613 46.3025 657.613 44.4125C657.613 42.6725 657.853 41.06 658.333 39.575C658.813 38.075 659.488 36.785 660.358 35.705C661.243 34.61 662.301 33.755 663.531 33.14C664.761 32.525 666.118 32.2175 667.603 32.2175C668.818 32.2175 669.838 32.39 670.663 32.735C671.488 33.08 672.238 33.545 672.913 34.13V22.3175H679.888ZM740.488 23.2175L730.363 56H723.478L717.313 35.6825C717.193 35.3675 717.081 35.0225 716.976 34.6475C716.871 34.2575 716.766 33.8525 716.661 33.4325C716.556 33.8525 716.451 34.2575 716.346 34.6475C716.241 35.0225 716.128 35.3675 716.008 35.6825L709.753 56H702.868L692.743 23.2175H699.133C699.793 23.2175 700.341 23.3675 700.776 23.6675C701.226 23.9675 701.518 24.365 701.653 24.86L706.153 41.96C706.288 42.5 706.423 43.0925 706.558 43.7375C706.693 44.3675 706.828 45.0275 706.963 45.7175C707.233 44.3075 707.563 43.055 707.953 41.96L713.263 24.86C713.398 24.44 713.683 24.065 714.118 23.735C714.568 23.39 715.108 23.2175 715.738 23.2175H717.988C718.648 23.2175 719.181 23.375 719.586 23.69C719.991 23.99 720.298 24.38 720.508 24.86L725.773 41.96C726.163 43.01 726.493 44.2025 726.763 45.5375C726.883 44.8625 727.003 44.2325 727.123 43.6475C727.258 43.0475 727.393 42.485 727.528 41.96L732.028 24.86C732.148 24.425 732.433 24.0425 732.883 23.7125C733.333 23.3825 733.873 23.2175 734.503 23.2175H740.488ZM749.785 32.6675V56H742.81V32.6675H749.785ZM750.505 26.2775C750.505 26.8325 750.393 27.3575 750.168 27.8525C749.943 28.3325 749.635 28.76 749.245 29.135C748.855 29.495 748.398 29.7875 747.873 30.0125C747.363 30.2225 746.815 30.3275 746.23 30.3275C745.66 30.3275 745.128 30.2225 744.633 30.0125C744.138 29.7875 743.695 29.495 743.305 29.135C742.93 28.76 742.63 28.3325 742.405 27.8525C742.195 27.3575 742.09 26.8325 742.09 26.2775C742.09 25.7075 742.195 25.175 742.405 24.68C742.63 24.185 742.93 23.75 743.305 23.375C743.695 23 744.138 22.7075 744.633 22.4975C745.128 22.2875 745.66 22.1825 746.23 22.1825C746.815 22.1825 747.363 22.2875 747.873 22.4975C748.398 22.7075 748.855 23 749.245 23.375C749.635 23.75 749.943 24.185 750.168 24.68C750.393 25.175 750.505 25.7075 750.505 26.2775ZM762.997 56.36C761.887 56.36 760.905 56.2025 760.05 55.8875C759.21 55.5575 758.497 55.1 757.912 54.515C757.342 53.915 756.907 53.195 756.607 52.355C756.307 51.515 756.157 50.5775 756.157 49.5425V37.4825H754.177C753.817 37.4825 753.51 37.37 753.255 37.145C753 36.905 752.872 36.56 752.872 36.11V33.3875L756.585 32.6675L757.957 26.975C758.137 26.255 758.647 25.895 759.487 25.895H763.132V32.7125H768.915V37.4825H763.132V49.07C763.132 49.61 763.26 50.06 763.515 50.42C763.785 50.765 764.167 50.9375 764.662 50.9375C764.917 50.9375 765.127 50.915 765.292 50.87C765.472 50.81 765.622 50.75 765.742 50.69C765.877 50.615 765.997 50.555 766.102 50.51C766.222 50.45 766.357 50.42 766.507 50.42C766.717 50.42 766.882 50.4725 767.002 50.5775C767.137 50.6675 767.272 50.8175 767.407 51.0275L769.522 54.335C768.622 55.01 767.61 55.52 766.485 55.865C765.36 56.195 764.197 56.36 762.997 56.36ZM778.895 34.715C779.735 33.995 780.643 33.4175 781.618 32.9825C782.608 32.5325 783.785 32.3075 785.15 32.3075C786.425 32.3075 787.55 32.5325 788.525 32.9825C789.515 33.4175 790.348 34.0325 791.023 34.8275C791.698 35.6075 792.208 36.545 792.553 37.64C792.898 38.72 793.07 39.8975 793.07 41.1725V56H786.095V41.1725C786.095 40.0325 785.833 39.1475 785.308 38.5175C784.783 37.8725 784.01 37.55 782.99 37.55C782.225 37.55 781.505 37.715 780.83 38.045C780.17 38.36 779.525 38.795 778.895 39.35V56H771.92V22.3175H778.895V34.715ZM507.571 100.217V133H500.866V114.145C500.866 113.71 500.873 113.237 500.888 112.727C500.918 112.217 500.963 111.7 501.023 111.175L492.316 128.027C492.046 128.552 491.678 128.95 491.213 129.22C490.763 129.49 490.246 129.625 489.661 129.625H488.626C488.041 129.625 487.516 129.49 487.051 129.22C486.601 128.95 486.241 128.552 485.971 128.027L477.263 111.13C477.308 111.67 477.346 112.202 477.376 112.727C477.406 113.237 477.421 113.71 477.421 114.145V133H470.716V100.217H476.521C476.851 100.217 477.136 100.225 477.376 100.24C477.631 100.255 477.856 100.3 478.051 100.375C478.246 100.45 478.418 100.57 478.568 100.735C478.733 100.885 478.891 101.102 479.041 101.387L487.478 118.015C487.778 118.585 488.063 119.177 488.333 119.792C488.618 120.407 488.888 121.037 489.143 121.682C489.398 121.022 489.661 120.377 489.931 119.747C490.216 119.117 490.516 118.517 490.831 117.947L499.246 101.387C499.396 101.102 499.546 100.885 499.696 100.735C499.861 100.57 500.041 100.45 500.236 100.375C500.431 100.3 500.648 100.255 500.888 100.24C501.143 100.225 501.436 100.217 501.766 100.217H507.571ZM524.658 123.505C523.263 123.565 522.116 123.685 521.216 123.865C520.316 124.045 519.603 124.27 519.078 124.54C518.553 124.81 518.186 125.117 517.976 125.462C517.781 125.807 517.683 126.182 517.683 126.587C517.683 127.382 517.901 127.945 518.336 128.275C518.771 128.59 519.408 128.747 520.248 128.747C521.148 128.747 521.936 128.59 522.611 128.275C523.286 127.96 523.968 127.45 524.658 126.745V123.505ZM512.103 112.907C513.513 111.662 515.073 110.74 516.783 110.14C518.508 109.525 520.353 109.217 522.318 109.217C523.728 109.217 524.996 109.45 526.121 109.915C527.261 110.365 528.221 111.002 529.001 111.827C529.796 112.637 530.403 113.605 530.823 114.73C531.243 115.855 531.453 117.085 531.453 118.42V133H528.258C527.598 133 527.096 132.91 526.751 132.73C526.421 132.55 526.143 132.175 525.918 131.605L525.423 130.322C524.838 130.817 524.276 131.252 523.736 131.627C523.196 132.002 522.633 132.325 522.048 132.595C521.478 132.85 520.863 133.038 520.203 133.158C519.558 133.293 518.838 133.36 518.043 133.36C516.978 133.36 516.011 133.225 515.141 132.955C514.271 132.67 513.528 132.257 512.913 131.717C512.313 131.177 511.848 130.51 511.518 129.715C511.188 128.905 511.023 127.975 511.023 126.925C511.023 126.085 511.233 125.237 511.653 124.382C512.073 123.512 512.801 122.725 513.836 122.02C514.871 121.3 516.266 120.7 518.021 120.22C519.776 119.74 521.988 119.47 524.658 119.41V118.42C524.658 117.055 524.373 116.072 523.803 115.472C523.248 114.857 522.453 114.55 521.418 114.55C520.593 114.55 519.918 114.64 519.393 114.82C518.868 115 518.396 115.202 517.976 115.427C517.571 115.652 517.173 115.855 516.783 116.035C516.393 116.215 515.928 116.305 515.388 116.305C514.908 116.305 514.503 116.185 514.173 115.945C513.843 115.705 513.573 115.42 513.363 115.09L512.103 112.907ZM542.437 113.267C543.157 112.007 543.982 111.017 544.912 110.297C545.857 109.577 546.937 109.217 548.152 109.217C549.202 109.217 550.057 109.465 550.717 109.96L550.267 115.09C550.192 115.42 550.064 115.645 549.884 115.765C549.719 115.885 549.487 115.945 549.187 115.945C549.067 115.945 548.909 115.937 548.714 115.922C548.519 115.907 548.317 115.892 548.107 115.877C547.897 115.847 547.679 115.825 547.454 115.81C547.244 115.78 547.049 115.765 546.869 115.765C545.849 115.765 545.032 116.035 544.417 116.575C543.817 117.115 543.307 117.865 542.887 118.825V133H535.912V109.667H540.052C540.397 109.667 540.682 109.697 540.907 109.758C541.147 109.817 541.342 109.915 541.492 110.05C541.657 110.17 541.777 110.335 541.852 110.545C541.942 110.755 542.017 111.01 542.077 111.31L542.437 113.267ZM560.069 99.3175V118.195H561.104C561.539 118.195 561.869 118.135 562.094 118.015C562.319 117.88 562.544 117.662 562.769 117.362L567.179 110.792C567.449 110.417 567.757 110.14 568.102 109.96C568.447 109.765 568.889 109.667 569.429 109.667H575.819L569.789 117.97C569.219 118.72 568.544 119.335 567.764 119.815C568.109 120.07 568.424 120.37 568.709 120.715C568.994 121.045 569.264 121.42 569.519 121.84L576.089 133H569.789C569.264 133 568.814 132.917 568.439 132.752C568.064 132.572 567.749 132.265 567.494 131.83L563.084 123.572C562.874 123.197 562.657 122.957 562.432 122.852C562.207 122.732 561.869 122.672 561.419 122.672H560.069V133H553.094V99.3175H560.069ZM591.689 118.532C591.689 117.977 591.614 117.437 591.464 116.912C591.329 116.387 591.096 115.922 590.766 115.517C590.451 115.097 590.031 114.76 589.506 114.505C588.981 114.25 588.344 114.122 587.594 114.122C586.274 114.122 585.239 114.505 584.489 115.27C583.739 116.02 583.244 117.107 583.004 118.532H591.689ZM582.914 122.582C583.139 124.532 583.731 125.95 584.691 126.835C585.651 127.705 586.889 128.14 588.404 128.14C589.214 128.14 589.911 128.042 590.496 127.847C591.081 127.652 591.599 127.435 592.049 127.195C592.514 126.955 592.934 126.737 593.309 126.542C593.699 126.347 594.104 126.25 594.524 126.25C595.079 126.25 595.499 126.452 595.784 126.857L597.809 129.355C597.089 130.18 596.309 130.855 595.469 131.38C594.644 131.89 593.789 132.295 592.904 132.595C592.034 132.88 591.156 133.075 590.271 133.18C589.401 133.3 588.569 133.36 587.774 133.36C586.139 133.36 584.601 133.098 583.161 132.572C581.736 132.032 580.484 131.237 579.404 130.188C578.339 129.137 577.491 127.832 576.861 126.272C576.246 124.712 575.939 122.897 575.939 120.827C575.939 119.267 576.201 117.79 576.726 116.395C577.266 115 578.031 113.777 579.021 112.727C580.026 111.677 581.234 110.845 582.644 110.23C584.069 109.615 585.674 109.307 587.459 109.307C589.004 109.307 590.414 109.547 591.689 110.027C592.979 110.507 594.081 111.205 594.996 112.12C595.926 113.035 596.646 114.16 597.156 115.495C597.681 116.815 597.944 118.315 597.944 119.995C597.944 120.52 597.921 120.947 597.876 121.277C597.831 121.607 597.749 121.87 597.629 122.065C597.509 122.26 597.344 122.395 597.134 122.47C596.939 122.545 596.684 122.582 596.369 122.582H582.914ZM626.349 133H619.374V114.482H609.609V126.07C609.609 126.61 609.737 127.06 609.992 127.42C610.262 127.765 610.644 127.937 611.139 127.937C611.394 127.937 611.604 127.915 611.769 127.87C611.949 127.81 612.099 127.75 612.219 127.69C612.354 127.615 612.474 127.555 612.579 127.51C612.699 127.45 612.834 127.42 612.984 127.42C613.194 127.42 613.359 127.472 613.479 127.577C613.614 127.667 613.749 127.817 613.884 128.027L615.999 131.335C615.099 132.01 614.087 132.52 612.962 132.865C611.837 133.195 610.674 133.36 609.474 133.36C608.364 133.36 607.382 133.203 606.527 132.887C605.687 132.557 604.974 132.1 604.389 131.515C603.819 130.915 603.384 130.195 603.084 129.355C602.784 128.515 602.634 127.577 602.634 126.542V114.482H600.654C600.294 114.482 599.987 114.37 599.732 114.145C599.477 113.905 599.349 113.56 599.349 113.11V110.388L603.062 109.645L604.434 103.975C604.614 103.255 605.124 102.895 605.964 102.895H609.609V109.712H626.349V133ZM627.317 103.255C627.317 103.81 627.204 104.335 626.979 104.83C626.754 105.325 626.447 105.76 626.057 106.135C625.667 106.495 625.209 106.78 624.684 106.99C624.174 107.2 623.627 107.305 623.042 107.305C622.472 107.305 621.939 107.2 621.444 106.99C620.949 106.78 620.507 106.495 620.117 106.135C619.742 105.76 619.442 105.325 619.217 104.83C619.007 104.335 618.902 103.81 618.902 103.255C618.902 102.7 619.007 102.175 619.217 101.68C619.442 101.17 619.742 100.735 620.117 100.375C620.507 100 620.949 99.7075 621.444 99.4975C621.939 99.2725 622.472 99.16 623.042 99.16C623.627 99.16 624.174 99.2725 624.684 99.4975C625.209 99.7075 625.667 100 626.057 100.375C626.447 100.735 626.754 101.17 626.979 101.68C627.204 102.175 627.317 102.7 627.317 103.255ZM637.664 112.187C638.114 111.767 638.579 111.377 639.059 111.017C639.539 110.657 640.049 110.357 640.589 110.117C641.144 109.862 641.737 109.667 642.367 109.532C643.012 109.382 643.709 109.307 644.459 109.307C645.734 109.307 646.859 109.532 647.834 109.982C648.824 110.417 649.657 111.032 650.332 111.827C651.007 112.607 651.517 113.545 651.862 114.64C652.207 115.72 652.379 116.897 652.379 118.172V133H645.404V118.172C645.404 117.032 645.142 116.147 644.617 115.517C644.092 114.872 643.319 114.55 642.299 114.55C641.534 114.55 640.814 114.715 640.139 115.045C639.479 115.36 638.834 115.795 638.204 116.35V133H631.229V109.667H635.549C636.419 109.667 636.989 110.057 637.259 110.837L637.664 112.187ZM665.781 120.107C666.936 120.107 667.768 119.822 668.278 119.252C668.803 118.667 669.066 117.917 669.066 117.002C669.066 116.057 668.803 115.315 668.278 114.775C667.768 114.235 666.936 113.965 665.781 113.965C664.626 113.965 663.786 114.235 663.261 114.775C662.751 115.315 662.496 116.057 662.496 117.002C662.496 117.452 662.556 117.865 662.676 118.24C662.811 118.615 663.013 118.945 663.283 119.23C663.553 119.5 663.891 119.717 664.296 119.882C664.716 120.032 665.211 120.107 665.781 120.107ZM671.181 133.855C671.181 133.3 670.933 132.902 670.438 132.662C669.943 132.407 669.298 132.227 668.503 132.122C667.708 132.017 666.816 131.957 665.826 131.942C664.851 131.912 663.876 131.852 662.901 131.762C662.466 132.062 662.106 132.4 661.821 132.775C661.551 133.135 661.416 133.548 661.416 134.013C661.416 134.343 661.483 134.643 661.618 134.913C661.768 135.183 662.023 135.415 662.383 135.61C662.743 135.805 663.223 135.955 663.823 136.06C664.438 136.18 665.211 136.24 666.141 136.24C667.146 136.24 667.971 136.18 668.616 136.06C669.261 135.94 669.771 135.775 670.146 135.565C670.536 135.355 670.806 135.1 670.956 134.8C671.106 134.515 671.181 134.2 671.181 133.855ZM678.066 110.388V112.93C678.066 113.32 677.953 113.627 677.728 113.852C677.518 114.077 677.151 114.25 676.626 114.37L674.938 114.752C675.028 115.082 675.096 115.42 675.141 115.765C675.201 116.11 675.231 116.47 675.231 116.845C675.231 118.015 674.983 119.065 674.488 119.995C674.008 120.925 673.341 121.72 672.486 122.38C671.646 123.025 670.648 123.527 669.493 123.887C668.338 124.232 667.101 124.405 665.781 124.405C665.421 124.405 665.068 124.397 664.723 124.382C664.378 124.352 664.041 124.307 663.711 124.247C663.201 124.562 662.946 124.915 662.946 125.305C662.946 125.695 663.156 125.98 663.576 126.16C663.996 126.325 664.551 126.445 665.241 126.52C665.931 126.58 666.711 126.625 667.581 126.655C668.466 126.67 669.366 126.722 670.281 126.812C671.196 126.887 672.088 127.022 672.958 127.218C673.843 127.412 674.631 127.727 675.321 128.162C676.011 128.597 676.566 129.182 676.986 129.917C677.406 130.637 677.616 131.56 677.616 132.685C677.616 133.735 677.361 134.763 676.851 135.768C676.341 136.773 675.591 137.665 674.601 138.445C673.611 139.225 672.396 139.848 670.956 140.313C669.516 140.793 667.866 141.033 666.006 141.033C664.176 141.033 662.593 140.86 661.258 140.515C659.938 140.17 658.836 139.713 657.951 139.143C657.081 138.588 656.436 137.943 656.016 137.208C655.596 136.473 655.386 135.708 655.386 134.913C655.386 133.878 655.686 133.015 656.286 132.325C656.886 131.635 657.726 131.08 658.806 130.66C658.236 130.315 657.786 129.872 657.456 129.332C657.126 128.792 656.961 128.095 656.961 127.24C656.961 126.895 657.021 126.535 657.141 126.16C657.261 125.77 657.448 125.395 657.703 125.035C657.973 124.66 658.303 124.307 658.693 123.977C659.083 123.647 659.548 123.355 660.088 123.1C658.873 122.455 657.913 121.607 657.208 120.557C656.503 119.492 656.151 118.255 656.151 116.845C656.151 115.675 656.398 114.625 656.893 113.695C657.388 112.75 658.063 111.955 658.918 111.31C659.788 110.65 660.808 110.147 661.978 109.802C663.148 109.442 664.416 109.262 665.781 109.262C667.761 109.262 669.516 109.637 671.046 110.388H678.066Z" fill="black"/>
<path d="M138.672 106.877C138.447 107.237 138.207 107.507 137.952 107.688C137.712 107.867 137.397 107.957 137.007 107.957C136.662 107.957 136.287 107.852 135.882 107.642C135.492 107.417 135.042 107.17 134.532 106.9C134.037 106.63 133.467 106.39 132.822 106.18C132.177 105.955 131.442 105.842 130.617 105.842C129.192 105.842 128.127 106.15 127.422 106.765C126.732 107.365 126.387 108.182 126.387 109.217C126.387 109.877 126.597 110.425 127.017 110.86C127.437 111.295 127.985 111.67 128.66 111.985C129.35 112.3 130.13 112.592 131 112.862C131.885 113.117 132.785 113.41 133.7 113.74C134.615 114.055 135.507 114.43 136.377 114.865C137.262 115.3 138.042 115.855 138.717 116.53C139.407 117.205 139.962 118.03 140.382 119.005C140.802 119.965 141.012 121.127 141.012 122.492C141.012 124.007 140.75 125.425 140.225 126.745C139.7 128.065 138.935 129.22 137.93 130.21C136.94 131.185 135.71 131.957 134.24 132.527C132.785 133.082 131.127 133.36 129.267 133.36C128.247 133.36 127.205 133.255 126.14 133.045C125.09 132.835 124.07 132.542 123.08 132.167C122.09 131.777 121.16 131.32 120.29 130.795C119.42 130.27 118.662 129.685 118.017 129.04L120.267 125.485C120.447 125.23 120.68 125.02 120.965 124.855C121.265 124.675 121.587 124.585 121.932 124.585C122.382 124.585 122.832 124.727 123.282 125.012C123.747 125.297 124.265 125.612 124.835 125.957C125.42 126.302 126.087 126.617 126.837 126.902C127.587 127.187 128.472 127.33 129.492 127.33C130.872 127.33 131.945 127.03 132.71 126.43C133.475 125.815 133.857 124.847 133.857 123.527C133.857 122.762 133.647 122.14 133.227 121.66C132.807 121.18 132.252 120.782 131.562 120.467C130.887 120.152 130.115 119.875 129.245 119.635C128.375 119.395 127.482 119.132 126.567 118.847C125.652 118.547 124.76 118.187 123.89 117.767C123.02 117.332 122.24 116.77 121.55 116.08C120.875 115.375 120.327 114.505 119.907 113.47C119.487 112.42 119.277 111.13 119.277 109.6C119.277 108.37 119.525 107.17 120.02 106C120.515 104.83 121.242 103.787 122.202 102.872C123.162 101.957 124.34 101.23 125.735 100.69C127.13 100.135 128.727 99.8575 130.527 99.8575C131.532 99.8575 132.507 99.94 133.452 100.105C134.412 100.255 135.32 100.487 136.175 100.802C137.03 101.102 137.825 101.47 138.56 101.905C139.31 102.325 139.977 102.805 140.562 103.345L138.672 106.877ZM177.652 116.597C177.652 118.967 177.239 121.172 176.414 123.212C175.604 125.252 174.457 127.03 172.972 128.545C171.487 130.045 169.694 131.222 167.594 132.077C165.509 132.933 163.192 133.36 160.642 133.36C158.092 133.36 155.767 132.933 153.667 132.077C151.567 131.222 149.767 130.045 148.267 128.545C146.782 127.03 145.627 125.252 144.802 123.212C143.992 121.172 143.587 118.967 143.587 116.597C143.587 114.227 143.992 112.022 144.802 109.982C145.627 107.942 146.782 106.172 148.267 104.672C149.767 103.172 151.567 101.995 153.667 101.14C155.767 100.285 158.092 99.8575 160.642 99.8575C163.192 99.8575 165.509 100.292 167.594 101.162C169.694 102.017 171.487 103.195 172.972 104.695C174.457 106.195 175.604 107.965 176.414 110.005C177.239 112.045 177.652 114.242 177.652 116.597ZM169.867 116.597C169.867 114.977 169.657 113.522 169.237 112.232C168.817 110.927 168.209 109.825 167.414 108.925C166.634 108.025 165.674 107.335 164.534 106.855C163.394 106.375 162.097 106.135 160.642 106.135C159.172 106.135 157.859 106.375 156.704 106.855C155.564 107.335 154.597 108.025 153.802 108.925C153.022 109.825 152.422 110.927 152.002 112.232C151.582 113.522 151.372 114.977 151.372 116.597C151.372 118.232 151.582 119.702 152.002 121.007C152.422 122.297 153.022 123.392 153.802 124.292C154.597 125.192 155.564 125.882 156.704 126.362C157.859 126.827 159.172 127.06 160.642 127.06C162.097 127.06 163.394 126.827 164.534 126.362C165.674 125.882 166.634 125.192 167.414 124.292C168.209 123.392 168.817 122.297 169.237 121.007C169.657 119.702 169.867 118.232 169.867 116.597ZM204.222 124.517C204.402 124.517 204.582 124.555 204.762 124.63C204.942 124.69 205.115 124.802 205.28 124.967L208.295 128.14C206.975 129.865 205.317 131.17 203.322 132.055C201.342 132.925 198.995 133.36 196.28 133.36C193.79 133.36 191.555 132.94 189.575 132.1C187.61 131.245 185.937 130.075 184.557 128.59C183.192 127.09 182.142 125.32 181.407 123.28C180.672 121.225 180.305 118.997 180.305 116.597C180.305 114.152 180.702 111.91 181.497 109.87C182.292 107.815 183.41 106.045 184.85 104.56C186.29 103.075 188.015 101.92 190.025 101.095C192.035 100.27 194.247 99.8575 196.662 99.8575C197.892 99.8575 199.047 99.97 200.127 100.195C201.222 100.405 202.242 100.705 203.187 101.095C204.132 101.47 205.002 101.927 205.797 102.467C206.592 103.007 207.297 103.592 207.912 104.222L205.347 107.665C205.182 107.875 204.987 108.07 204.762 108.25C204.537 108.415 204.222 108.497 203.817 108.497C203.547 108.497 203.292 108.437 203.052 108.317C202.812 108.197 202.557 108.055 202.287 107.89C202.017 107.71 201.717 107.522 201.387 107.327C201.072 107.117 200.69 106.93 200.24 106.765C199.805 106.585 199.287 106.435 198.687 106.315C198.102 106.195 197.412 106.135 196.617 106.135C195.357 106.135 194.202 106.367 193.152 106.832C192.117 107.297 191.217 107.98 190.452 108.88C189.702 109.765 189.117 110.86 188.697 112.165C188.292 113.455 188.09 114.932 188.09 116.597C188.09 118.277 188.315 119.77 188.765 121.075C189.23 122.38 189.852 123.482 190.632 124.382C191.427 125.267 192.35 125.942 193.4 126.407C194.45 126.872 195.575 127.105 196.775 127.105C197.465 127.105 198.095 127.075 198.665 127.015C199.235 126.94 199.767 126.827 200.262 126.677C200.757 126.512 201.222 126.302 201.657 126.047C202.092 125.777 202.535 125.44 202.985 125.035C203.165 124.885 203.36 124.765 203.57 124.675C203.78 124.57 203.997 124.517 204.222 124.517ZM219.264 133H211.614V100.217H219.264V133ZM242.914 120.467L239.877 111.49C239.652 110.92 239.412 110.252 239.157 109.487C238.902 108.707 238.647 107.867 238.392 106.967C238.167 107.882 237.927 108.73 237.672 109.51C237.417 110.29 237.177 110.965 236.952 111.535L233.937 120.467H242.914ZM254.997 133H249.102C248.442 133 247.909 132.85 247.504 132.55C247.099 132.235 246.792 131.837 246.582 131.357L244.647 125.642H232.182L230.247 131.357C230.082 131.777 229.782 132.16 229.347 132.505C228.927 132.835 228.402 133 227.772 133H221.832L234.522 100.217H242.307L254.997 133ZM277.336 126.925V133H257.581V100.217H265.186V126.925H277.336ZM327.132 100.217V133H320.427V114.145C320.427 113.71 320.434 113.237 320.449 112.727C320.479 112.217 320.524 111.7 320.584 111.175L311.877 128.027C311.607 128.552 311.239 128.95 310.774 129.22C310.324 129.49 309.807 129.625 309.222 129.625H308.187C307.602 129.625 307.077 129.49 306.612 129.22C306.162 128.95 305.802 128.552 305.532 128.027L296.824 111.13C296.869 111.67 296.907 112.202 296.937 112.727C296.967 113.237 296.982 113.71 296.982 114.145V133H290.277V100.217H296.082C296.412 100.217 296.697 100.225 296.937 100.24C297.192 100.255 297.417 100.3 297.612 100.375C297.807 100.45 297.979 100.57 298.129 100.735C298.294 100.885 298.452 101.102 298.602 101.387L307.039 118.015C307.339 118.585 307.624 119.177 307.894 119.792C308.179 120.407 308.449 121.037 308.704 121.682C308.959 121.022 309.222 120.377 309.492 119.747C309.777 119.117 310.077 118.517 310.392 117.947L318.807 101.387C318.957 101.102 319.107 100.885 319.257 100.735C319.422 100.57 319.602 100.45 319.797 100.375C319.992 100.3 320.209 100.255 320.449 100.24C320.704 100.225 320.997 100.217 321.327 100.217H327.132ZM341.125 106.067V113.717H351.43V119.342H341.125V127.15H354.58V133H333.475V100.217H354.58V106.067H341.125ZM389.016 116.597C389.016 118.967 388.603 121.157 387.778 123.167C386.968 125.162 385.821 126.895 384.336 128.365C382.851 129.82 381.058 130.96 378.958 131.785C376.873 132.595 374.556 133 372.006 133H359.271V100.217H372.006C374.556 100.217 376.873 100.63 378.958 101.455C381.058 102.28 382.851 103.42 384.336 104.875C385.821 106.33 386.968 108.062 387.778 110.072C388.603 112.067 389.016 114.242 389.016 116.597ZM381.231 116.597C381.231 114.977 381.021 113.515 380.601 112.21C380.181 110.905 379.573 109.802 378.778 108.902C377.998 107.987 377.038 107.29 375.898 106.81C374.758 106.315 373.461 106.067 372.006 106.067H366.921V127.15H372.006C373.461 127.15 374.758 126.91 375.898 126.43C377.038 125.935 377.998 125.237 378.778 124.337C379.573 123.422 380.181 122.312 380.601 121.007C381.021 119.702 381.231 118.232 381.231 116.597ZM401.154 133H393.504V100.217H401.154V133ZM424.804 120.467L421.766 111.49C421.541 110.92 421.301 110.252 421.046 109.487C420.791 108.707 420.536 107.867 420.281 106.967C420.056 107.882 419.816 108.73 419.561 109.51C419.306 110.29 419.066 110.965 418.841 111.535L415.826 120.467H424.804ZM436.886 133H430.991C430.331 133 429.799 132.85 429.394 132.55C428.989 132.235 428.681 131.837 428.471 131.357L426.536 125.642H414.071L412.136 131.357C411.971 131.777 411.671 132.16 411.236 132.505C410.816 132.835 410.291 133 409.661 133H403.721L416.411 100.217H424.196L436.886 133Z" fill="#0171CF"/>
<g filter="url(#filter0_d_401_16)">
<rect x="95.0728" y="81" width="359.818" height="70" stroke="#2F8FFF" stroke-width="2"/>
<g filter="url(#filter1_i_401_16)">
<ellipse cx="453.307" cy="80.5" rx="5.68571" ry="5.5" fill="#2F8FFF"/>
</g>
<g filter="url(#filter2_i_401_16)">
<ellipse cx="95.6235" cy="80.5" rx="5.68571" ry="5.5" fill="#2F8FFF"/>
</g>
<g filter="url(#filter3_i_401_16)">
<ellipse cx="453.307" cy="150.5" rx="5.68571" ry="5.5" fill="#2F8FFF"/>
</g>
<g filter="url(#filter4_i_401_16)">
<ellipse cx="95.6235" cy="150.5" rx="5.68571" ry="5.5" fill="#2F8FFF"/>
</g>
</g>
<defs>
<filter id="filter0_d_401_16" x="83.9377" y="71" width="385.054" height="97" filterUnits="userSpaceOnUse" color-interpolation-filters="sRGB">
<feFlood flood-opacity="0" result="BackgroundImageFix"/>
<feColorMatrix in="SourceAlpha" type="matrix" values="0 0 0 0 0 0 0 0 0 0 0 0 0 0 0 0 0 0 127 0" result="hardAlpha"/>
<feOffset dx="2" dy="4"/>
<feGaussianBlur stdDeviation="4"/>
<feComposite in2="hardAlpha" operator="out"/>
<feColorMatrix type="matrix" values="0 0 0 0 0 0 0 0 0 0 0 0 0 0 0 0 0 0 0.25 0"/>
<feBlend mode="normal" in2="BackgroundImageFix" result="effect1_dropShadow_401_16"/>
<feBlend mode="normal" in="SourceGraphic" in2="effect1_dropShadow_401_16" result="shape"/>
</filter>
<filter id="filter1_i_401_16" x="447.621" y="73" width="11.3713" height="13" filterUnits="userSpaceOnUse" color-interpolation-filters="sRGB">
<feFlood flood-opacity="0" result="BackgroundImageFix"/>
<feBlend mode="normal" in="SourceGraphic" in2="BackgroundImageFix" result="shape"/>
<feColorMatrix in="SourceAlpha" type="matrix" values="0 0 0 0 0 0 0 0 0 0 0 0 0 0 0 0 0 0 127 0" result="hardAlpha"/>
<feMorphology radius="7" operator="dilate" in="SourceAlpha" result="effect1_innerShadow_401_16"/>
<feOffset dy="-2"/>
<feGaussianBlur stdDeviation="5.5"/>
<feComposite in2="hardAlpha" operator="arithmetic" k2="-1" k3="1"/>
<feColorMatrix type="matrix" values="0 0 0 0 0 0 0 0 0 0 0 0 0 0 0 0 0 0 0.25 0"/>
<feBlend mode="normal" in2="shape" result="effect1_innerShadow_401_16"/>
</filter>
<filter id="filter2_i_401_16" x="89.9377" y="73" width="11.3713" height="13" filterUnits="userSpaceOnUse" color-interpolation-filters="sRGB">
<feFlood flood-opacity="0" result="BackgroundImageFix"/>
<feBlend mode="normal" in="SourceGraphic" in2="BackgroundImageFix" result="shape"/>
<feColorMatrix in="SourceAlpha" type="matrix" values="0 0 0 0 0 0 0 0 0 0 0 0 0 0 0 0 0 0 127 0" result="hardAlpha"/>
<feMorphology radius="7" operator="dilate" in="SourceAlpha" result="effect1_innerShadow_401_16"/>
<feOffset dy="-2"/>
<feGaussianBlur stdDeviation="5.5"/>
<feComposite in2="hardAlpha" operator="arithmetic" k2="-1" k3="1"/>
<feColorMatrix type="matrix" values="0 0 0 0 0 0 0 0 0 0 0 0 0 0 0 0 0 0 0.25 0"/>
<feBlend mode="normal" in2="shape" result="effect1_innerShadow_401_16"/>
</filter>
<filter id="filter3_i_401_16" x="447.621" y="143" width="11.3713" height="13" filterUnits="userSpaceOnUse" color-interpolation-filters="sRGB">
<feFlood flood-opacity="0" result="BackgroundImageFix"/>
<feBlend mode="normal" in="SourceGraphic" in2="BackgroundImageFix" result="shape"/>
<feColorMatrix in="SourceAlpha" type="matrix" values="0 0 0 0 0 0 0 0 0 0 0 0 0 0 0 0 0 0 127 0" result="hardAlpha"/>
<feMorphology radius="7" operator="dilate" in="SourceAlpha" result="effect1_innerShadow_401_16"/>
<feOffset dy="-2"/>
<feGaussianBlur stdDeviation="5.5"/>
<feComposite in2="hardAlpha" operator="arithmetic" k2="-1" k3="1"/>
<feColorMatrix type="matrix" values="0 0 0 0 0 0 0 0 0 0 0 0 0 0 0 0 0 0 0.25 0"/>
<feBlend mode="normal" in2="shape" result="effect1_innerShadow_401_16"/>
</filter>
<filter id="filter4_i_401_16" x="89.9377" y="143" width="11.3713" height="13" filterUnits="userSpaceOnUse" color-interpolation-filters="sRGB">
<feFlood flood-opacity="0" result="BackgroundImageFix"/>
<feBlend mode="normal" in="SourceGraphic" in2="BackgroundImageFix" result="shape"/>
<feColorMatrix in="SourceAlpha" type="matrix" values="0 0 0 0 0 0 0 0 0 0 0 0 0 0 0 0 0 0 127 0" result="hardAlpha"/>
<feMorphology radius="7" operator="dilate" in="SourceAlpha" result="effect1_innerShadow_401_16"/>
<feOffset dy="-2"/>
<feGaussianBlur stdDeviation="5.5"/>
<feComposite in2="hardAlpha" operator="arithmetic" k2="-1" k3="1"/>
<feColorMatrix type="matrix" values="0 0 0 0 0 0 0 0 0 0 0 0 0 0 0 0 0 0 0.25 0"/>
<feBlend mode="normal" in2="shape" result="effect1_innerShadow_401_16"/>
</filter>
</defs>
</svg>
