<?xml version="1.0" encoding="utf-8"?>
<svg width="274" height="188" viewBox="67.998 60.886 134.874 30.664" fill="none" xmlns="http://www.w3.org/2000/svg">
  <path d="M 87.85 72.117 L 87.85 70.681 L 95.392 70.681 L 95.392 72.117 L 92.471 72.117 L 92.471 80.136 L 90.772 80.136 L 90.772 72.117 L 87.85 72.117 Z M 100.45 80.274 C 99.739 80.274 99.125 80.127 98.608 79.831 C 98.094 79.533 97.699 79.111 97.422 78.566 C 97.145 78.018 97.006 77.374 97.006 76.632 C 97.006 75.902 97.145 75.262 97.422 74.711 C 97.702 74.157 98.093 73.727 98.594 73.419 C 99.096 73.108 99.685 72.953 100.362 72.953 C 100.799 72.953 101.212 73.023 101.6 73.165 C 101.99 73.303 102.335 73.519 102.634 73.811 C 102.935 74.104 103.172 74.476 103.345 74.928 C 103.517 75.378 103.603 75.913 103.603 76.535 L 103.603 77.047 L 97.791 77.047 L 97.791 75.921 L 102.001 75.921 C 101.998 75.601 101.929 75.316 101.793 75.067 C 101.658 74.814 101.469 74.616 101.226 74.471 C 100.986 74.327 100.706 74.254 100.385 74.254 C 100.044 74.254 99.744 74.337 99.485 74.504 C 99.227 74.667 99.025 74.882 98.881 75.15 C 98.739 75.415 98.667 75.705 98.664 76.022 L 98.664 77.006 C 98.664 77.418 98.739 77.772 98.89 78.068 C 99.041 78.36 99.251 78.585 99.522 78.742 C 99.793 78.895 100.11 78.972 100.473 78.972 C 100.716 78.972 100.936 78.939 101.133 78.871 C 101.33 78.8 101.501 78.697 101.646 78.562 C 101.79 78.426 101.9 78.258 101.974 78.058 L 103.534 78.234 C 103.435 78.646 103.248 79.006 102.971 79.314 C 102.697 79.619 102.346 79.856 101.918 80.025 C 101.49 80.191 101.001 80.274 100.45 80.274 Z M 112.188 74.919 L 110.664 75.085 C 110.621 74.931 110.546 74.787 110.438 74.651 C 110.334 74.516 110.192 74.407 110.013 74.324 C 109.835 74.24 109.616 74.199 109.358 74.199 C 109.01 74.199 108.718 74.274 108.481 74.425 C 108.247 74.576 108.131 74.771 108.135 75.011 C 108.131 75.218 108.207 75.385 108.361 75.515 C 108.518 75.644 108.776 75.75 109.136 75.833 L 110.346 76.092 C 111.017 76.236 111.515 76.466 111.842 76.78 C 112.171 77.093 112.337 77.504 112.34 78.012 C 112.337 78.458 112.206 78.852 111.948 79.194 C 111.692 79.533 111.337 79.797 110.881 79.988 C 110.426 80.179 109.903 80.274 109.312 80.274 C 108.444 80.274 107.745 80.093 107.216 79.729 C 106.687 79.363 106.371 78.854 106.27 78.201 L 107.899 78.044 C 107.973 78.365 108.13 78.606 108.37 78.769 C 108.61 78.932 108.922 79.014 109.307 79.014 C 109.704 79.014 110.023 78.932 110.263 78.769 C 110.506 78.606 110.627 78.405 110.627 78.165 C 110.627 77.961 110.549 77.794 110.392 77.661 C 110.238 77.529 109.998 77.427 109.672 77.357 L 108.462 77.103 C 107.782 76.961 107.279 76.723 106.953 76.387 C 106.627 76.049 106.465 75.621 106.468 75.104 C 106.465 74.667 106.583 74.288 106.823 73.968 C 107.067 73.645 107.404 73.396 107.835 73.22 C 108.268 73.042 108.769 72.953 109.335 72.953 C 110.166 72.953 110.82 73.129 111.297 73.483 C 111.777 73.837 112.074 74.316 112.188 74.919 Z M 118.826 73.045 L 118.826 74.337 L 114.749 74.337 L 114.749 73.045 L 118.826 73.045 Z M 115.756 71.346 L 117.427 71.346 L 117.427 78.003 C 117.427 78.228 117.461 78.4 117.528 78.52 C 117.599 78.637 117.691 78.717 117.805 78.76 C 117.919 78.803 118.045 78.825 118.184 78.825 C 118.288 78.825 118.384 78.817 118.47 78.802 C 118.559 78.786 118.627 78.772 118.673 78.76 L 118.955 80.066 C 118.866 80.097 118.738 80.131 118.572 80.168 C 118.409 80.205 118.208 80.227 117.971 80.233 C 117.553 80.245 117.176 80.182 116.84 80.043 C 116.505 79.902 116.239 79.683 116.042 79.388 C 115.848 79.092 115.752 78.723 115.756 78.28 L 115.756 71.346 Z M 121.79 80.136 L 121.79 73.045 L 123.461 73.045 L 123.461 80.136 L 121.79 80.136 Z M 122.63 72.038 C 122.365 72.038 122.137 71.951 121.947 71.775 C 121.756 71.597 121.66 71.383 121.66 71.134 C 121.66 70.881 121.756 70.667 121.947 70.492 C 122.137 70.313 122.365 70.224 122.63 70.224 C 122.898 70.224 123.125 70.313 123.313 70.492 C 123.504 70.667 123.599 70.881 123.599 71.134 C 123.599 71.383 123.504 71.597 123.313 71.775 C 123.125 71.951 122.898 72.038 122.63 72.038 Z M 126.746 80.136 L 126.746 73.045 L 128.343 73.045 L 128.343 74.25 L 128.426 74.25 C 128.574 73.843 128.819 73.526 129.16 73.299 C 129.502 73.068 129.91 72.953 130.384 72.953 C 130.864 72.953 131.268 73.069 131.598 73.303 C 131.93 73.534 132.164 73.85 132.299 74.25 L 132.373 74.25 C 132.53 73.856 132.795 73.542 133.167 73.308 C 133.543 73.071 133.988 72.953 134.501 72.953 C 135.154 72.953 135.686 73.159 136.099 73.571 C 136.511 73.984 136.717 74.585 136.717 75.376 L 136.717 80.136 L 135.042 80.136 L 135.042 75.635 C 135.042 75.195 134.925 74.873 134.691 74.67 C 134.457 74.464 134.171 74.361 133.832 74.361 C 133.429 74.361 133.113 74.487 132.886 74.739 C 132.661 74.988 132.549 75.313 132.549 75.713 L 132.549 80.136 L 130.91 80.136 L 130.91 75.565 C 130.91 75.199 130.799 74.907 130.577 74.688 C 130.359 74.47 130.073 74.361 129.719 74.361 C 129.479 74.361 129.26 74.422 129.063 74.545 C 128.866 74.665 128.709 74.836 128.592 75.058 C 128.475 75.276 128.417 75.532 128.417 75.824 L 128.417 80.136 L 126.746 80.136 Z M 143.072 80.274 C 142.38 80.274 141.78 80.122 141.272 79.817 C 140.764 79.513 140.37 79.086 140.09 78.538 C 139.813 77.991 139.675 77.35 139.675 76.618 C 139.675 75.886 139.813 75.244 140.09 74.693 C 140.37 74.142 140.764 73.714 141.272 73.41 C 141.78 73.105 142.38 72.953 143.072 72.953 C 143.765 72.953 144.365 73.105 144.873 73.41 C 145.381 73.714 145.773 74.142 146.05 74.693 C 146.33 75.244 146.47 75.886 146.47 76.618 C 146.47 77.35 146.33 77.991 146.05 78.538 C 145.773 79.086 145.381 79.513 144.873 79.817 C 144.365 80.122 143.765 80.274 143.072 80.274 Z M 143.082 78.935 C 143.457 78.935 143.771 78.832 144.023 78.626 C 144.276 78.417 144.463 78.137 144.587 77.786 C 144.713 77.435 144.776 77.044 144.776 76.613 C 144.776 76.179 144.713 75.787 144.587 75.436 C 144.463 75.082 144.276 74.801 144.023 74.591 C 143.771 74.382 143.457 74.277 143.082 74.277 C 142.697 74.277 142.377 74.382 142.121 74.591 C 141.869 74.801 141.68 75.082 141.553 75.436 C 141.43 75.787 141.369 76.179 141.369 76.613 C 141.369 77.044 141.43 77.435 141.553 77.786 C 141.68 78.137 141.869 78.417 142.121 78.626 C 142.377 78.832 142.697 78.935 143.082 78.935 Z M 151.126 75.981 L 151.126 80.136 L 149.455 80.136 L 149.455 73.045 L 151.052 73.045 L 151.052 74.25 L 151.135 74.25 C 151.298 73.853 151.559 73.537 151.916 73.303 C 152.276 73.069 152.72 72.953 153.25 72.953 C 153.739 72.953 154.165 73.057 154.528 73.266 C 154.895 73.476 155.178 73.779 155.378 74.176 C 155.581 74.573 155.681 75.055 155.678 75.621 L 155.678 80.136 L 154.007 80.136 L 154.007 75.879 C 154.007 75.405 153.884 75.035 153.637 74.767 C 153.394 74.499 153.057 74.365 152.626 74.365 C 152.334 74.365 152.074 74.43 151.846 74.559 C 151.622 74.685 151.445 74.868 151.315 75.108 C 151.189 75.348 151.126 75.639 151.126 75.981 Z M 158.943 80.136 L 158.943 73.045 L 160.614 73.045 L 160.614 80.136 L 158.943 80.136 Z M 159.783 72.038 C 159.519 72.038 159.291 71.951 159.1 71.775 C 158.909 71.597 158.814 71.383 158.814 71.134 C 158.814 70.881 158.909 70.667 159.1 70.492 C 159.291 70.313 159.519 70.224 159.783 70.224 C 160.051 70.224 160.279 70.313 160.467 70.492 C 160.658 70.667 160.753 70.881 160.753 71.134 C 160.753 71.383 160.658 71.597 160.467 71.775 C 160.279 71.951 160.051 72.038 159.783 72.038 Z M 165.94 80.279 C 165.491 80.279 165.086 80.199 164.726 80.039 C 164.369 79.876 164.086 79.636 163.876 79.319 C 163.67 79.002 163.567 78.611 163.567 78.146 C 163.567 77.746 163.641 77.415 163.789 77.153 C 163.936 76.892 164.138 76.683 164.393 76.526 C 164.649 76.369 164.937 76.25 165.257 76.17 C 165.58 76.087 165.914 76.027 166.258 75.99 C 166.674 75.947 167.011 75.909 167.269 75.875 C 167.528 75.838 167.716 75.782 167.833 75.709 C 167.953 75.632 168.013 75.513 168.013 75.353 L 168.013 75.325 C 168.013 74.978 167.91 74.708 167.703 74.517 C 167.497 74.327 167.2 74.231 166.812 74.231 C 166.403 74.231 166.078 74.321 165.838 74.499 C 165.601 74.678 165.441 74.888 165.358 75.131 L 163.798 74.91 C 163.921 74.479 164.124 74.119 164.407 73.83 C 164.69 73.537 165.037 73.319 165.446 73.174 C 165.855 73.026 166.308 72.953 166.803 72.953 C 167.145 72.953 167.485 72.993 167.823 73.073 C 168.162 73.153 168.471 73.285 168.751 73.47 C 169.031 73.651 169.256 73.899 169.425 74.213 C 169.598 74.527 169.684 74.919 169.684 75.39 L 169.684 80.136 L 168.077 80.136 L 168.077 79.162 L 168.022 79.162 C 167.92 79.359 167.777 79.543 167.593 79.716 C 167.411 79.885 167.182 80.022 166.905 80.127 C 166.631 80.228 166.309 80.279 165.94 80.279 Z M 166.374 79.051 C 166.709 79.051 167 78.985 167.246 78.852 C 167.493 78.717 167.682 78.538 167.814 78.317 C 167.95 78.095 168.017 77.854 168.017 77.592 L 168.017 76.756 C 167.965 76.8 167.876 76.84 167.75 76.877 C 167.626 76.913 167.488 76.946 167.334 76.973 C 167.18 77.001 167.028 77.026 166.877 77.047 C 166.726 77.069 166.595 77.087 166.485 77.103 C 166.235 77.137 166.012 77.192 165.815 77.269 C 165.618 77.346 165.463 77.454 165.349 77.592 C 165.235 77.727 165.178 77.903 165.178 78.118 C 165.178 78.426 165.291 78.658 165.515 78.815 C 165.74 78.972 166.026 79.051 166.374 79.051 Z M 174.602 70.681 L 174.602 80.136 L 172.931 80.136 L 172.931 70.681 L 174.602 70.681 Z M 183.491 74.919 L 181.968 75.085 C 181.925 74.931 181.849 74.787 181.742 74.651 C 181.637 74.516 181.495 74.407 181.317 74.324 C 181.138 74.24 180.92 74.199 180.661 74.199 C 180.314 74.199 180.021 74.274 179.784 74.425 C 179.55 74.576 179.435 74.771 179.438 75.011 C 179.435 75.218 179.51 75.385 179.664 75.515 C 179.821 75.644 180.08 75.75 180.44 75.833 L 181.649 76.092 C 182.32 76.236 182.819 76.466 183.145 76.78 C 183.474 77.093 183.641 77.504 183.644 78.012 C 183.641 78.458 183.51 78.852 183.251 79.194 C 182.996 79.533 182.64 79.797 182.185 79.988 C 181.729 80.179 181.206 80.274 180.615 80.274 C 179.747 80.274 179.049 80.093 178.519 79.729 C 177.99 79.363 177.675 78.854 177.573 78.201 L 179.203 78.044 C 179.276 78.365 179.433 78.606 179.673 78.769 C 179.914 78.932 180.226 79.014 180.611 79.014 C 181.008 79.014 181.326 78.932 181.566 78.769 C 181.809 78.606 181.931 78.405 181.931 78.165 C 181.931 77.961 181.852 77.794 181.695 77.661 C 181.542 77.529 181.302 77.427 180.975 77.357 L 179.766 77.103 C 179.086 76.961 178.582 76.723 178.256 76.387 C 177.93 76.049 177.768 75.621 177.771 75.104 C 177.768 74.667 177.887 74.288 178.127 73.968 C 178.37 73.645 178.707 73.396 179.138 73.22 C 179.572 73.042 180.072 72.953 180.638 72.953 C 181.469 72.953 182.123 73.129 182.6 73.483 C 183.08 73.837 183.377 74.316 183.491 74.919 Z" fill="#0056BB"/>
  <g filter="url(#filter0_d_601_16)" transform="matrix(1, 0, 0, 1, -4.552212, 58.894238)">
    <rect x="79.0929" y="5.44579" width="122.167" height="24.0496" stroke="#2F8FFF" stroke-width="1.36216"/>
    <g filter="url(#filter1_i_601_16)">
      <circle cx="201.059" cy="4.94118" r="1.94118" fill="#2F8FFF"/>
    </g>
    <g filter="url(#filter2_i_601_16)">
      <circle cx="78.9412" cy="4.94118" r="1.94118" fill="#2F8FFF"/>
    </g>
    <g filter="url(#filter3_i_601_16)">
      <circle cx="201.059" cy="29.647" r="1.94118" fill="#2F8FFF"/>
    </g>
    <g filter="url(#filter4_i_601_16)">
      <circle cx="78.9412" cy="29.647" r="1.94118" fill="#2F8FFF"/>
    </g>
  </g>
  <defs>
    <filter id="filter0_d_601_16" x="72.9135" y="0.275676" width="136.897" height="39.4855" filterUnits="userSpaceOnUse" color-interpolation-filters="sRGB">
      <feFlood flood-opacity="0" result="BackgroundImageFix"/>
      <feColorMatrix in="SourceAlpha" type="matrix" values="0 0 0 0 0 0 0 0 0 0 0 0 0 0 0 0 0 0 127 0" result="hardAlpha"/>
      <feOffset dx="1.36216" dy="2.72432"/>
      <feGaussianBlur stdDeviation="2.72432"/>
      <feComposite in2="hardAlpha" operator="out"/>
      <feColorMatrix type="matrix" values="0 0 0 0 0 0 0 0 0 0 0 0 0 0 0 0 0 0 0.25 0"/>
      <feBlend mode="normal" in2="BackgroundImageFix" result="effect1_dropShadow_601_16"/>
      <feBlend mode="normal" in="SourceGraphic" in2="effect1_dropShadow_601_16" result="shape"/>
    </filter>
    <filter id="filter1_i_601_16" x="199.118" y="1.63784" width="3.88232" height="5.24449" filterUnits="userSpaceOnUse" color-interpolation-filters="sRGB">
      <feFlood flood-opacity="0" result="BackgroundImageFix"/>
      <feBlend mode="normal" in="SourceGraphic" in2="BackgroundImageFix" result="shape"/>
      <feColorMatrix in="SourceAlpha" type="matrix" values="0 0 0 0 0 0 0 0 0 0 0 0 0 0 0 0 0 0 127 0" result="hardAlpha"/>
      <feMorphology radius="4.76757" operator="dilate" in="SourceAlpha" result="effect1_innerShadow_601_16"/>
      <feOffset dy="-1.36216"/>
      <feGaussianBlur stdDeviation="3.74595"/>
      <feComposite in2="hardAlpha" operator="arithmetic" k2="-1" k3="1"/>
      <feColorMatrix type="matrix" values="0 0 0 0 0 0 0 0 0 0 0 0 0 0 0 0 0 0 0.25 0"/>
      <feBlend mode="normal" in2="shape" result="effect1_innerShadow_601_16"/>
    </filter>
    <filter id="filter2_i_601_16" x="77" y="1.63784" width="3.88232" height="5.24449" filterUnits="userSpaceOnUse" color-interpolation-filters="sRGB">
      <feFlood flood-opacity="0" result="BackgroundImageFix"/>
      <feBlend mode="normal" in="SourceGraphic" in2="BackgroundImageFix" result="shape"/>
      <feColorMatrix in="SourceAlpha" type="matrix" values="0 0 0 0 0 0 0 0 0 0 0 0 0 0 0 0 0 0 127 0" result="hardAlpha"/>
      <feMorphology radius="4.76757" operator="dilate" in="SourceAlpha" result="effect1_innerShadow_601_16"/>
      <feOffset dy="-1.36216"/>
      <feGaussianBlur stdDeviation="3.74595"/>
      <feComposite in2="hardAlpha" operator="arithmetic" k2="-1" k3="1"/>
      <feColorMatrix type="matrix" values="0 0 0 0 0 0 0 0 0 0 0 0 0 0 0 0 0 0 0.25 0"/>
      <feBlend mode="normal" in2="shape" result="effect1_innerShadow_601_16"/>
    </filter>
    <filter id="filter3_i_601_16" x="199.118" y="26.3437" width="3.88232" height="5.24449" filterUnits="userSpaceOnUse" color-interpolation-filters="sRGB">
      <feFlood flood-opacity="0" result="BackgroundImageFix"/>
      <feBlend mode="normal" in="SourceGraphic" in2="BackgroundImageFix" result="shape"/>
      <feColorMatrix in="SourceAlpha" type="matrix" values="0 0 0 0 0 0 0 0 0 0 0 0 0 0 0 0 0 0 127 0" result="hardAlpha"/>
      <feMorphology radius="4.76757" operator="dilate" in="SourceAlpha" result="effect1_innerShadow_601_16"/>
      <feOffset dy="-1.36216"/>
      <feGaussianBlur stdDeviation="3.74595"/>
      <feComposite in2="hardAlpha" operator="arithmetic" k2="-1" k3="1"/>
      <feColorMatrix type="matrix" values="0 0 0 0 0 0 0 0 0 0 0 0 0 0 0 0 0 0 0.25 0"/>
      <feBlend mode="normal" in2="shape" result="effect1_innerShadow_601_16"/>
    </filter>
    <filter id="filter4_i_601_16" x="77" y="26.3437" width="3.88232" height="5.24449" filterUnits="userSpaceOnUse" color-interpolation-filters="sRGB">
      <feFlood flood-opacity="0" result="BackgroundImageFix"/>
      <feBlend mode="normal" in="SourceGraphic" in2="BackgroundImageFix" result="shape"/>
      <feColorMatrix in="SourceAlpha" type="matrix" values="0 0 0 0 0 0 0 0 0 0 0 0 0 0 0 0 0 0 127 0" result="hardAlpha"/>
      <feMorphology radius="4.76757" operator="dilate" in="SourceAlpha" result="effect1_innerShadow_601_16"/>
      <feOffset dy="-1.36216"/>
      <feGaussianBlur stdDeviation="3.74595"/>
      <feComposite in2="hardAlpha" operator="arithmetic" k2="-1" k3="1"/>
      <feColorMatrix type="matrix" values="0 0 0 0 0 0 0 0 0 0 0 0 0 0 0 0 0 0 0.25 0"/>
      <feBlend mode="normal" in2="shape" result="effect1_innerShadow_601_16"/>
    </filter>
    <view id="view-1">
      <title>View 1</title>
    </view>
  </defs>
</svg>